<svg width="322" height="40" viewBox="0 0 322 40" fill="none" xmlns="http://www.w3.org/2000/svg">
<g clip-path="url(#clip0)">
<path d="M187.297 33.7131H190.506C190.939 33.7171 191.37 33.6468 191.78 33.5051C192.159 33.374 192.508 33.1702 192.809 32.9051C193.103 32.6439 193.337 32.3222 193.495 31.9621C193.661 31.5796 193.745 31.1662 193.74 30.7491C193.745 30.3173 193.666 29.8887 193.507 29.4871C193.355 29.1102 193.125 28.7695 192.833 28.4871C192.533 28.1957 192.18 27.9654 191.792 27.8091C191.367 27.6411 190.914 27.5579 190.457 27.5641H187.297V33.7131ZM187.297 25.9961H190.114C190.634 26.0124 191.152 25.9165 191.632 25.7151C192.011 25.5486 192.349 25.3019 192.624 24.9921C192.868 24.7146 193.051 24.3893 193.163 24.0371C193.265 23.7202 193.319 23.3899 193.322 23.0571C193.324 22.6615 193.245 22.2696 193.089 21.9061C192.934 21.5471 192.709 21.2225 192.428 20.9511C192.121 20.6606 191.759 20.4357 191.362 20.2901C190.9 20.1201 190.41 20.0371 189.917 20.0451H187.297V25.9961ZM185.656 18.4761H189.943C190.664 18.4657 191.381 18.5818 192.062 18.8191C192.652 19.0261 193.195 19.3464 193.662 19.7621C194.096 20.1522 194.442 20.6292 194.679 21.1621C194.916 21.6972 195.037 22.2767 195.034 22.8621C195.037 23.6285 194.852 24.3839 194.495 25.0621C194.1 25.7825 193.471 26.3458 192.711 26.6581V26.7361C193.502 27.0055 194.196 27.4992 194.711 28.1571C195.264 28.8887 195.546 29.7889 195.511 30.7051C195.516 31.3336 195.393 31.9566 195.149 32.5361C194.915 33.0869 194.564 33.58 194.12 33.9811C193.639 34.4079 193.076 34.7327 192.466 34.9361C191.757 35.1733 191.013 35.2893 190.266 35.2791H185.656V18.4761ZM198.639 29.1361C198.636 29.8091 198.77 30.4758 199.031 31.0961C199.279 31.6958 199.636 32.2442 200.084 32.7131C200.527 33.1695 201.052 33.538 201.632 33.7991C202.224 34.0679 202.868 34.2044 203.518 34.1991C204.177 34.2062 204.829 34.0697 205.429 33.7991C206.009 33.5354 206.533 33.1618 206.972 32.6991C207.416 32.229 207.769 31.6807 208.013 31.0821C208.267 30.4643 208.396 29.8022 208.393 29.1341C208.396 28.4622 208.267 27.7963 208.013 27.1741C207.773 26.5734 207.419 26.0244 206.972 25.5571C206.528 25.0976 206 24.7276 205.416 24.4671C204.819 24.1988 204.171 24.0623 203.516 24.0671C202.866 24.0617 202.222 24.1982 201.63 24.4671C201.052 24.7299 200.528 25.0998 200.087 25.5571C199.641 26.0215 199.284 26.5638 199.034 27.1571C198.768 27.7828 198.634 28.4563 198.639 29.1361ZM197.096 29.1361C197.089 28.2698 197.259 27.4112 197.596 26.6131C197.919 25.8472 198.389 25.1524 198.98 24.5681C199.572 23.9847 200.268 23.5179 201.032 23.1921C201.817 22.8561 202.664 22.6859 203.518 22.6921C204.372 22.6859 205.219 22.8561 206.004 23.1921C206.765 23.5175 207.459 23.9829 208.049 24.5641C208.64 25.1485 209.11 25.8433 209.432 26.6091C209.769 27.4085 209.94 28.2684 209.932 29.1361C209.937 29.9948 209.767 30.8455 209.432 31.6361C209.109 32.4026 208.643 33.101 208.06 33.6941C207.476 34.2851 206.781 34.7554 206.015 35.0781C205.224 35.4134 204.374 35.5835 203.515 35.5781C202.656 35.5835 201.806 35.4134 201.015 35.0781C200.249 34.7554 199.554 34.2851 198.97 33.6941C198.387 33.101 197.921 32.4026 197.598 31.6361C197.262 30.8457 197.091 29.9949 197.096 29.1361ZM211.108 24.2611C211.664 23.6787 212.353 23.2413 213.117 22.9871C213.712 22.8027 214.331 22.7037 214.954 22.6931C215.569 22.6771 216.181 22.7853 216.754 23.0111C217.209 23.1944 217.622 23.4695 217.967 23.8191C218.264 24.1253 218.497 24.4877 218.653 24.8851C218.794 25.2401 218.869 25.6181 218.873 26.0001C218.884 26.6018 218.699 27.1907 218.346 27.6781C217.99 28.1601 217.501 28.5278 216.939 28.7361V28.7851C217.645 28.9469 218.273 29.3496 218.715 29.9241C219.119 30.4828 219.329 31.1579 219.315 31.8471C219.316 32.3165 219.229 32.7818 219.058 33.2191C218.883 33.6656 218.616 34.0704 218.274 34.4071C217.885 34.7817 217.422 35.0696 216.914 35.2521C216.285 35.4766 215.621 35.5844 214.954 35.5701C214.692 35.5676 214.43 35.5472 214.17 35.5091C213.842 35.4588 213.521 35.3685 213.215 35.2401C212.841 35.0846 212.484 34.8916 212.149 34.6641C211.745 34.3861 211.378 34.0567 211.059 33.6841L212.039 32.6311C212.384 33.0713 212.808 33.4442 213.288 33.7311C213.821 34.0484 214.432 34.2095 215.052 34.1961C215.74 34.2116 216.412 33.9961 216.963 33.5841C217.227 33.3857 217.439 33.1257 217.58 32.8268C217.721 32.5279 217.786 32.1991 217.771 31.8691C217.799 31.4067 217.67 30.9484 217.404 30.5691C217.17 30.2672 216.862 30.0309 216.51 29.8831C216.16 29.7365 215.788 29.6457 215.41 29.6141C215.026 29.5814 214.695 29.5651 214.418 29.5651H213.928V28.2011H214.418C214.916 28.215 215.412 28.1474 215.888 28.0011C216.214 27.8995 216.515 27.729 216.77 27.5011C216.972 27.3129 217.124 27.0771 217.211 26.8151C217.289 26.5819 217.33 26.338 217.333 26.0921C217.331 25.5631 217.12 25.0565 216.745 24.6831C216.499 24.4576 216.208 24.2856 215.892 24.1781C215.576 24.0705 215.241 24.0296 214.908 24.0581C214.724 24.0606 214.54 24.0729 214.357 24.0951C214.111 24.1249 213.869 24.1782 213.634 24.2541C213.345 24.3489 213.069 24.4807 212.813 24.6461C212.497 24.8496 212.206 25.0878 211.943 25.3561L211.108 24.2611ZM229.751 33.9091L226.251 25.9721H226.202L222.818 33.9091H229.751ZM220.123 35.2811V33.9091H221.25L226.198 22.6891H226.247L231.269 33.9091H232.396V35.2811H220.123ZM238.741 34.1291L232.96 22.9831H234.675L239.525 32.3411H239.625L243.814 22.9831H245.406C244.245 25.4984 243.13 28.0054 242.06 30.5041C240.99 33.0027 239.859 35.4607 238.667 37.8781C238.472 38.2767 238.197 38.631 237.859 38.9191C237.568 39.1606 237.242 39.355 236.891 39.4951C236.584 39.6183 236.263 39.7045 235.936 39.7521C235.68 39.7893 235.422 39.8097 235.164 39.8131C234.952 39.8131 234.685 39.7967 234.364 39.7641C234.024 39.7261 233.691 39.6438 233.372 39.5191L233.837 38.2701C234.016 38.3187 234.188 38.3594 234.351 38.3921C234.52 38.4253 234.692 38.4417 234.865 38.4411C235.446 38.4737 236.023 38.3286 236.519 38.0251C236.89 37.7806 237.19 37.4426 237.389 37.0451L238.741 34.1291ZM247.976 22.9831L251.651 27.8831H251.751L255.328 22.9831H257.141L252.704 28.9611L257.579 35.2811H255.521L251.721 30.1611H251.621L247.995 35.2811H245.992L250.769 29.0101L246.164 22.9841L247.976 22.9831ZM275.119 27.1231L272.351 21.5131L269.558 27.1231H275.119ZM279.185 35.2801L275.902 28.6901H268.774L265.516 35.2801H263.826L272.375 18.0801H272.424L280.973 35.2801H279.185ZM287.147 22.6891L292.953 35.2801H291.483L287.172 26.1181H287.072L282.982 35.2811H281.439L287.098 22.6901L287.147 22.6891ZM293.247 24.3551V22.9831H301.723V24.3551H298.171V35.2811H296.677V24.3551H293.247ZM306.892 28.1031C306.443 28.0952 305.997 28.1785 305.581 28.3481C305.218 28.4972 304.889 28.7179 304.613 28.9971C304.353 29.2645 304.149 29.581 304.013 29.9281C303.875 30.2749 303.804 30.6448 303.805 31.0181C303.808 31.4023 303.875 31.7834 304.005 32.1451C304.136 32.5214 304.335 32.8702 304.593 33.1741C304.867 33.4941 305.208 33.7493 305.593 33.9211C306.049 34.1185 306.542 34.2147 307.038 34.2031C307.524 34.213 308.007 34.1256 308.459 33.9461C308.843 33.7907 309.192 33.5618 309.488 33.2721C309.761 33.0013 309.974 32.6759 310.113 32.3171C310.252 31.9576 310.322 31.5754 310.321 31.1901C310.32 30.8089 310.25 30.431 310.113 30.0751C309.973 29.706 309.76 29.3687 309.488 29.0831C309.187 28.7736 308.824 28.5315 308.422 28.3731C307.934 28.1832 307.414 28.0915 306.891 28.1031H306.892ZM304.05 23.3511C304.458 23.2044 304.956 23.0574 305.544 22.9101C306.161 22.7598 306.795 22.6859 307.43 22.6901C308.297 22.6437 309.162 22.8207 309.941 23.2041C310.467 23.4833 310.917 23.887 311.252 24.3801C311.511 24.771 311.679 25.2154 311.742 25.6801C311.791 26.1047 311.815 26.3987 311.815 26.5621V35.2831H310.394V33.8131H310.32C309.951 34.4356 309.389 34.9213 308.72 35.1971C308.109 35.4437 307.456 35.5726 306.797 35.5771C306.208 35.5798 305.623 35.4761 305.07 35.2711C304.535 35.0744 304.044 34.7747 303.625 34.3891C303.2 33.9933 302.862 33.5135 302.633 32.9801C302.382 32.392 302.257 31.7576 302.266 31.1181C302.252 30.4633 302.386 29.8139 302.658 29.2181C302.903 28.6918 303.258 28.2241 303.699 27.8461C304.129 27.4802 304.623 27.1977 305.157 27.0131C305.684 26.8272 306.239 26.7319 306.798 26.7311C307.418 26.7399 308.031 26.856 308.611 27.0741C309.265 27.3149 309.841 27.7298 310.277 28.2741H310.326V26.4131C310.335 26.0861 310.266 25.7618 310.126 25.4663C309.985 25.1709 309.777 24.9129 309.518 24.7131C308.904 24.2563 308.151 24.0269 307.387 24.0641C306.812 24.065 306.239 24.1475 305.687 24.3091C305.124 24.4724 304.613 24.6437 304.156 24.8231L303.446 25.1171L304.05 23.3511ZM320.463 24.3511H318.65C318.205 24.3428 317.761 24.4104 317.339 24.5511C317.006 24.6617 316.699 24.8364 316.433 25.0651C316.202 25.2696 316.021 25.5254 315.906 25.8121C315.794 26.0884 315.736 26.3838 315.735 26.6821C315.73 27.0106 315.8 27.3359 315.94 27.6331C316.081 27.9303 316.287 28.1916 316.543 28.3971C317.196 28.8911 318.004 29.1345 318.821 29.0831H320.462L320.463 24.3511ZM321.957 35.2771H320.463V29.4261H320.39L315.27 35.2811H313.286L317.818 30.1611C317.291 30.1386 316.773 30.0225 316.287 29.8181C315.861 29.6375 315.474 29.3752 315.148 29.0461C314.84 28.7309 314.598 28.3567 314.438 27.9461C314.276 27.5367 314.193 27.1004 314.193 26.6601C314.199 26.2374 314.278 25.8189 314.426 25.4231C314.59 24.9767 314.849 24.5713 315.185 24.2351C315.587 23.8411 316.066 23.535 316.592 23.3361C317.296 23.0799 318.043 22.9595 318.792 22.9811H321.952L321.957 35.2771Z" fill="#333333"/>
<path d="M178.21 35.919H119.569C111.154 35.919 103.593 28.219 96.676 19.905C95.451 18.431 94.249 16.944 93.076 15.489C87.473 8.552 82.182 2 78.112 2C73.059 2 67.297 7.274 61.724 12.374C56.435 17.214 51.439 21.786 47.024 21.786C42.741 21.786 40.168 19.753 37.68 17.786C34.892 15.586 32.009 13.305 26.296 13.305C15.683 13.306 2.44 35.7 2.311 35.919H0C0.55 34.976 14.547 11.306 26.3 11.306C32.708 11.306 36.01 13.916 38.924 16.218C41.347 18.132 43.44 19.786 47.024 19.786C50.663 19.786 55.6 15.268 60.374 10.898C66.231 5.541 72.282 0 78.112 0C83.138 0 88.464 6.6 94.631 14.233C95.71 15.569 96.811 16.933 97.931 18.286C106.005 15.136 113.621 13.191 126.164 13.191C159.233 13.191 176.702 34.075 176.874 34.286L178.21 35.919ZM99.287 19.905C105.593 27.341 112.387 33.919 119.569 33.919H173.8C168.978 29.084 152.8 15.191 126.164 15.191C114.262 15.191 106.917 16.984 99.287 19.905Z" fill="#333333"/>
</g>
<defs>
<clipPath id="clip0">
<rect width="321.957" height="39.813" fill="white"/>
</clipPath>
</defs>
</svg>
