<svg width="179" height="36" viewBox="0 0 179 36" fill="none" xmlns="http://www.w3.org/2000/svg">
<path d="M178.21 35.919H119.569C111.154 35.919 103.593 28.219 96.676 19.905C95.451 18.431 94.249 16.944 93.076 15.489C87.473 8.552 82.182 2 78.112 2C73.059 2 67.297 7.274 61.724 12.374C56.435 17.214 51.439 21.786 47.024 21.786C42.741 21.786 40.168 19.753 37.68 17.786C34.892 15.586 32.009 13.305 26.296 13.305C15.683 13.306 2.44 35.7 2.311 35.919H0C0.55 34.976 14.547 11.306 26.3 11.306C32.708 11.306 36.01 13.916 38.924 16.218C41.347 18.132 43.44 19.786 47.024 19.786C50.663 19.786 55.6 15.268 60.374 10.898C66.231 5.541 72.282 0 78.112 0C83.138 0 88.464 6.6 94.631 14.233C95.71 15.569 96.811 16.933 97.931 18.286C106.005 15.136 113.621 13.191 126.164 13.191C159.233 13.191 176.702 34.075 176.874 34.286L178.21 35.919ZM99.287 19.905C105.593 27.341 112.387 33.919 119.569 33.919H173.8C168.978 29.084 152.8 15.191 126.164 15.191C114.262 15.191 106.917 16.984 99.287 19.905Z" fill="#8F99A9"/>
</svg>
