<svg width="452" height="130" viewBox="0 0 452 130" fill="none" xmlns="http://www.w3.org/2000/svg">
<path d="M256.167 121.315H260.729C261.345 121.319 261.958 121.218 262.54 121.014C263.078 120.829 263.575 120.54 264.003 120.163C264.421 119.791 264.753 119.332 264.978 118.819C265.214 118.274 265.333 117.685 265.326 117.091C265.333 116.476 265.22 115.866 264.995 115.294C264.78 114.754 264.453 114.267 264.038 113.862C263.611 113.45 263.108 113.124 262.558 112.903C261.953 112.664 261.308 112.545 260.659 112.554H256.162L256.167 121.315ZM256.167 110.317H260.171C260.911 110.34 261.648 110.204 262.331 109.916C262.869 109.679 263.351 109.328 263.741 108.887C264.086 108.492 264.345 108.029 264.502 107.529C264.647 107.077 264.724 106.607 264.729 106.133C264.733 105.569 264.62 105.01 264.398 104.492C264.178 103.981 263.858 103.518 263.458 103.131C263.022 102.717 262.507 102.396 261.943 102.189C261.285 101.947 260.589 101.829 259.888 101.84H256.167V110.317ZM253.833 99.6007H259.929C260.954 99.586 261.974 99.7514 262.941 100.089C263.782 100.384 264.557 100.84 265.222 101.433C265.837 101.988 266.329 102.665 266.667 103.423C267.005 104.186 267.177 105.013 267.171 105.848C267.176 106.944 266.912 108.025 266.401 108.994C265.839 110.019 264.943 110.82 263.863 111.263V111.364C264.985 111.749 265.971 112.454 266.701 113.392C267.484 114.435 267.884 115.717 267.833 117.021C267.844 117.919 267.672 118.81 267.328 119.639C266.996 120.424 266.497 121.127 265.865 121.698C265.182 122.306 264.382 122.769 263.515 123.059C262.505 123.398 261.446 123.563 260.381 123.548H253.833V99.6007ZM272.29 114.788C272.286 115.747 272.476 116.696 272.848 117.58C273.2 118.435 273.708 119.216 274.347 119.884C274.975 120.536 275.721 121.063 276.545 121.437C277.386 121.822 278.301 122.019 279.226 122.013C280.161 122.019 281.086 121.822 281.936 121.434C282.764 121.058 283.51 120.525 284.135 119.864C284.766 119.194 285.268 118.413 285.615 117.56C285.976 116.68 286.16 115.737 286.155 114.786C286.159 113.829 285.975 112.88 285.615 111.994C285.273 111.138 284.771 110.356 284.135 109.69C283.504 109.035 282.753 108.508 281.923 108.137C281.076 107.753 280.155 107.556 279.225 107.561C278.3 107.555 277.385 107.752 276.544 108.137C275.72 108.511 274.974 109.038 274.346 109.69C273.71 110.353 273.202 111.128 272.847 111.976C272.472 112.865 272.282 113.822 272.29 114.788ZM270.091 114.788C270.082 113.553 270.325 112.33 270.805 111.193C271.264 110.102 271.932 109.112 272.773 108.279C273.612 107.451 274.598 106.788 275.681 106.325C276.797 105.845 278.001 105.602 279.215 105.61C280.43 105.602 281.633 105.845 282.75 106.325C283.833 106.788 284.819 107.451 285.658 108.279C286.498 109.112 287.167 110.102 287.626 111.193C288.105 112.33 288.348 113.553 288.339 114.788C288.346 116.011 288.103 117.222 287.626 118.347C287.166 119.439 286.505 120.434 285.676 121.279C284.845 122.121 283.857 122.791 282.768 123.251C281.645 123.729 280.436 123.973 279.216 123.966C277.996 123.973 276.788 123.729 275.665 123.251C274.576 122.791 273.587 122.121 272.757 121.279C271.928 120.434 271.266 119.439 270.807 118.347C270.331 117.222 270.09 116.01 270.098 114.788H270.091ZM290.015 107.842C290.805 107.013 291.785 106.39 292.87 106.027C293.716 105.765 294.595 105.625 295.481 105.61C296.356 105.587 297.226 105.742 298.04 106.064C298.688 106.325 299.274 106.717 299.764 107.215C300.187 107.651 300.518 108.168 300.74 108.734C300.94 109.238 301.047 109.774 301.054 110.317C301.07 111.174 300.808 112.013 300.306 112.708C299.802 113.398 299.107 113.926 298.307 114.226V114.296C299.311 114.529 300.202 115.105 300.828 115.926C301.4 116.721 301.698 117.681 301.677 118.662C301.678 119.33 301.554 119.993 301.311 120.616C301.062 121.252 300.683 121.829 300.197 122.308C299.645 122.841 298.986 123.251 298.264 123.51C297.371 123.83 296.427 123.984 295.478 123.964C295.105 123.96 294.733 123.931 294.364 123.877C293.897 123.805 293.441 123.676 293.006 123.493C292.475 123.272 291.967 122.997 291.491 122.673C290.916 122.277 290.395 121.808 289.941 121.277L291.334 119.774C291.825 120.403 292.427 120.935 293.11 121.345C293.867 121.797 294.736 122.027 295.617 122.008C296.594 122.03 297.551 121.723 298.333 121.135C298.709 120.853 299.01 120.483 299.21 120.057C299.41 119.631 299.504 119.163 299.482 118.693C299.522 118.037 299.34 117.386 298.965 116.847C298.632 116.417 298.194 116.08 297.694 115.869C297.195 115.66 296.666 115.531 296.127 115.486C295.581 115.439 295.111 115.416 294.717 115.416H294.017V113.462H294.717C295.424 113.483 296.13 113.389 296.806 113.182C297.271 113.037 297.698 112.793 298.06 112.467C298.348 112.199 298.563 111.863 298.687 111.49C298.798 111.158 298.857 110.81 298.861 110.46C298.857 109.708 298.556 108.989 298.025 108.457C297.675 108.136 297.262 107.891 296.813 107.737C296.363 107.584 295.886 107.526 295.413 107.567C295.151 107.57 294.89 107.588 294.63 107.619C294.281 107.662 293.937 107.738 293.602 107.846C293.191 107.982 292.799 108.169 292.436 108.405C291.988 108.695 291.573 109.034 291.199 109.416L290.015 107.842ZM316.516 121.593L311.536 110.286H311.47L306.661 121.593H316.516ZM302.83 123.548V121.593H304.429L311.47 105.61H311.54L318.679 121.594H320.278V123.548H302.83ZM329.296 121.908L321.078 106.027H323.515L330.41 119.36H330.549L336.504 106.027H338.768C337.12 109.611 335.535 113.183 334.015 116.743C332.495 120.303 330.887 123.803 329.191 127.243C328.913 127.811 328.522 128.316 328.042 128.726C327.629 129.07 327.165 129.347 326.667 129.546C326.23 129.722 325.775 129.845 325.309 129.913C324.945 129.966 324.578 129.995 324.21 130C323.908 130 323.53 129.977 323.077 129.93C322.594 129.876 322.12 129.759 321.667 129.581L322.329 127.802C322.584 127.868 322.828 127.927 323.06 127.976C323.301 128.023 323.546 128.047 323.792 128.046C324.617 128.092 325.437 127.885 326.142 127.453C326.67 127.106 327.097 126.626 327.381 126.061L329.296 121.908ZM342.424 106.027L347.646 113.008H347.785L352.869 106.028H355.446L349.145 114.543L356.075 123.548H353.15L347.754 116.254H347.615L342.459 123.548H339.604L346.4 114.614L339.851 106.027H342.424ZM381.009 111.925L377.074 103.933L373.103 111.925H381.009ZM386.79 123.543L382.122 114.16H371.99L367.358 123.548H364.96L377.114 99.0479H377.184L389.331 123.548L386.79 123.543ZM398.112 105.61L406.365 123.548H404.275L398.142 110.495H398.004L392.188 123.548H389.989L398.034 105.61H398.112ZM406.783 107.983V106.029H418.827V107.983H413.778V123.548H411.653V107.982L406.783 107.983ZM426.175 113.322C425.537 113.31 424.904 113.429 424.313 113.67C423.797 113.883 423.329 114.197 422.938 114.595C422.568 114.975 422.278 115.426 422.084 115.921C421.887 116.415 421.785 116.942 421.784 117.474C421.787 118.02 421.881 118.562 422.063 119.076C422.249 119.613 422.532 120.11 422.899 120.543C423.29 120.999 423.778 121.363 424.327 121.607C424.975 121.888 425.676 122.025 426.381 122.008C427.072 122.022 427.759 121.897 428.401 121.641C428.946 121.42 429.443 121.094 429.864 120.682C430.252 120.296 430.555 119.832 430.752 119.321C430.951 118.81 431.052 118.266 431.052 117.718C431.05 117.175 430.948 116.637 430.752 116.13C430.553 115.604 430.251 115.124 429.864 114.717C429.436 114.275 428.92 113.93 428.349 113.704C427.657 113.435 426.918 113.305 426.175 113.322ZM422.136 106.551C422.716 106.342 423.425 106.132 424.261 105.923C425.138 105.709 426.039 105.603 426.942 105.609C428.175 105.543 429.404 105.795 430.511 106.342C431.259 106.739 431.898 107.313 432.374 108.014C432.743 108.57 432.982 109.202 433.074 109.863C433.14 110.468 433.174 110.887 433.174 111.119V123.548H431.154V121.454H431.054C430.528 122.342 429.727 123.034 428.774 123.426C427.904 123.777 426.977 123.961 426.04 123.967C425.202 123.97 424.37 123.823 423.584 123.53C422.824 123.25 422.126 122.823 421.53 122.273C420.926 121.711 420.446 121.029 420.12 120.27C419.761 119.432 419.583 118.527 419.597 117.615C419.578 116.683 419.769 115.759 420.155 114.911C420.503 114.162 421.008 113.495 421.635 112.957C422.245 112.436 422.948 112.033 423.706 111.77C424.456 111.506 425.245 111.37 426.04 111.37C426.92 111.382 427.792 111.548 428.617 111.858C429.547 112.202 430.366 112.793 430.985 113.569H431.055V110.918C431.068 110.451 430.97 109.989 430.771 109.567C430.571 109.146 430.275 108.777 429.906 108.492C429.033 107.842 427.962 107.515 426.876 107.568C426.057 107.569 425.242 107.686 424.456 107.916C423.656 108.149 422.931 108.393 422.279 108.649L421.269 109.068L422.136 106.551ZM445.468 107.982H442.891C442.259 107.969 441.629 108.063 441.028 108.262C440.555 108.42 440.118 108.669 439.74 108.995C439.411 109.287 439.155 109.651 438.992 110.06C438.832 110.453 438.749 110.874 438.748 111.299C438.741 111.766 438.841 112.23 439.04 112.653C439.24 113.076 439.533 113.449 439.897 113.741C440.825 114.445 441.974 114.792 443.136 114.719H445.469L445.468 107.982ZM447.593 123.548H445.468V115.206H445.368L438.084 123.548H435.263L441.706 116.254C440.957 116.222 440.22 116.057 439.529 115.765C438.923 115.507 438.373 115.133 437.91 114.664C437.472 114.214 437.128 113.68 436.9 113.093C436.67 112.51 436.552 111.889 436.552 111.261C436.56 110.659 436.672 110.063 436.883 109.499C437.116 108.863 437.484 108.285 437.962 107.806C438.534 107.248 439.214 106.814 439.961 106.532C440.964 106.166 442.028 105.995 443.095 106.026H447.592L447.593 123.548Z" fill="#3066BE"/>
<path d="M452 91.3031H303.267C281.923 91.3031 262.747 71.7403 245.206 50.5971C242.1 46.8504 239.051 43.0706 236.073 39.372C221.86 21.7381 208.441 5.08374 198.118 5.08374C185.302 5.08374 170.688 18.4902 156.553 31.4539C143.138 43.7567 130.47 55.3784 119.266 55.3784C108.403 55.3784 101.878 50.2105 95.5661 45.2129C88.4949 39.6133 81.1829 33.8225 66.6927 33.8225C39.777 33.8225 6.1888 90.7382 5.86102 91.3031H0C1.39505 88.9064 36.8959 28.7438 66.6927 28.7438C82.9457 28.7438 91.321 35.3779 98.711 41.2298C104.857 46.0952 110.165 50.2996 119.265 50.2996C128.495 50.2996 141.016 38.8151 153.125 27.7072C167.976 14.0845 183.331 0 198.118 0C210.866 0 224.375 16.7665 240.014 36.1791C242.751 39.5753 245.543 43.0396 248.386 46.4818C268.864 38.4746 288.181 33.5311 319.995 33.5311C403.869 33.5311 448.176 86.6119 448.607 87.1528L452 91.3031ZM251.825 50.5971C267.819 69.4989 285.053 86.2193 303.267 86.2193H440.815C428.584 73.9296 387.551 38.6138 319.997 38.6138C289.806 38.6148 271.177 43.1718 251.825 50.5971Z" fill="#3066BE"/>
</svg>
