<svg width="19" height="18" viewBox="0 0 19 18" fill="none" xmlns="http://www.w3.org/2000/svg">
<path d="M9.09235 4.36292C8.17581 4.36351 7.28003 4.63476 6.51831 5.14235C5.75659 5.64994 5.16315 6.37108 4.81305 7.21456C4.46295 8.05803 4.3719 8.98595 4.55144 9.88096C4.73098 10.776 5.17303 11.5978 5.82168 12.2426C6.47033 12.8875 7.29645 13.3262 8.19554 13.5035C9.09464 13.6807 10.0263 13.5884 10.8727 13.2383C11.7192 12.8883 12.4423 12.2961 12.9508 11.5367C13.4592 10.7773 13.73 9.8848 13.729 8.97212C13.7285 8.36631 13.6082 7.76653 13.3749 7.20703C13.1416 6.64753 12.7999 6.13927 12.3693 5.71127C11.9388 5.28327 11.4278 4.9439 10.8655 4.71255C10.3032 4.4812 9.70072 4.36239 9.09235 4.36292ZM9.09235 11.9741C8.49683 11.9753 7.91435 11.8006 7.41862 11.472C6.92289 11.1434 6.53619 10.6757 6.30748 10.1282C6.07876 9.58064 6.0183 8.97785 6.13375 8.39609C6.2492 7.81433 6.53537 7.27975 6.95604 6.86001C7.37672 6.44027 7.91298 6.15424 8.49697 6.03811C9.08095 5.92198 9.68641 5.98098 10.2367 6.20764C10.787 6.43431 11.2574 6.81844 11.5884 7.31143C11.9194 7.80441 12.096 8.38409 12.096 8.97711C12.0958 9.77085 11.7794 10.5321 11.2163 11.0939C10.6533 11.6557 9.88945 11.9723 9.09235 11.9741Z" fill="black"/>
<path d="M13.9136 5.26917C14.5102 5.26917 14.9939 4.78753 14.9939 4.19339C14.9939 3.59926 14.5102 3.11761 13.9136 3.11761C13.3169 3.11761 12.8333 3.59926 12.8333 4.19339C12.8333 4.78753 13.3169 5.26917 13.9136 5.26917Z" fill="black"/>
<path d="M17.6489 3.09972C17.4169 2.503 17.0623 1.9611 16.6078 1.50871C16.1534 1.05632 15.609 0.703416 15.0097 0.472585C14.3085 0.210635 13.5678 0.0690439 12.819 0.0538387C11.8538 0.0119641 11.5485 0 9.10046 0C6.65246 0 6.33907 -1.00283e-07 5.3819 0.0538387C4.63371 0.0682622 3.8935 0.209882 3.19321 0.472585C2.59375 0.702994 2.04934 1.05576 1.59498 1.50821C1.14062 1.96066 0.78636 2.50278 0.554978 3.09972C0.292073 3.79728 0.150213 4.53428 0.135464 5.2792C0.0924111 6.24132 0.0773926 6.54541 0.0773926 8.98411C0.0773926 11.4228 0.0773926 11.7319 0.133461 12.687C0.148045 13.4329 0.289906 14.1709 0.552976 14.8695C0.785335 15.4662 1.14017 16.008 1.59479 16.4604C2.04941 16.9128 2.59382 17.2657 3.19321 17.4966C3.89272 17.7679 4.63359 17.9182 5.3839 17.9413C6.34908 17.9832 6.65446 17.9961 9.10246 17.9961C11.5505 17.9961 11.8638 17.9961 12.821 17.9413C13.5697 17.9262 14.3104 17.785 15.0117 17.5235C15.6109 17.2922 16.1551 16.939 16.6095 16.4865C17.064 16.034 17.4186 15.4921 17.6509 14.8954C17.9141 14.1972 18.0559 13.4595 18.0705 12.7139C18.1135 11.7538 18.1265 11.4497 18.1265 9.01103C18.1265 6.57233 18.1265 6.26325 18.0705 5.30811C18.0584 4.55333 17.9158 3.80626 17.6489 3.09972ZM16.4284 12.6122C16.4221 13.1875 16.3168 13.7574 16.1171 14.2972C15.9666 14.6854 15.7361 15.0379 15.4405 15.332C15.145 15.6262 14.7909 15.8554 14.401 16.0051C13.8649 16.2031 13.2986 16.308 12.7269 16.3152C11.7747 16.359 11.5064 16.37 9.06441 16.37C6.62242 16.37 6.37111 16.37 5.40092 16.3152C4.82948 16.3084 4.2635 16.2035 3.72787 16.0051C3.33657 15.8564 2.981 15.6276 2.68417 15.3334C2.38734 15.0392 2.15587 14.6862 2.00476 14.2972C1.80785 13.7632 1.70259 13.2 1.69337 12.6312C1.65032 11.683 1.64031 11.4158 1.64031 8.98411C1.64031 6.55239 1.64031 6.30313 1.69337 5.33603C1.70059 4.76166 1.80658 4.19278 2.00676 3.65406C2.15786 3.26499 2.38932 2.91184 2.68614 2.61747C2.98296 2.3231 3.33854 2.09406 3.72987 1.94518C4.26577 1.74776 4.83158 1.6429 5.40292 1.63511C6.35509 1.59024 6.62242 1.58027 9.06542 1.58027C11.5084 1.58027 11.7587 1.58027 12.7279 1.63511C13.2997 1.64182 13.866 1.74671 14.402 1.94518C14.7916 2.09527 15.1455 2.32482 15.4409 2.61911C15.7362 2.9134 15.9666 3.26592 16.1171 3.65406C16.314 4.18808 16.4192 4.75128 16.4284 5.32008C16.4715 6.26923 16.4825 6.53544 16.4825 8.96816C16.4825 11.4009 16.4825 11.6601 16.4395 12.6152H16.4284V12.6122Z" fill="black"/>
</svg>
