<svg width="33" height="21" viewBox="0 0 33 21" fill="none" xmlns="http://www.w3.org/2000/svg">
<path d="M20.9611 2.13522H12.0381V17.8582H20.9611V2.13522Z" fill="#FF5F00"/>
<path d="M12.6 10.0002C12.5994 8.48405 12.9499 6.98833 13.624 5.63023C14.3042 4.26295 15.2879 3.06923 16.5 2.14023C14.9848 0.979089 13.1784 0.258938 11.2799 0.0591924C9.38144 -0.140553 7.46469 0.187865 5.74101 1.00823C4.0268 1.82241 2.5757 3.10164 1.55301 4.70023C0.538647 6.28349 -0.000488281 8.1244 -0.000488281 10.0047C-0.000488281 11.8851 0.538647 13.726 1.55301 15.3092C2.576 16.9062 4.02668 18.184 5.74001 18.9972C7.46408 19.8174 9.38118 20.1454 11.2799 19.9451C13.1785 19.7448 14.985 19.024 16.5 17.8622C15.2893 16.9325 14.3069 15.7385 13.628 14.3712C12.9524 13.0132 12.6005 11.5171 12.6 10.0002Z" fill="#EB001B"/>
<path d="M33 10.0002C32.9978 11.8789 32.4586 13.7178 31.446 15.3002C30.4227 16.8974 28.9717 18.1752 27.258 18.9882C25.5349 19.8091 23.6186 20.1382 21.7203 19.9394C19.8221 19.7405 18.0156 19.0214 16.5 17.8612C17.7096 16.9308 18.6911 15.7369 19.37 14.3702C20.0446 13.0123 20.3957 11.5165 20.3957 10.0002C20.3957 8.48392 20.0446 6.9882 19.37 5.63024C18.6913 4.26318 17.7097 3.06891 16.5 2.13824C18.0153 0.976902 19.8219 0.256641 21.7206 0.0568931C23.6192 -0.142855 25.5362 0.185671 27.26 1.00624C28.9741 1.82106 30.4249 3.10102 31.447 4.70024C32.4593 6.28275 32.9981 8.12165 33 10.0002Z" fill="#F79E1B"/>
<path d="M32.02 16.1922V15.8702H32.153V15.8062H31.822V15.8732H31.955V16.1952L32.02 16.1922ZM32.674 16.1922V15.8002H32.586L32.467 16.0782L32.348 15.8002H32.248V16.1892H32.3V15.9002L32.41 16.1532H32.486L32.6 15.9002V16.1942L32.674 16.1922Z" fill="#F79E1B"/>
</svg>
