<svg width="11" height="18" viewBox="0 0 11 18" fill="none" xmlns="http://www.w3.org/2000/svg">
<path fill-rule="evenodd" clip-rule="evenodd" d="M7.56584 4.64476C7.55584 4.12548 7.33939 3.63136 6.96398 3.2708C6.58858 2.91025 6.08487 2.7127 5.56338 2.72151C5.04189 2.7127 4.53819 2.91025 4.16278 3.2708C3.78738 3.63136 3.57093 4.12548 3.56093 4.64476C3.57119 5.16386 3.78775 5.65772 4.16313 6.01806C4.53851 6.37841 5.04206 6.57581 5.56338 6.567C6.0847 6.57581 6.58826 6.37841 6.96364 6.01806C7.33901 5.65772 7.55557 5.16386 7.56584 4.64476ZM10.3973 4.64476C10.3734 5.8983 9.8511 7.09121 8.94508 7.96182C8.03907 8.83244 6.82328 9.30968 5.56438 9.28886C4.30566 9.30941 3.09013 8.83205 2.18433 7.96147C1.27853 7.09088 0.756411 5.89812 0.732458 4.64476C0.756412 3.3913 1.2785 2.19844 2.18427 1.3277C3.09004 0.456954 4.30557 -0.0206254 5.56438 -0.000339498C6.82337 -0.0208921 8.03916 0.456569 8.94514 1.32734C9.85113 2.19812 10.3734 3.39112 10.3973 4.64476ZM10.3382 11.9638C9.47161 12.4867 8.52447 12.864 7.5348 13.0805L10.2381 15.6727C10.3692 15.7967 10.4735 15.9459 10.5448 16.1113C10.6162 16.2767 10.6529 16.4549 10.6529 16.6349C10.6529 16.8149 10.6162 16.993 10.5448 17.1584C10.4735 17.3238 10.3692 17.473 10.2381 17.597C9.96829 17.8532 9.60974 17.9962 9.23689 17.9962C8.86403 17.9962 8.50549 17.8532 8.23566 17.597L5.5764 15.0496L2.92314 17.601C2.65297 17.8565 2.29456 17.999 1.92192 17.999C1.54928 17.999 1.19087 17.8565 0.920689 17.601C0.789762 17.4769 0.685519 17.3277 0.61429 17.1623C0.54306 16.9969 0.50633 16.8188 0.50633 16.6389C0.50633 16.4589 0.54306 16.2808 0.61429 16.1154C0.685519 15.95 0.789762 15.8008 0.920689 15.6767L3.624 13.0845C2.63243 12.867 1.68359 12.4884 0.81556 11.9638C0.659579 11.8725 0.523804 11.7507 0.416438 11.6057C0.309071 11.4607 0.232342 11.2955 0.190886 11.1201C0.149429 10.9447 0.144106 10.7628 0.175238 10.5853C0.20637 10.4078 0.273311 10.2385 0.372016 10.0875C0.578966 9.77947 0.897354 9.56295 1.26075 9.48307C1.62415 9.40319 2.00449 9.46613 2.32241 9.65875C3.30528 10.2462 4.43006 10.5566 5.5764 10.5566C6.72274 10.5566 7.84751 10.2462 8.83039 9.65875C9.14844 9.46567 9.52908 9.40238 9.89287 9.48207C10.2567 9.56177 10.5755 9.7783 10.7828 10.0865C10.8816 10.2376 10.9486 10.4071 10.9798 10.5847C11.0109 10.7623 11.0055 10.9444 10.964 11.1199C10.9224 11.2954 10.8455 11.4607 10.738 11.6057C10.6304 11.7508 10.4944 11.8726 10.3382 11.9638Z" fill="black"/>
</svg>
