<svg width="56" height="18" viewBox="0 0 56 18" fill="none" xmlns="http://www.w3.org/2000/svg">
<path d="M22.8899 0.000274658L20.0789 17.9643H24.5709L27.3809 0.000274658H22.8899ZM36.4399 7.31827C34.8699 6.51827 33.9079 5.98427 33.9079 5.17027C33.9269 4.43027 34.7219 3.67027 36.4959 3.67027C37.6471 3.63691 38.791 3.86425 39.8419 4.33527L40.2499 4.52227L40.8609 0.764275C39.5747 0.268831 38.2073 0.0178648 36.8289 0.0242747C32.3929 0.0242747 29.2689 2.39327 29.2499 5.78127C29.2129 8.28127 31.4859 9.66928 33.1879 10.5013C34.9259 11.3553 35.5169 11.9083 35.5169 12.6673C35.4979 13.8323 34.1119 14.3673 32.8169 14.3673C31.357 14.4079 29.9094 14.0899 28.6009 13.4413L28.0089 13.1643L27.3809 17.0703C28.9782 17.6902 30.6776 18.0049 32.3909 17.9983C37.1059 17.9983 40.1729 15.6653 40.2119 12.0543C40.2289 10.0753 39.0299 8.55827 36.4399 7.31827ZM52.3769 0.0562747H48.8999C48.4033 -0.0026055 47.9013 0.107957 47.4753 0.370045C47.0493 0.632134 46.7243 1.03039 46.5529 1.50027L39.8809 17.9643H44.5999L45.8999 14.4003H51.1749L51.8489 17.9793H55.9999L52.3769 0.0562747ZM47.1999 10.8003C47.2909 10.8093 49.0099 4.98227 49.0099 4.98227L50.3789 10.8003H47.1999ZM16.3259 0.000274658L11.9259 12.2003L11.4449 9.80027C10.3524 6.67978 8.13766 4.07756 5.23193 2.50027L9.26193 17.9423H14.0149L21.0789 0.000274658H16.3259Z" fill="#1D4088"/>
<path d="M9.965 2.31629C9.81886 1.65276 9.44824 1.05998 8.91571 0.638035C8.38318 0.216091 7.72136 -0.00916915 7.042 0.000285974H0.072L0 0.336286C5.437 1.71329 10 5.94929 11.482 9.93629L9.965 2.31629Z" fill="#EFC75E"/>
</svg>
