<svg width="21" height="13" viewBox="0 0 21 13" fill="none" xmlns="http://www.w3.org/2000/svg">
<path d="M19.6241 1.7954C19.7642 1.33179 19.6241 0.990806 18.9603 0.990806H16.7575C16.5526 0.976884 16.3486 1.02963 16.1763 1.14112C16.0041 1.2526 15.8728 1.41678 15.8024 1.60896C15.1211 3.22109 14.2107 4.72736 13.0991 6.08157C12.5884 6.59403 12.3542 6.75555 12.0758 6.75555C11.9366 6.75555 11.7344 6.59403 11.7344 6.12943V1.7954C11.7344 1.23807 11.5732 0.990806 11.1066 0.990806H7.65839C7.58873 0.986768 7.51896 0.996475 7.45308 1.01937C7.3872 1.04227 7.32651 1.0779 7.2745 1.12422C7.22249 1.17055 7.18019 1.22665 7.15002 1.2893C7.11985 1.35196 7.10241 1.41993 7.09871 1.48931C7.09871 2.01674 7.89068 2.13837 7.97178 3.62293V6.84429C7.97178 7.55017 7.84462 7.67879 7.56428 7.67879C6.82036 7.68377 5.00614 4.95993 3.93282 1.83927C3.72357 1.23308 3.51231 0.988812 2.95062 0.988812H0.753925C0.125153 0.988812 0 1.28792 0 1.60696C0 2.18822 0.744914 5.06162 3.46825 8.86324C4.18605 10.0124 5.16831 10.9748 6.33378 11.6709C7.49925 12.367 8.81441 12.7768 10.1705 12.8663C11.5662 12.8663 11.7394 12.5542 11.7394 12.0148V10.0557C11.7394 9.43054 11.8726 9.30492 12.3151 9.30492C12.6395 9.30492 13.1992 9.46843 14.5028 10.7187C15.9916 12.2013 16.2389 12.8673 17.0759 12.8673H19.2726C19.9004 12.8673 20.2138 12.5552 20.0336 11.938C19.5659 10.985 18.9392 10.118 18.1803 9.37371C17.6677 8.77551 16.9007 8.12246 16.6674 7.79743C16.342 7.37968 16.4362 7.19922 16.6674 6.82335C16.6664 6.82435 19.3437 3.07158 19.6241 1.7954Z" fill="black"/>
</svg>
