<svg width="97" height="18" viewBox="0 0 97 18" fill="none" xmlns="http://www.w3.org/2000/svg">
<path d="M4.672 9.522L1.972 15.422H0L2.973 9.108C1.57 8.424 0.646 7.164 0.646 4.86C0.646 1.62 2.751 0 5.244 0H7.793V15.426H6.093V9.526L4.672 9.522ZM6.094 1.4H5.194C3.828 1.4 2.494 2.282 2.494 4.856C2.494 7.34 3.713 8.132 5.194 8.132H6.094V1.4Z" fill="#FF0000"/>
<path d="M16.0091 4.554V15.426H14.3091V10.548H11.7441V15.426H10.0081V4.554H11.7441V9.18H14.3101V4.554H16.0091ZM24.8911 17.568H23.3401V15.426H18.5571V17.568H17.0061V14.058H17.6891C18.7051 11.758 18.8151 8.388 18.8151 5.49V4.554H24.0001V14.054H24.8861L24.8911 17.568ZM22.3061 5.922H20.3861V6.122C20.3861 8.408 20.2751 11.756 19.3521 14.06H22.3251V5.922H22.3061ZM29.6551 15.588C27.3471 15.588 25.9431 13.806 25.9431 10.458C25.9431 6.966 26.9431 4.41 29.3041 4.41C31.1691 4.41 32.3881 5.778 32.3881 9.468V10.4H27.7351C27.7351 12.866 28.4351 14.162 29.8221 14.162C30.6132 14.1443 31.3803 13.887 32.0221 13.424L32.4281 14.724C31.6176 15.2966 30.6473 15.5989 29.6551 15.588ZM27.7531 9H30.6151C30.6151 7.146 30.3011 5.778 29.3041 5.778C28.2331 5.778 27.8641 7.056 27.7531 9ZM35.8781 10.008V15.426H34.1421V4.554H35.8781V9.576L38.5551 4.554H40.3101L37.5401 9.666L40.6981 15.426H38.8141L35.8781 10.008ZM40.9191 9.99C40.9191 6.59 42.2671 4.39 44.8891 4.39C45.619 4.36238 46.3401 4.55696 46.9571 4.948L46.7171 6.548C46.2075 6.09155 45.5547 5.82704 44.8711 5.8C43.6341 5.8 42.7471 7.168 42.7471 9.9C42.7471 12.618 43.4121 14.166 44.8151 14.166C45.5027 14.1759 46.1713 13.9397 46.7001 13.5L47.1061 14.76C46.4619 15.3185 45.6312 15.6141 44.7791 15.588C42.3601 15.588 40.9191 13.7 40.9191 9.99Z" fill="black"/>
<path d="M58.813 15.426H52.036L51.888 18H51.02V14.544H51.482C52.258 13.914 52.627 12.186 52.848 9.99C53.07 7.704 53.148 4.284 53.199 0H58.739V14.544H59.829V18H58.961L58.813 15.426ZM57.65 0.882H54.215C54.141 4.788 54.03 7.758 53.864 9.99C53.664 12.29 53.31 13.824 52.719 14.544H57.649L57.65 0.882Z" fill="black"/>
<path d="M64.427 14.76C64.8674 14.7522 65.3 14.6425 65.6908 14.4395C66.0817 14.2365 66.4203 13.9458 66.68 13.59L67.012 14.418C66.701 14.8072 66.305 15.12 65.8542 15.3322C65.4035 15.5444 64.9101 15.6504 64.412 15.642C62.048 15.642 60.959 13.554 60.959 9.99001C60.959 6.42601 62.325 4.33801 64.209 4.33801C66.13 4.33801 67.367 6.30001 67.016 10.17H61.971C62.008 13.14 62.8 14.76 64.427 14.76ZM61.99 9.36001H66.034C66.219 6.46001 65.334 5.16601 64.188 5.16601C63.023 5.18401 62.082 6.64201 61.989 9.36001H61.99Z" fill="black"/>
<path d="M73.8251 10.188H70.0251V15.426H68.9871V4.55399H70.0211V9.35999H73.8211V4.55399H74.8551V15.426H73.8251V10.188Z" fill="black"/>
<path d="M77.3339 4.55399H78.3679V8.58599H79.1799C81.3039 8.58599 82.6699 9.70199 82.6699 11.97C82.7079 12.4429 82.6409 12.9183 82.4737 13.3623C82.3064 13.8062 82.0431 14.2077 81.7025 14.538C81.3619 14.8682 80.9525 15.1191 80.5036 15.2726C80.0547 15.4262 79.5774 15.4785 79.1059 15.426H77.3149V4.55399H77.3339ZM78.3679 9.39999V14.638H79.0329C79.3896 14.6845 79.7522 14.6486 80.0929 14.5332C80.4336 14.4177 80.7433 14.2258 80.9983 13.9721C81.2533 13.7183 81.4468 13.4096 81.5639 13.0695C81.681 12.7293 81.7187 12.3669 81.6739 12.01C81.6739 10.174 80.7509 9.39999 79.1439 9.39999H78.3679Z" fill="black"/>
<path d="M85.5 5.39999V15.444H84.48V4.55399H89.189V5.39999H85.5Z" fill="black"/>
<path d="M95.9999 7.84799C96.0022 7.34839 96.0356 6.84943 96.0999 6.35399H96.0259C95.8683 6.83631 95.6706 7.30461 95.4349 7.75399L91.7969 15.422H90.9109V4.55399H91.8899V12.114C91.8902 12.6254 91.8594 13.1363 91.7979 13.644H91.8719C92.0306 13.1492 92.2282 12.6677 92.4629 12.204L96.0999 4.57199H96.9999V15.444H95.9999V7.84799Z" fill="black"/>
</svg>
