<svg width="1985" height="1039" viewBox="0 0 1985 1039" fill="none" xmlns="http://www.w3.org/2000/svg">
<path d="M19.3561 1020.8C-1.54391 999.932 32.5031 991.338 32.3861 961.801C32.2691 932.264 10.3701 932.355 10.2531 902.821C10.1361 873.287 30.7691 873.204 30.6531 843.671C30.5371 814.138 5.22413 814.237 5.10713 784.706C4.99013 755.175 17.4871 755.121 17.3701 725.587C17.2531 696.053 36.2701 695.978 36.1581 666.444C36.0461 636.91 29.0951 636.937 28.9811 607.401C28.8671 577.865 15.7931 577.923 15.6811 548.394C15.5691 518.865 27.5981 518.814 27.4811 489.28C27.3641 459.746 10.9971 459.812 10.8811 430.28C10.7651 400.748 3.79911 400.77 3.68111 371.232C3.56311 341.694 16.7281 341.642 16.6111 312.106C16.4941 282.57 0.136119 282.633 0.0191195 253.094C-0.0978805 223.555 0.365123 223.553 0.248123 194.014C0.131123 164.475 5.2071 164.451 5.0901 134.914C4.9731 105.377 -11.1879 88.4887 15.8991 76.6957C41.3431 65.6187 18.4141 107.844 34.5851 130.396C50.7561 152.948 78.3851 133.142 94.5611 155.696C110.737 178.25 110.595 178.34 126.761 200.889C142.927 223.438 144.146 222.579 160.319 245.137C176.492 267.695 174.281 269.283 190.454 291.837C206.627 314.391 197.21 321.152 213.385 343.715C229.56 366.278 213.804 383.854 237.051 399.031C261.611 415.063 267.289 387.581 296.533 367.956C310.758 358.41 335.26 355.235 351.733 341.268C365.856 329.292 373.174 305.889 386.866 290.763C399.66 276.63 410.141 258.622 420.933 241.816C435.105 219.747 444.692 193.884 463.046 188.126C483.258 181.784 509.454 190.909 531.494 194.833C553.045 198.672 573.494 211.125 593.581 215.349C617.905 220.462 631.049 202.84 648.081 193.409C670.007 181.26 686.564 171.116 702.004 160.046C723.421 144.689 758.904 155.546 772.429 143.683C793.354 125.324 804.556 120.377 822.842 115.418C839.059 111.018 855.636 76.6007 884.432 87.2767C915.643 91.0917 908.775 104.901 944.544 97.5477C963.12 93.7307 979.772 70.8867 1001.28 65.3217C1021.48 60.0967 1027.5 50.2687 1040.76 37.4387C1055.22 23.4447 1075.21 7.13275 1092.64 0.603747C1107.08 -4.79625 1122.23 27.5228 1146.04 38.0158C1159.94 44.1438 1186.37 32.7377 1205.26 46.9157C1218.49 56.8487 1225.85 77.6157 1242.09 92.3087C1254.89 103.9 1261.18 124.102 1276.1 139.029C1288.6 151.535 1314.81 152.395 1328.95 167.455C1341.25 180.555 1367.52 182.698 1381.14 197.863C1393.49 211.606 1395.28 235.691 1412.12 247.706C1427.33 258.557 1449.9 257.352 1467.93 266.871C1484.7 275.718 1491.79 306.28 1510.34 314.039C1528.05 321.45 1553.09 311.103 1571.86 317.574C1590.23 323.906 1608.97 328.342 1627.82 333.82C1646.69 339.305 1663.11 353.126 1681.94 357.803C1701.26 362.603 1718.8 374.456 1737.52 378.458C1757.31 382.692 1774.67 398.176 1793.14 401.579C1813.59 405.345 1838.28 378.421 1856.25 381.248C1878.05 384.678 1896.85 391.442 1913.52 393.625C1949.63 398.358 1972.74 376.254 1982.14 404.047C1991.96 433.082 1970.85 438.53 1970.47 469.182C1970.09 499.834 1981.02 499.962 1980.63 530.609C1980.25 561.256 1972.03 561.153 1971.65 591.802C1971.28 622.451 1950.27 622.188 1949.88 652.837C1949.5 683.486 1977.84 683.844 1977.45 714.498C1977.07 745.152 1954.85 744.874 1954.47 775.526C1954.09 806.178 1969.27 806.37 1968.89 837.021C1968.5 867.672 1951.34 867.46 1950.96 898.121C1950.57 928.782 1963.98 928.945 1963.6 959.604C1963.21 990.263 1986.05 1000.41 1964.67 1022.38C1944.13 1043.49 1933.72 1008.71 1904.27 1008.71C1874.83 1008.71 1874.82 1023.24 1845.37 1023.24C1815.92 1023.24 1815.93 1030.12 1786.48 1030.12C1757.04 1030.12 1757.03 1034.86 1727.57 1034.86C1698.12 1034.86 1698.13 1015.91 1668.68 1015.91C1639.24 1015.91 1639.23 1007.75 1609.78 1007.75C1580.34 1007.75 1580.33 1002.85 1550.88 1002.85C1521.43 1002.85 1521.43 1023.39 1491.98 1023.39C1462.53 1023.39 1462.53 1038.18 1433.08 1038.18C1403.63 1038.18 1403.63 1003.82 1374.18 1003.82C1344.73 1003.82 1344.72 1036.72 1315.27 1036.72C1285.82 1036.72 1285.82 1016.52 1256.36 1016.52C1226.9 1016.52 1226.91 1012.22 1197.46 1012.22C1168.01 1012.22 1168.01 1020.7 1138.56 1020.7C1109.11 1020.7 1109.11 1021.85 1079.66 1021.85C1050.21 1021.85 1050.21 1029.39 1020.76 1029.39C991.31 1029.39 991.306 1030.36 961.852 1030.36C932.398 1030.36 932.396 1038.04 902.94 1038.04C873.484 1038.04 873.486 1007.16 844.033 1007.16C814.58 1007.16 814.577 1037.46 785.121 1037.46C755.665 1037.46 755.668 1015.86 726.214 1015.86C696.76 1015.86 696.758 1038.36 667.304 1038.36C637.85 1038.36 637.848 1002.03 608.392 1002.03C578.936 1002.03 578.939 1014.96 549.483 1014.96C520.027 1014.96 520.032 1002.12 490.583 1002.12C461.134 1002.12 461.13 1029.85 431.676 1029.85C402.222 1029.85 402.22 1011.18 372.767 1011.18C343.314 1011.18 343.309 1010.61 313.85 1010.61C284.391 1010.61 284.392 1024.91 254.933 1024.91C225.474 1024.91 225.475 1001.95 196.016 1001.95C166.557 1001.95 166.558 1025.35 137.097 1025.35C107.636 1025.35 106.314 1011.65 77.4971 1017.8C46.8131 1024.35 40.2071 1041.62 19.3561 1020.8Z" fill="#1E50A2"/>
</svg>
