<svg width="2003" height="1276" viewBox="0 0 2003 1276" fill="none" xmlns="http://www.w3.org/2000/svg">
<path d="M1983.91 308.429C1950.92 285.057 1941.74 347.899 1904.86 364.461C1867.98 381.023 1871.44 388.749 1834.56 405.313C1797.67 421.877 1793.5 420.513 1753.07 421.175C1706.35 421.945 1717.84 401.708 1678.43 364.7C1657.94 345.467 1643.45 314.382 1615.84 295.834C1590.44 278.771 1562.24 265.763 1532.76 255.219C1503.45 244.734 1474.61 248.2 1443.12 249.779C1413.79 251.249 1385.13 249.379 1355.45 266.007C1331.27 279.555 1310.04 299.732 1286.53 326.072C1264.93 350.263 1245.19 370.597 1227.08 383.206C1198.53 403.087 1168.12 415.519 1146.06 413.506C1119.85 411.119 1099.19 383.171 1078.07 362.931C1059.63 345.26 1044 322.212 1026.28 301.059C1008.31 279.611 998.106 246.731 977.823 231.477C936.472 200.377 898.549 224.185 872.061 248.93C850.323 269.237 820.401 286.192 787.708 307.69C758.523 326.881 751.768 338.684 719.125 323.89C700.625 315.504 677.343 302.776 644.659 283.99C624.095 272.171 589.871 276.461 560.64 260.647C536.367 247.518 518.74 231.924 492.428 236.364C467.542 240.564 442.616 231.689 416.217 231.047C392.789 230.478 376.117 232.057 351.728 212.814C335.183 199.765 304.484 194.509 287.578 167.478C271.912 142.425 270.912 106.848 252.578 89.6909C231.094 69.5909 202.555 56.8279 180.221 45.3669C153.321 31.5599 122.044 33.9449 98.7561 28.8869C51.9431 18.7189 25.8371 -21.1071 10.6961 16.7429C-4.54692 54.8499 29.3811 60.8149 29.3811 101.856C29.3811 142.897 7.25108 142.904 7.25108 183.956C7.25108 225.008 33.6211 224.912 33.8631 265.956C34.1271 310.798 0.124104 311.098 0.630104 355.938C1.1361 400.778 27.3481 400.482 27.8541 445.324C28.3601 490.166 3.81809 490.445 4.32609 535.287C4.83409 580.129 12.5071 580.04 13.0131 624.882C13.5191 669.724 37.9371 669.441 38.4461 714.282C38.9551 759.123 38.879 759.124 39.385 803.964C39.891 848.804 34.3351 848.869 34.8411 893.711C35.3471 938.553 33.2701 938.58 33.7761 983.422C34.2821 1028.26 16.2531 1028.47 16.7611 1073.31C17.2691 1118.15 12.7011 1118.21 13.2091 1163.06C13.7171 1207.91 -6.79793 1225.34 24.7721 1257.2C55.6961 1288.4 73.3601 1263.75 117.291 1263.75C161.222 1263.75 161.22 1259.59 205.15 1259.59C249.08 1259.59 249.077 1244.02 293.004 1244.02C336.931 1244.02 336.933 1252.77 380.86 1252.77C424.787 1252.77 424.789 1265.4 468.719 1265.4C512.649 1265.4 512.651 1240.46 556.58 1240.46C600.509 1240.46 600.517 1262.23 644.451 1262.23C688.385 1262.23 688.383 1266.13 732.315 1266.13C776.247 1266.13 776.249 1240.39 820.183 1240.39C864.117 1240.39 864.115 1255.04 908.047 1255.04C951.979 1255.04 951.979 1268.43 995.913 1268.43C1039.85 1268.43 1039.85 1268.03 1083.78 1268.03C1127.71 1268.03 1127.72 1242.4 1171.65 1242.4C1215.59 1242.4 1215.59 1235.07 1259.53 1235.07C1303.46 1235.07 1303.45 1237.57 1347.39 1237.57C1391.32 1237.57 1391.32 1244.79 1435.25 1244.79C1479.18 1244.79 1479.18 1257.84 1523.12 1257.84C1567.06 1257.84 1567.06 1249.28 1611 1249.28C1654.93 1249.28 1654.94 1270.91 1698.87 1270.91C1742.81 1270.91 1742.81 1262.41 1786.75 1262.41C1830.69 1262.41 1830.69 1254.91 1874.64 1254.91C1918.59 1254.91 1942.16 1294.94 1974 1264.66C2004.66 1235.5 1979.11 1210.49 1979.65 1168.19C1980.19 1125.89 1971.09 1125.77 1971.63 1083.47C1972.16 1041.16 1967.01 1041.1 1967.55 998.792C1968.08 956.487 1965.61 956.463 1966.15 914.165C1966.68 871.867 1976.62 871.991 1977.16 829.691C1977.7 787.391 1965.37 787.231 1965.91 744.926C1966.45 702.621 1962.2 702.568 1962.74 660.261C1963.28 617.954 1986.94 618.261 1987.47 575.949C1988.01 533.637 1958.05 533.262 1958.59 490.957C1959.13 448.652 1968.99 449.332 1980.85 408.715C1995.83 357.423 2018.43 332.894 1983.91 308.429Z" fill="#285DB2"/>
</svg>
