<svg width="2018" height="1480" viewBox="0 0 2018 1480" fill="none" xmlns="http://www.w3.org/2000/svg">
<path d="M0.425749 130.127C0.939749 122.173 19.8357 139.527 29.5977 141.867C39.3597 144.207 54.9438 140.216 73.3178 137.213C91.6918 134.21 106.118 113.982 131.945 97.9559C157.772 81.9299 185.876 62.3559 218.007 25.6239C233.726 7.65485 266.601 -2.42115 292.778 0.499852C318.955 3.42085 353.478 17.0649 384.495 34.7469C415.512 52.4289 445.284 82.1079 475.525 108.416C505.766 134.724 518.496 177.992 542.345 206.796C552.1 218.581 577.87 208.704 593.883 204.696C609.896 200.688 625.171 186.942 643.068 177.046C660.965 167.15 675.283 145.295 690.693 139.414C706.103 133.533 714.171 161.471 722.723 169.501C755.113 199.914 792.131 217.634 814.687 244.582C837.243 271.53 844.527 306.733 862.94 326.825C881.353 346.917 918.393 337.366 938.366 347.218C958.339 357.07 974.719 383.318 1001.94 379.537C1010.78 378.311 1059.41 322.06 1069.35 305.848C1079.3 289.636 1074.49 263.855 1085.61 255.963C1096.73 248.071 1101.23 261.047 1113.93 272.019C1128.44 284.553 1148.28 297.183 1163.73 302.86C1179.18 308.537 1196.83 278.223 1210.83 275.969C1224.83 273.715 1233.71 279.236 1243.87 267.978C1254.03 256.72 1272.55 247.501 1276.47 226.161C1280.69 203.2 1343.98 247.607 1365.72 273.151C1387.46 298.695 1394.3 348.341 1420.85 361.564C1447.4 374.787 1480.77 357.164 1509.51 333.687C1538.24 310.21 1564.3 310.33 1584.14 310.209C1603.98 310.088 1627.86 304.522 1642.28 317.686C1656.71 330.85 1667.27 352.234 1679.76 368.614C1692.25 384.994 1699.22 404.43 1713.26 413.953C1753.32 441.141 1793.8 461.675 1827.22 454.132C1860.65 446.589 1877.87 402.032 1902.41 378.379C1926.94 354.726 1952.26 334.945 1965.66 313.808C1979.06 292.671 1977.35 261.536 1984.44 281.227C1991.79 301.64 1977.32 301.966 1978.74 323.615C1980.17 345.264 1997.65 344.115 1999.08 365.761C2000.5 387.407 1991.93 387.973 1993.35 409.622C1994.77 431.271 1996.1 430.989 1996.42 452.682C1997.05 494.64 2001.07 494.582 2000.59 536.546C2000.12 578.51 2018.24 578.717 2017.76 620.682C2017.29 662.647 2000.17 662.455 1999.7 704.423C1999.22 746.391 1982.87 746.198 1982.4 788.159C1981.92 830.12 2003.39 830.369 2002.92 872.335C2002.44 914.301 2000.46 914.281 1999.98 956.246C1999.51 998.211 1978.29 997.967 1977.82 1039.93C1977.34 1081.89 1976.29 1081.88 1975.82 1123.85C1975.34 1165.81 1997.58 1166.07 1997.11 1208.03C1996.63 1250 1978.35 1249.79 1977.88 1291.75C1977.41 1333.71 1981.5 1333.76 1981.03 1375.73C1980.56 1417.7 2008.48 1419.55 1978.94 1449.36C1950 1478.56 1948.33 1458.52 1907.22 1458.52C1866.11 1458.52 1866.11 1473.58 1824.99 1473.58C1783.88 1473.58 1783.88 1471.42 1742.77 1471.42C1701.65 1471.42 1701.65 1463.48 1660.54 1463.48C1619.43 1463.48 1619.42 1446.55 1578.3 1446.55C1537.19 1446.55 1537.18 1454.66 1496.07 1454.66C1454.95 1454.66 1454.96 1461.4 1413.84 1461.4C1372.73 1461.4 1372.73 1476.37 1331.62 1476.37C1290.51 1476.37 1290.5 1463.43 1249.39 1463.43C1208.28 1463.43 1208.28 1470.4 1167.17 1470.4C1126.05 1470.4 1126.05 1440.99 1084.93 1440.99C1043.81 1440.99 1043.81 1478.37 1002.69 1478.37C961.57 1478.37 961.58 1463.35 920.467 1463.35C879.354 1463.35 879.357 1479.55 838.244 1479.55C797.131 1479.55 797.129 1466.85 756.016 1466.85C714.903 1466.85 714.903 1453.55 673.79 1453.55C632.677 1453.55 632.672 1446.37 591.552 1446.37C550.432 1446.37 550.434 1448.48 509.317 1448.48C468.2 1448.48 468.204 1449.22 427.094 1449.22C385.984 1449.22 385.981 1443.4 344.868 1443.4C303.755 1443.4 303.755 1457.45 262.64 1457.45C221.525 1457.45 221.527 1449.8 180.414 1449.8C139.301 1449.8 139.296 1448.09 98.1787 1448.09C57.0617 1448.09 42.4738 1491.36 13.5388 1462.15C-15.6752 1432.65 11.4848 1418.25 11.4848 1376.73C11.4848 1335.22 22.1848 1335.22 22.1848 1293.7C22.1848 1252.18 4.02579 1252.18 4.02579 1210.65C4.02579 1169.13 0.0467818 1169.13 0.0467818 1127.61C0.0467818 1086.09 18.3668 1086.09 18.3668 1044.57C18.3668 1003.06 8.82174 1003.06 8.82174 961.54C8.82174 920.024 27.3658 920.017 27.3658 878.494C27.3658 836.971 21.4508 836.973 21.4508 795.45C21.4508 753.927 13.9398 753.932 13.9398 712.414C13.9398 670.896 7.44675 670.898 7.44675 629.38C7.44675 587.862 8.25778 587.857 8.25778 546.336C8.25778 504.815 9.68173 504.813 9.68173 463.29C9.68173 421.767 30.1418 421.772 30.1418 380.254C30.1418 338.736 1.77975 338.736 1.77975 297.214C1.77975 255.692 29.6968 254.134 23.7478 213.038C17.5758 170.419 -2.25425 171.561 0.425749 130.127Z" fill="#346AC1"/>
</svg>
