<svg width="16" height="16" viewBox="0 0 16 16" fill="none" xmlns="http://www.w3.org/2000/svg">
<path d="M14.3188 6.5H14.3062C13.9312 6.5 13.625 6.80625 13.625 7.18125C13.625 7.21875 13.5938 7.25 13.5562 7.25H2.44375C2.40625 7.25 2.375 7.21875 2.375 7.18125C2.375 6.80625 2.06875 6.5 1.69375 6.5H1.68125C1.30625 6.5 1 6.80625 1 7.18125V12.8188C1 13.1938 1.30625 13.5 1.68125 13.5H1.69375C2.06875 13.5 2.375 13.1938 2.375 12.8188V12.625C2.375 12.5563 2.43125 12.5 2.5 12.5H13.5C13.5688 12.5 13.625 12.5563 13.625 12.625V12.8188C13.625 13.1938 13.9312 13.5 14.3062 13.5H14.3188C14.6938 13.5 15 13.1938 15 12.8188V7.18125C15 6.80625 14.6938 6.5 14.3188 6.5Z" fill="#1D3252"/>
<path d="M2.625 6.6875H3.32812C3.39688 6.6875 3.45312 6.63125 3.45312 6.5625V6.15625C3.45312 5.88125 3.67813 5.65625 3.95312 5.65625H7C7.275 5.65625 7.5 5.88125 7.5 6.15625V6.5625C7.5 6.63125 7.55625 6.6875 7.625 6.6875H8.375C8.44375 6.6875 8.5 6.63125 8.5 6.5625V6.15625C8.5 5.88125 8.725 5.65625 9 5.65625H12.0469C12.3219 5.65625 12.5469 5.88125 12.5469 6.15625V6.5625C12.5469 6.63125 12.6031 6.6875 12.6719 6.6875H13.375C13.5125 6.6875 13.625 6.575 13.625 6.4375V3.5C13.625 2.95 13.175 2.5 12.625 2.5H3.375C2.825 2.5 2.375 2.95 2.375 3.5V6.4375C2.375 6.575 2.4875 6.6875 2.625 6.6875Z" fill="#1D3252"/>
</svg>
