<svg width="40" height="40" viewBox="0 0 40 40" fill="none" xmlns="http://www.w3.org/2000/svg">
<path d="M20.0249 12.2715C18.4974 12.2725 17.0044 12.7246 15.7349 13.5705C14.4653 14.4165 13.4763 15.6184 12.8928 17.0242C12.3093 18.43 12.1575 19.9765 12.4567 21.4682C12.756 22.9599 13.4927 24.3297 14.5738 25.4044C15.6549 26.4791 17.0318 27.2103 18.5303 27.5057C20.0287 27.8011 21.5815 27.6473 22.9923 27.0639C24.403 26.4804 25.6082 25.4934 26.4556 24.2277C27.303 22.9621 27.7544 21.4746 27.7527 19.9535C27.7519 18.9438 27.5513 17.9442 27.1624 17.0117C26.7736 16.0792 26.2041 15.2321 25.4866 14.5187C24.769 13.8054 23.9173 13.2398 22.9802 12.8542C22.0431 12.4686 21.0389 12.2706 20.0249 12.2715ZM20.0249 24.9569C19.0324 24.9588 18.0616 24.6675 17.2354 24.1199C16.4092 23.5722 15.7647 22.7928 15.3835 21.8802C15.0023 20.9677 14.9015 19.963 15.0939 18.9934C15.2863 18.0238 15.7633 17.1329 16.4644 16.4333C17.1655 15.7337 18.0593 15.257 19.0326 15.0635C20.0059 14.8699 21.015 14.9683 21.9322 15.346C22.8494 15.7238 23.6334 16.364 24.185 17.1857C24.7366 18.0073 25.0311 18.9735 25.0311 19.9618C25.0306 21.2847 24.5034 22.5535 23.5649 23.4898C22.6265 24.4262 21.3534 24.9538 20.0249 24.9569Z" fill="white"/>
<path d="M28.0603 13.782C29.0547 13.782 29.8608 12.9792 29.8608 11.989C29.8608 10.9988 29.0547 10.196 28.0603 10.196C27.0659 10.196 26.2598 10.9988 26.2598 11.989C26.2598 12.9792 27.0659 13.782 28.0603 13.782Z" fill="white"/>
<path d="M34.2859 10.1662C33.8992 9.17166 33.3082 8.2685 32.5507 7.51452C31.7933 6.76054 30.8861 6.17236 29.8872 5.78764C28.7185 5.35106 27.484 5.11507 26.236 5.08973C24.6274 5.01994 24.1184 5 20.0384 5C15.9584 5 15.4361 5 13.8408 5.08973C12.5939 5.11377 11.3602 5.3498 10.193 5.78764C9.19394 6.17166 8.28658 6.7596 7.52931 7.51369C6.77204 8.26777 6.18161 9.17131 5.79598 10.1662C5.3578 11.3288 5.12137 12.5571 5.09679 13.7987C5.02503 15.4022 5 15.909 5 19.9735C5 24.038 5 24.5531 5.09345 26.145C5.11775 27.3882 5.35419 28.6182 5.79264 29.7825C6.1799 30.777 6.77129 31.6801 7.529 32.434C8.2867 33.188 9.19405 33.7762 10.193 34.161C11.3589 34.6131 12.5937 34.8637 13.8442 34.9022C15.4528 34.972 15.9618 34.9936 20.0418 34.9936C24.1218 34.9936 24.6441 34.9936 26.2394 34.9022C27.4872 34.8771 28.7217 34.6416 29.8905 34.2059C30.8892 33.8204 31.7962 33.2317 32.5536 32.4775C33.311 31.7233 33.9021 30.8202 34.2893 29.8257C34.7278 28.662 34.9642 27.4326 34.9884 26.1899C35.0602 24.5897 35.0819 24.0829 35.0819 20.0184C35.0819 15.9539 35.0819 15.4388 34.9884 13.8469C34.9684 12.5889 34.7307 11.3438 34.2859 10.1662ZM32.2518 26.0204C32.2412 26.9792 32.0657 27.929 31.7328 28.8287C31.4819 29.4756 31.0979 30.0631 30.6053 30.5534C30.1127 31.0436 29.5225 31.4257 28.8726 31.6752C27.9791 32.0051 27.0354 32.1799 26.0825 32.1919C24.4956 32.2651 24.0484 32.2833 19.9784 32.2833C15.9084 32.2833 15.4895 32.2833 13.8725 32.1919C12.9202 32.1806 11.9769 32.0058 11.0841 31.6752C10.432 31.4274 9.83934 31.046 9.34463 30.5556C8.84991 30.0653 8.46413 29.4769 8.21227 28.8287C7.8841 27.9387 7.70866 27 7.6933 26.052C7.62155 24.4717 7.60486 24.0264 7.60486 19.9735C7.60486 15.9206 7.60486 15.5052 7.6933 13.8934C7.70532 12.9361 7.88198 11.988 8.21561 11.0901C8.46745 10.4416 8.85321 9.85307 9.34791 9.36245C9.84262 8.87183 10.4353 8.4901 11.0875 8.24196C11.9806 7.91293 12.9237 7.73816 13.8759 7.72518C15.4628 7.6504 15.9084 7.63378 19.98 7.63378C24.0517 7.63378 24.4689 7.63378 26.0842 7.72518C27.0371 7.73636 27.981 7.91119 28.8743 8.24196C29.5238 8.49211 30.1136 8.8747 30.6058 9.36518C31.0981 9.85567 31.482 10.4432 31.7328 11.0901C32.061 11.9801 32.2364 12.9188 32.2518 13.8668C32.3235 15.4487 32.3419 15.8924 32.3419 19.9469C32.3419 24.0015 32.3419 24.4335 32.2701 26.0254H32.2518V26.0204Z" fill="white"/>
</svg>
