<svg width="40" height="43" viewBox="0 0 40 43" fill="none" xmlns="http://www.w3.org/2000/svg">
<g filter="url(#filter0_d)">
<path fill-rule="evenodd" clip-rule="evenodd" d="M24.0174 12.7429C24.0008 11.8774 23.64 11.0539 23.0144 10.453C22.3887 9.85204 21.5492 9.5228 20.68 9.53748C19.8109 9.5228 18.9714 9.85204 18.3457 10.453C17.72 11.0539 17.3593 11.8774 17.3426 12.7429C17.3597 13.6081 17.7206 14.4312 18.3463 15.0317C18.9719 15.6323 19.8112 15.9613 20.68 15.9466C21.5489 15.9613 22.3881 15.6323 23.0138 15.0317C23.6394 14.4312 24.0003 13.6081 24.0174 12.7429ZM28.7366 12.7429C28.6966 14.8321 27.8262 16.8203 26.3162 18.2713C24.8062 19.7224 22.7798 20.5178 20.6817 20.4831C18.5838 20.5173 16.5579 19.7217 15.0483 18.2707C13.5386 16.8198 12.6684 14.8318 12.6285 12.7429C12.6684 10.6538 13.5386 8.6657 15.0482 7.21446C16.5578 5.76322 18.5837 4.96725 20.6817 5.00106C22.78 4.96681 24.8063 5.76258 26.3163 7.21386C27.8263 8.66515 28.6966 10.6535 28.7366 12.7429ZM28.6381 24.9414C27.1937 25.8128 25.6152 26.4416 23.9657 26.8025L28.4712 31.1229C28.6897 31.3295 28.8636 31.5782 28.9824 31.8539C29.1013 32.1295 29.1626 32.4264 29.1626 32.7264C29.1626 33.0264 29.1013 33.3233 28.9824 33.5989C28.8636 33.8746 28.6897 34.1233 28.4712 34.3299C28.0215 34.757 27.424 34.9952 26.8025 34.9952C26.1811 34.9952 25.5835 34.757 25.1338 34.3299L20.7017 30.0843L16.2796 34.3366C15.8293 34.7625 15.232 35 14.6109 35C13.9898 35 13.3925 34.7625 12.9422 34.3366C12.724 34.1298 12.5502 33.8811 12.4315 33.6054C12.3128 33.3298 12.2516 33.033 12.2516 32.7331C12.2516 32.4331 12.3128 32.1363 12.4315 31.8607C12.5502 31.585 12.724 31.3363 12.9422 31.1295L17.4477 26.8091C15.7951 26.4466 14.2137 25.8156 12.767 24.9414C12.507 24.7892 12.2807 24.5861 12.1018 24.3444C11.9228 24.1027 11.795 23.8274 11.7259 23.5351C11.6568 23.2428 11.6479 22.9396 11.6998 22.6438C11.7517 22.348 11.8632 22.0657 12.0277 21.8141C12.3727 21.3007 12.9033 20.9399 13.509 20.8067C14.1146 20.6736 14.7485 20.7785 15.2784 21.0995C16.9165 22.0787 18.7911 22.5959 20.7017 22.5959C22.6123 22.5959 24.4869 22.0787 26.125 21.0995C26.6551 20.7777 27.2895 20.6723 27.8958 20.8051C28.5021 20.9379 29.0335 21.2988 29.379 21.8124C29.5437 22.0642 29.6554 22.3467 29.7073 22.6428C29.7592 22.9388 29.7503 23.2423 29.681 23.5348C29.6118 23.8273 29.4836 24.1028 29.3044 24.3445C29.1251 24.5863 28.8984 24.7894 28.6381 24.9414Z" fill="white"/>
</g>
<defs>
<filter id="filter0_d" x="-4" y="0" width="48" height="48" filterUnits="userSpaceOnUse" color-interpolation-filters="sRGB">
<feFlood flood-opacity="0" result="BackgroundImageFix"/>
<feColorMatrix in="SourceAlpha" type="matrix" values="0 0 0 0 0 0 0 0 0 0 0 0 0 0 0 0 0 0 127 0"/>
<feOffset dy="4"/>
<feGaussianBlur stdDeviation="2"/>
<feColorMatrix type="matrix" values="0 0 0 0 0 0 0 0 0 0 0 0 0 0 0 0 0 0 0.25 0"/>
<feBlend mode="normal" in2="BackgroundImageFix" result="effect1_dropShadow"/>
<feBlend mode="normal" in="SourceGraphic" in2="effect1_dropShadow" result="shape"/>
</filter>
</defs>
</svg>
