<svg width="40" height="40" viewBox="0 0 40 40" fill="none" xmlns="http://www.w3.org/2000/svg">
<path d="M29.1509 33.3334C28.9166 33.3334 28.6838 33.2645 28.4842 33.13L20.941 28.0452L16.8952 30.9381C16.5779 31.1649 16.1689 31.222 15.8005 31.0911C15.4325 30.9599 15.1531 30.657 15.0533 30.2814L13.0219 22.6309L5.76336 19.8728C5.3064 19.6991 5.00335 19.2647 5.00003 18.7785C4.9967 18.2923 5.29374 17.8538 5.74847 17.6739L33.348 6.76047C33.4733 6.7076 33.6058 6.67707 33.7394 6.66889C33.7873 6.66606 33.8352 6.66606 33.8829 6.66873C34.1597 6.6851 34.4315 6.79713 34.6437 7.00388C34.6657 7.02528 34.6866 7.04715 34.7064 7.06997C34.8821 7.26948 34.9787 7.51274 34.9969 7.76055C35.0014 7.82286 35.0011 7.88596 34.9955 7.94905C34.9917 7.99405 34.9852 8.0389 34.976 8.08343L30.3174 32.3742C30.2425 32.7645 29.9752 33.0911 29.606 33.2433C29.4595 33.3037 29.3048 33.3334 29.1509 33.3334ZM21.6033 25.6397L28.3225 30.1689L31.9474 11.2679L18.8552 23.7873L21.5716 25.6185C21.5825 25.6252 21.593 25.6325 21.6033 25.6397ZM16.0098 24.6325L16.9095 28.0202L18.8478 26.6341L16.3097 24.9231C16.1917 24.8438 16.0907 24.745 16.0098 24.6325ZM9.45492 18.7484L14.439 20.6421C14.796 20.7777 15.0655 21.0761 15.163 21.4433L15.7951 23.8238C15.8241 23.5492 15.9493 23.2908 16.1528 23.0962L28.6278 11.1672L9.45492 18.7484Z" fill="white"/>
</svg>
