<svg width="40" height="40" viewBox="0 0 40 40" fill="none" xmlns="http://www.w3.org/2000/svg">
<path d="M36.0403 11.3446C36.2739 10.5719 36.0403 10.0036 34.9339 10.0036H31.2627C30.9211 9.98045 30.5812 10.0684 30.2941 10.2542C30.007 10.44 29.7882 10.7136 29.6708 11.0339C28.5353 13.7208 27.018 16.2312 25.1653 18.4883C24.3142 19.3424 23.9237 19.6116 23.4598 19.6116C23.2279 19.6116 22.8908 19.3424 22.8908 18.568V11.3446C22.8908 10.4157 22.6222 10.0036 21.8445 10.0036H16.0975C15.9814 9.99692 15.8651 10.0131 15.7553 10.0513C15.6455 10.0894 15.5443 10.1488 15.4577 10.226C15.371 10.3032 15.3005 10.3967 15.2502 10.5011C15.1999 10.6056 15.1709 10.7189 15.1647 10.8345C15.1647 11.7135 16.4846 11.9163 16.6198 14.3905V19.7594C16.6198 20.9359 16.4079 21.1503 15.9406 21.1503C14.7008 21.1586 11.6771 16.6188 9.8882 11.4178C9.53944 10.4074 9.18734 10.0003 8.25119 10.0003H4.59004C3.54209 10.0003 3.3335 10.4988 3.3335 11.0306C3.3335 11.9993 4.57502 16.7883 9.11392 23.1244C10.3102 25.0396 11.9474 26.6437 13.8898 27.8039C15.8322 28.964 18.0242 29.6469 20.2843 29.7961C22.6105 29.7961 22.8992 29.276 22.8992 28.377V25.1118C22.8992 24.0699 23.1211 23.8605 23.8587 23.8605C24.3993 23.8605 25.3321 24.133 27.5048 26.2168C29.9862 28.6877 30.3984 29.7977 31.7934 29.7977H35.4546C36.5008 29.7977 37.0231 29.2776 36.7228 28.249C35.9433 26.6607 34.8989 25.2156 33.634 23.9752C32.7796 22.9781 31.5014 21.8897 31.1126 21.348C30.5702 20.6518 30.7271 20.351 31.1126 19.7246C31.1109 19.7262 35.573 13.4716 36.0403 11.3446Z" fill="white"/>
</svg>
