<svg width="40" height="40" viewBox="0 0 40 40" fill="none" xmlns="http://www.w3.org/2000/svg">
<path d="M35 19.6137C35 27.6847 28.407 34.2273 20.2727 34.2273C17.6903 34.2273 15.2643 33.5673 13.1537 32.409L5 35L7.65833 27.1593C6.31733 24.9573 5.545 22.3747 5.545 19.6137C5.545 11.5427 12.1387 5 20.2727 5C28.4077 5 35 11.5427 35 19.6137ZM20.2727 7.32733C13.4447 7.32733 7.89067 12.839 7.89067 19.6137C7.89067 22.302 8.767 24.7917 10.2493 26.817L8.70233 31.38L13.4607 29.8677C15.4157 31.1513 17.7577 31.9 20.273 31.9C27.1 31.9 32.655 26.389 32.655 19.6143C32.655 12.8397 27.1003 7.32733 20.2727 7.32733ZM27.7097 22.9793C27.6187 22.8303 27.3783 22.7403 27.0177 22.5613C26.6563 22.3823 24.881 21.5153 24.551 21.3963C24.22 21.277 23.9787 21.217 23.7383 21.5753C23.498 21.934 22.806 22.7403 22.595 22.9793C22.3843 23.219 22.174 23.249 21.8127 23.0697C21.452 22.8907 20.289 22.512 18.91 21.292C17.837 20.3427 17.1123 19.1707 16.9017 18.8117C16.6913 18.4533 16.8797 18.2597 17.06 18.0813C17.2227 17.9207 17.4213 17.663 17.6017 17.454C17.7827 17.2447 17.8427 17.0957 17.9623 16.8563C18.0833 16.6173 18.023 16.4083 17.9323 16.2287C17.8423 16.0497 17.1197 14.287 16.819 13.5697C16.5183 12.853 16.218 12.9723 16.007 12.9723C15.7967 12.9723 15.5557 12.9423 15.315 12.9423C15.0743 12.9423 14.683 13.032 14.352 13.3903C14.0213 13.749 13.089 14.6157 13.089 16.378C13.089 18.1407 14.382 19.8437 14.563 20.0823C14.7433 20.321 17.0597 24.0557 20.7297 25.49C24.4 26.9237 24.4 26.4453 25.062 26.3853C25.7233 26.3257 27.1973 25.519 27.4993 24.683C27.7993 23.8457 27.7993 23.1287 27.7097 22.9793Z" fill="white"/>
</svg>
