<svg width="16" height="16" viewBox="0 0 16 16" fill="none" xmlns="http://www.w3.org/2000/svg">
<path fill-rule="evenodd" clip-rule="evenodd" d="M11.3333 1.33329C11.3333 0.965103 11.0348 0.666626 10.6666 0.666626C10.2984 0.666626 9.99992 0.965103 9.99992 1.33329V1.99996H5.99992V1.33329C5.99992 0.965103 5.70144 0.666626 5.33325 0.666626C4.96506 0.666626 4.66659 0.965103 4.66659 1.33329V1.99996H3.33325C2.22868 1.99996 1.33325 2.89539 1.33325 3.99996V13.3333C1.33325 14.4379 2.22868 15.3333 3.33325 15.3333H12.6666C13.7712 15.3333 14.6666 14.4379 14.6666 13.3333V3.99996C14.6666 2.89539 13.7712 1.99996 12.6666 1.99996H11.3333V1.33329ZM13.3333 5.99996V3.99996C13.3333 3.63177 13.0348 3.33329 12.6666 3.33329H11.3333V3.99996C11.3333 4.36815 11.0348 4.66663 10.6666 4.66663C10.2984 4.66663 9.99992 4.36815 9.99992 3.99996V3.33329H5.99992V3.99996C5.99992 4.36815 5.70144 4.66663 5.33325 4.66663C4.96506 4.66663 4.66659 4.36815 4.66659 3.99996V3.33329H3.33325C2.96506 3.33329 2.66659 3.63177 2.66659 3.99996V5.99996H13.3333ZM2.66659 7.33329H13.3333V13.3333C13.3333 13.7015 13.0348 14 12.6666 14H3.33325C2.96506 14 2.66659 13.7015 2.66659 13.3333V7.33329Z" fill="#1D3252"/>
</svg>
