<svg width="16" height="16" viewBox="0 0 16 16" fill="none" xmlns="http://www.w3.org/2000/svg">
<path fill-rule="evenodd" clip-rule="evenodd" d="M0.292893 13.0208C-0.097631 13.4113 -0.0976311 14.0445 0.292893 14.435L1 15.1421C1.39052 15.5327 2.02369 15.5327 2.41421 15.1421L7.7175 9.83885L13.0208 15.1422C13.4114 15.5327 14.0445 15.5327 14.435 15.1422L15.1422 14.4351C15.5327 14.0445 15.5327 13.4114 15.1422 13.0209L9.83882 7.71753L15.1421 2.41421C15.5327 2.02369 15.5327 1.39052 15.1421 1L14.435 0.292893C14.0445 -0.0976311 13.4113 -0.097631 13.0208 0.292893L7.7175 5.59621L2.41423 0.292939C2.02371 -0.0975854 1.39054 -0.0975854 1.00002 0.292939L0.292911 1.00005C-0.0976135 1.39057 -0.0976133 2.02374 0.292911 2.41426L5.59618 7.71753L0.292893 13.0208Z" fill="#E26D5C"/>
</svg>
