<svg width="1386" height="261" viewBox="0 0 1386 261" fill="none" xmlns="http://www.w3.org/2000/svg">
<path d="M130.167 151.802L134.036 149.553L137.905 151.802L134.036 154.051L130.167 151.802Z" fill="white"/>
<path d="M138.404 156.55L142.273 154.301L146.142 156.55L142.273 158.799L138.404 156.55Z" fill="white"/>
<path d="M146.517 161.298L150.385 159.049L154.254 161.298L150.385 163.547L146.517 161.298Z" fill="white"/>
<path d="M154.628 165.921L158.497 163.672L162.366 165.921L158.497 168.169L154.628 165.921Z" fill="white"/>
<path d="M162.865 170.668L166.734 168.419L170.603 170.668L166.734 172.917L162.865 170.668Z" fill="white"/>
<g opacity="0.5">
<path opacity="0.5" d="M86.8618 121.067L74.2569 113.82L67.8921 115.695L80.6218 122.816L86.8618 121.067Z" fill="#7BDAFF"/>
<path opacity="0.5" d="M83.8662 81.3361L85.7382 87.9579L98.3431 95.0795L96.5959 88.4577L83.8662 81.3361Z" fill="#7BDAFF"/>
<path opacity="0.5" d="M17.0978 87.0832L29.8275 94.2048L27.9555 87.9578L15.3506 80.7113L17.0978 87.0832Z" fill="#7BDAFF"/>
<path opacity="0.5" d="M87.9847 96.079L91.6039 108.948L82.3687 111.572L94.9736 118.693L104.334 116.069L100.714 103.201L87.9847 96.079Z" fill="#7BDAFF"/>
<path opacity="0.5" d="M25.7091 79.8368L23.0883 70.4663L65.3958 58.5969L52.6661 51.4753L10.4834 63.3447L13.1042 72.7152L25.7091 79.8368Z" fill="#7BDAFF"/>
<path opacity="0.5" d="M55.5366 119.068L38.1892 124.066L33.1972 106.574L20.5923 99.4524L31.0756 136.685L68.2663 126.19L55.5366 119.068Z" fill="#7BDAFF"/>
<path opacity="0.5" d="M60.7783 49.2264L73.508 56.348L77.5017 58.5969L90.1066 65.7185L83.7417 42.7295L60.7783 49.2264Z" fill="#7BDAFF"/>
<path opacity="0.5" d="M79.748 66.718L81.6201 73.2149L94.225 80.3365L92.4778 73.8396L79.748 66.718Z" fill="#7BDAFF"/>
</g>
<path d="M137.531 121.692H112.945L121.806 112.821H146.392L137.531 121.692ZM117.438 119.818H136.657L141.774 114.695H122.554L117.438 119.818Z" fill="white"/>
<path d="M142.273 72.2154H117.812L108.577 63.0947H133.162L142.273 72.2154ZM118.561 70.3413H137.78L132.414 64.9688H113.194L118.561 70.3413Z" fill="white"/>
<path d="M51.6679 121.692H27.0821L18.2212 112.821H42.807L51.6679 121.692ZM27.9557 119.818H47.175L42.0582 114.695H22.8388L27.9557 119.818Z" fill="white"/>
<path d="M153.38 105.699H128.794L140.027 94.4547L124.801 79.3369H149.387L164.612 94.5796L153.38 105.699ZM133.412 103.825H152.631L161.991 94.4547L148.638 81.211H129.418L142.772 94.5796L133.412 103.825Z" fill="white"/>
<path d="M35.8179 105.699H11.2321L0 94.4547L47.674 46.7275H72.2598L24.5858 94.5796L35.8179 105.699ZM11.9809 103.825H31.2003L21.8402 94.4547L67.6422 48.7266H48.4228L2.62082 94.5796L11.9809 103.825Z" fill="white"/>
<path d="M82.3687 176.915L38.938 133.436H63.5238L82.3687 152.302L101.214 133.436H125.8L82.3687 176.915ZM43.4308 135.31L82.3687 174.291L121.307 135.31H101.963L82.3687 155.051L62.6502 135.31H43.4308Z" fill="white"/>
<path d="M109.949 39.7309H54.6626L82.3684 12.1191L109.949 39.7309ZM59.2802 37.8568H105.457L82.3684 14.7429L59.2802 37.8568Z" fill="white"/>
<path d="M126.174 55.9732H101.588L92.4775 46.8525H117.063L126.174 55.9732ZM102.337 54.0991H121.556L116.19 48.7266H96.9704L102.337 54.0991Z" fill="white"/>
<path d="M151.317 105.949C151.317 105.824 151.442 105.699 151.442 105.574C151.442 105.45 151.566 105.45 151.566 105.325C151.566 105.2 151.691 105.2 151.691 105.075C152.939 102.076 154.936 99.5773 157.307 98.203L157.931 97.8282L241.173 49.7262L324.416 1.62426L325.04 1.24944C327.411 -0.124902 329.907 -0.124902 331.904 0.87462C331.904 0.87462 332.029 0.87462 332.029 0.99956C332.029 0.99956 332.153 0.99956 332.153 1.1245L343.136 7.49645L337.021 9.99525L358.986 126.689C359.61 129.688 359.11 133.061 357.738 136.06C357.738 136.185 357.613 136.185 357.613 136.31C357.613 136.435 357.488 136.435 357.488 136.56C356.24 139.558 354.243 142.057 351.872 143.431L185.887 239.51L187.384 246.882L177.026 240.885C177.026 240.885 176.901 240.885 176.901 240.76C174.904 239.635 173.282 237.511 172.782 234.513L150.194 114.945C149.694 112.071 150.194 108.823 151.317 105.949Z" fill="white"/>
<path d="M194.872 246.757L362.73 149.678C367.846 146.805 370.842 138.809 369.594 132.062L347.379 14.2433C346.131 7.49651 340.889 4.37301 335.897 7.24664L168.04 104.45C162.923 107.324 159.928 115.32 161.176 122.067L183.391 239.885C184.639 246.632 189.88 249.756 194.872 246.757Z" fill="url(#paint0_linear)"/>
<path d="M168.789 104.075L252.031 55.9733L278.115 194.407L195.621 246.382C190.13 249.506 184.763 247.007 183.64 240.635L161.051 121.192C159.803 114.82 163.298 107.199 168.789 104.075Z" fill="url(#paint1_linear)"/>
<path d="M335.274 7.74644L252.031 55.8484L277.99 193.408L362.106 150.053C367.597 146.93 370.967 139.184 369.843 132.936L347.379 13.3687C346.131 7.12174 340.765 4.62294 335.274 7.74644Z" fill="url(#paint2_linear)"/>
<path d="M368.845 141.932C367.472 145.306 365.101 148.429 362.23 150.053L195.746 246.382C192.751 248.131 189.88 248.131 187.634 246.757L262.265 109.073L368.845 141.932Z" fill="url(#paint3_linear)"/>
<path d="M162.05 112.196C163.423 108.823 165.794 105.699 168.664 104.075L335.274 7.74637C338.269 5.99721 341.139 5.99721 343.386 7.37155L268.879 144.931L162.05 112.196Z" fill="url(#paint4_linear)"/>
<g opacity="0.5">
<path opacity="0.5" d="M1384.01 88.3463V88.0984V87.8504V87.6025C1383.02 85.3709 1381.53 83.1393 1379.55 82.1475L1379.06 81.8996L1313.67 43.9628L1248.28 6.02614L1247.79 5.77818C1245.81 4.78637 1244.07 4.78637 1242.34 5.53023C1242.34 5.53023 1242.34 5.53023 1242.09 5.53023C1242.09 5.53023 1242.09 5.53023 1241.84 5.53023L1233.18 10.4893L1238.13 12.7209L1220.79 104.463C1220.3 106.943 1220.79 109.422 1221.78 111.902V112.15C1221.78 112.15 1221.78 112.15 1221.78 112.398C1222.77 114.629 1224.26 116.861 1226.24 117.853L1356.77 193.23L1355.53 198.933L1363.7 194.222C1363.7 194.222 1363.7 194.222 1363.95 194.222C1365.43 193.478 1366.67 191.742 1367.17 189.263L1384.75 95.289C1385.25 93.0574 1385 90.5779 1384.01 88.3463Z" fill="white"/>
<g opacity="0.5">
<path opacity="0.5" d="M1349.83 198.933L1217.82 122.564C1213.86 120.332 1211.38 114.133 1212.37 108.678L1229.71 16.1922C1230.7 10.9852 1234.66 8.50566 1238.62 10.7372L1370.63 87.1066C1374.6 89.3381 1377.07 95.537 1376.08 100.992L1358.75 193.478C1357.76 198.933 1353.79 201.165 1349.83 198.933Z" fill="url(#paint5_linear)"/>
<path opacity="0.5" d="M1370.39 86.8586L1305 48.9219L1284.44 157.773L1349.33 198.685C1353.54 201.165 1357.75 199.181 1358.75 194.222L1376.33 100.248C1377.32 95.289 1374.6 89.3381 1370.39 86.8586Z" fill="url(#paint6_linear)"/>
<path opacity="0.5" d="M1239.37 11.2331L1304.75 49.1698L1284.44 157.277L1218.31 123.06C1214.1 120.58 1211.38 114.629 1212.12 109.67L1229.71 15.6963C1230.95 10.7372 1235.16 8.75359 1239.37 11.2331Z" fill="url(#paint7_linear)"/>
<path opacity="0.5" d="M1213.11 116.613C1214.1 119.34 1216.08 121.572 1218.31 123.06L1349.09 198.685C1351.32 199.925 1353.79 199.925 1355.53 198.933L1296.83 90.8258L1213.11 116.613Z" fill="url(#paint8_linear)"/>
<path opacity="0.5" d="M1375.59 93.3054C1374.6 90.5779 1372.62 88.3464 1370.39 86.8587L1239.61 11.2332C1237.39 9.99342 1234.91 9.99342 1233.17 10.9852L1291.63 118.845L1375.59 93.3054Z" fill="url(#paint9_linear)"/>
</g>
</g>
<path d="M1361.34 238.538L1358.19 235.382L1355.04 238.538L1358.19 241.694L1361.34 238.538Z" fill="white"/>
<path d="M1372.86 238.406L1369.71 235.25L1366.55 238.406L1369.71 241.562L1372.86 238.406Z" fill="white"/>
<path d="M1367.04 232.854L1363.89 229.698L1360.74 232.854L1363.89 236.01L1367.04 232.854Z" fill="white"/>
<path d="M1367.15 244.09L1364 240.934L1360.85 244.09L1364 247.246L1367.15 244.09Z" fill="white"/>
<defs>
<linearGradient id="paint0_linear" x1="358.604" y1="73.2157" x2="159.093" y2="110.808" gradientUnits="userSpaceOnUse">
<stop stop-color="#7BDAFF"/>
<stop offset="1" stop-color="#59BDEF"/>
</linearGradient>
<linearGradient id="paint1_linear" x1="153.759" y1="338.179" x2="254.978" y2="147.243" gradientUnits="userSpaceOnUse">
<stop offset="0.7677" stop-color="#59BDEF"/>
<stop offset="0.8452" stop-color="#55B8EB"/>
<stop offset="0.9318" stop-color="#49ABE1"/>
<stop offset="1" stop-color="#3A9BD5"/>
</linearGradient>
<linearGradient id="paint2_linear" x1="427.065" y1="179.922" x2="285.956" y2="120.036" gradientUnits="userSpaceOnUse">
<stop offset="0.7677" stop-color="#59BDEF"/>
<stop offset="0.8452" stop-color="#55B8EB"/>
<stop offset="0.9318" stop-color="#49ABE1"/>
<stop offset="1" stop-color="#3A9BD5"/>
</linearGradient>
<linearGradient id="paint3_linear" x1="305.498" y1="339.597" x2="204.727" y2="165.325" gradientUnits="userSpaceOnUse">
<stop offset="0.7677" stop-color="#3A9BD5"/>
<stop offset="0.8386" stop-color="#3896D2"/>
<stop offset="0.9179" stop-color="#3189C9"/>
<stop offset="1" stop-color="#2573BA"/>
</linearGradient>
<linearGradient id="paint4_linear" x1="308.629" y1="-10.0422" x2="121.344" y2="132.248" gradientUnits="userSpaceOnUse">
<stop stop-color="#7BDAFF"/>
<stop offset="1" stop-color="#59BDEF"/>
</linearGradient>
<linearGradient id="paint5_linear" x1="1221.18" y1="62.593" x2="1377.91" y2="92.1258" gradientUnits="userSpaceOnUse">
<stop stop-color="#7BDAFF"/>
<stop offset="1" stop-color="#59BDEF"/>
</linearGradient>
<linearGradient id="paint6_linear" x1="1382.1" y1="270.748" x2="1302.58" y2="120.748" gradientUnits="userSpaceOnUse">
<stop offset="0.7677" stop-color="#59BDEF"/>
<stop offset="0.8452" stop-color="#55B8EB"/>
<stop offset="0.9318" stop-color="#49ABE1"/>
<stop offset="1" stop-color="#3A9BD5"/>
</linearGradient>
<linearGradient id="paint7_linear" x1="1167.39" y1="146.421" x2="1278.25" y2="99.3747" gradientUnits="userSpaceOnUse">
<stop offset="0.7677" stop-color="#59BDEF"/>
<stop offset="0.8452" stop-color="#55B8EB"/>
<stop offset="0.9318" stop-color="#49ABE1"/>
<stop offset="1" stop-color="#3A9BD5"/>
</linearGradient>
<linearGradient id="paint8_linear" x1="1262.9" y1="271.862" x2="1342.06" y2="134.953" gradientUnits="userSpaceOnUse">
<stop offset="0.7677" stop-color="#3A9BD5"/>
<stop offset="0.8386" stop-color="#3896D2"/>
<stop offset="0.9179" stop-color="#3189C9"/>
<stop offset="1" stop-color="#2573BA"/>
</linearGradient>
<linearGradient id="paint9_linear" x1="1260.44" y1="-2.81447" x2="1407.57" y2="108.968" gradientUnits="userSpaceOnUse">
<stop stop-color="#7BDAFF"/>
<stop offset="1" stop-color="#59BDEF"/>
</linearGradient>
</defs>
</svg>
