<svg width="1386" height="261" viewBox="0 0 1386 261" fill="none" xmlns="http://www.w3.org/2000/svg">
<path d="M130.167 151.802L134.036 149.553L137.905 151.802L134.036 154.051L130.167 151.802Z" fill="white"/>
<path d="M138.404 156.55L142.273 154.301L146.142 156.55L142.273 158.799L138.404 156.55Z" fill="white"/>
<path d="M146.517 161.298L150.385 159.049L154.254 161.298L150.385 163.547L146.517 161.298Z" fill="white"/>
<path d="M154.628 165.921L158.497 163.672L162.366 165.921L158.497 168.169L154.628 165.921Z" fill="white"/>
<path d="M162.865 170.668L166.734 168.419L170.603 170.668L166.734 172.917L162.865 170.668Z" fill="white"/>
<g opacity="0.5">
<path opacity="0.5" d="M86.8618 121.067L74.2569 113.82L67.8921 115.695L80.6218 122.816L86.8618 121.067Z" fill="#7BDAFF"/>
<path opacity="0.5" d="M83.8662 81.3361L85.7382 87.9579L98.3431 95.0795L96.5959 88.4577L83.8662 81.3361Z" fill="#7BDAFF"/>
<path opacity="0.5" d="M17.0978 87.0832L29.8275 94.2048L27.9555 87.9578L15.3506 80.7113L17.0978 87.0832Z" fill="#7BDAFF"/>
<path opacity="0.5" d="M87.9847 96.079L91.6039 108.948L82.3687 111.572L94.9736 118.693L104.334 116.069L100.714 103.201L87.9847 96.079Z" fill="#7BDAFF"/>
<path opacity="0.5" d="M25.7091 79.8368L23.0883 70.4663L65.3958 58.5969L52.6661 51.4753L10.4834 63.3447L13.1042 72.7152L25.7091 79.8368Z" fill="#7BDAFF"/>
<path opacity="0.5" d="M55.5366 119.068L38.1892 124.066L33.1972 106.574L20.5923 99.4524L31.0756 136.685L68.2663 126.19L55.5366 119.068Z" fill="#7BDAFF"/>
<path opacity="0.5" d="M60.7783 49.2264L73.508 56.348L77.5017 58.5969L90.1066 65.7185L83.7417 42.7295L60.7783 49.2264Z" fill="#7BDAFF"/>
<path opacity="0.5" d="M79.748 66.718L81.6201 73.2149L94.225 80.3365L92.4778 73.8396L79.748 66.718Z" fill="#7BDAFF"/>
</g>
<path d="M137.531 121.692H112.945L121.806 112.821H146.392L137.531 121.692ZM117.438 119.818H136.657L141.774 114.695H122.554L117.438 119.818Z" fill="white"/>
<path d="M142.273 72.2154H117.812L108.577 63.0947H133.162L142.273 72.2154ZM118.561 70.3413H137.78L132.414 64.9688H113.194L118.561 70.3413Z" fill="white"/>
<path d="M51.6679 121.692H27.0821L18.2212 112.821H42.807L51.6679 121.692ZM27.9557 119.818H47.175L42.0582 114.695H22.8388L27.9557 119.818Z" fill="white"/>
<path d="M153.38 105.699H128.794L140.027 94.4547L124.801 79.3369H149.387L164.612 94.5796L153.38 105.699ZM133.412 103.825H152.631L161.991 94.4547L148.638 81.211H129.418L142.772 94.5796L133.412 103.825Z" fill="white"/>
<path d="M35.8179 105.699H11.2321L0 94.4547L47.674 46.7275H72.2598L24.5858 94.5796L35.8179 105.699ZM11.9809 103.825H31.2003L21.8402 94.4547L67.6422 48.7266H48.4228L2.62082 94.5796L11.9809 103.825Z" fill="white"/>
<path d="M82.3687 176.915L38.938 133.436H63.5238L82.3687 152.302L101.214 133.436H125.8L82.3687 176.915ZM43.4308 135.31L82.3687 174.291L121.307 135.31H101.963L82.3687 155.051L62.6502 135.31H43.4308Z" fill="white"/>
<path d="M109.949 39.7309H54.6626L82.3684 12.1191L109.949 39.7309ZM59.2802 37.8568H105.457L82.3684 14.7429L59.2802 37.8568Z" fill="white"/>
<path d="M126.174 55.9732H101.588L92.4775 46.8525H117.063L126.174 55.9732ZM102.337 54.0991H121.556L116.19 48.7266H96.9704L102.337 54.0991Z" fill="white"/>
<g style="mix-blend-mode:multiply" opacity="0.5">
<g opacity="0.5">
<path opacity="0.5" d="M387.94 228.641H168.29V261H387.94V228.641Z" fill="white"/>
<path opacity="0.5" d="M277.943 258.755C332.257 258.449 376.253 252.27 376.212 244.956C376.171 237.642 332.107 231.961 277.794 232.268C223.48 232.575 179.484 238.753 179.525 246.067C179.567 253.381 223.63 259.062 277.943 258.755Z" fill="white"/>
<path opacity="0.5" d="M277.568 258.631C331.674 258.325 375.504 252.204 375.463 244.959C375.422 237.713 331.527 232.088 277.42 232.393C223.313 232.699 179.484 238.82 179.525 246.065C179.566 253.31 223.461 258.936 277.568 258.631Z" fill="white"/>
<path opacity="0.5" d="M277.318 258.63C331.218 258.325 374.88 252.205 374.839 244.96C374.798 237.715 331.07 232.088 277.171 232.392C223.271 232.697 179.609 238.817 179.65 246.062C179.691 253.308 223.419 258.934 277.318 258.63Z" fill="white"/>
<path opacity="0.5" d="M276.944 258.63C330.637 258.327 374.131 252.208 374.09 244.962C374.049 237.717 330.489 232.089 276.796 232.393C223.103 232.696 179.609 238.815 179.65 246.06C179.691 253.306 223.251 258.933 276.944 258.63Z" fill="white"/>
<path opacity="0.5" d="M276.569 258.506C330.055 258.203 373.381 252.141 373.341 244.965C373.301 237.789 329.909 232.216 276.422 232.518C222.936 232.82 179.609 238.882 179.65 246.059C179.69 253.235 223.082 258.808 276.569 258.506Z" fill="white"/>
<path opacity="0.5" d="M276.319 258.505C329.53 258.204 372.633 252.143 372.592 244.967C372.552 237.791 329.383 232.217 276.173 232.517C222.962 232.818 179.859 238.879 179.899 246.055C179.94 253.232 223.108 258.805 276.319 258.505Z" fill="#FEFFFF"/>
<path opacity="0.5" d="M275.944 258.38C328.948 258.081 371.884 252.077 371.844 244.969C371.804 237.862 328.803 232.343 275.799 232.643C222.795 232.942 179.86 238.946 179.9 246.053C179.94 253.161 222.94 258.68 275.944 258.38Z" fill="#FEFFFF"/>
<path opacity="0.5" d="M275.57 258.38C328.367 258.082 371.135 252.079 371.095 244.972C371.055 237.864 328.222 232.345 275.425 232.643C222.628 232.941 179.86 238.944 179.9 246.051C179.94 253.159 222.773 258.679 275.57 258.38Z" fill="#FEFEFF"/>
<path opacity="0.5" d="M275.319 258.255C327.91 257.958 370.51 252.012 370.471 244.973C370.431 237.935 327.766 232.47 275.176 232.767C222.586 233.064 179.985 239.011 180.024 246.049C180.064 253.087 222.729 258.552 275.319 258.255Z" fill="#FEFEFF"/>
<path opacity="0.5" d="M274.945 258.255C327.329 257.959 369.762 252.014 369.722 244.976C369.682 237.937 327.185 232.472 274.801 232.767C222.418 233.063 179.985 239.009 180.024 246.047C180.064 253.085 222.562 258.551 274.945 258.255Z" fill="#FEFEFF"/>
<path opacity="0.5" d="M274.571 258.255C326.747 257.961 369.013 252.016 368.973 244.978C368.934 237.94 326.604 232.473 274.427 232.768C222.25 233.062 179.985 239.007 180.024 246.045C180.064 253.083 222.394 258.55 274.571 258.255Z" fill="#FDFEFF"/>
<path opacity="0.5" d="M274.195 258.131C326.165 257.837 368.263 251.95 368.224 244.98C368.185 238.011 326.023 232.599 274.053 232.893C222.083 233.186 179.985 239.074 180.024 246.043C180.064 253.012 222.225 258.424 274.195 258.131Z" fill="#FDFEFE"/>
<path opacity="0.5" d="M273.946 258.13C325.709 257.838 367.64 251.951 367.6 244.982C367.561 238.013 325.567 232.6 273.804 232.892C222.04 233.185 180.11 239.071 180.149 246.041C180.188 253.01 222.183 258.423 273.946 258.13Z" fill="#FDFEFE"/>
<path opacity="0.5" d="M273.571 258.005C325.127 257.714 366.89 251.884 366.851 244.984C366.812 238.084 324.986 232.726 273.43 233.017C221.873 233.309 180.11 239.138 180.149 246.039C180.188 252.939 222.014 258.297 273.571 258.005Z" fill="#FDFEFE"/>
<path opacity="0.5" d="M273.196 258.006C324.546 257.716 366.141 251.887 366.103 244.987C366.064 238.086 324.405 232.728 273.055 233.018C221.706 233.308 180.11 239.136 180.149 246.037C180.188 252.937 221.847 258.296 273.196 258.006Z" fill="#FCFDFE"/>
<path opacity="0.5" d="M272.947 258.005C324.09 257.716 365.518 251.888 365.479 244.988C365.44 238.088 323.949 232.728 272.806 233.017C221.663 233.306 180.235 239.134 180.274 246.034C180.313 252.934 221.804 258.294 272.947 258.005Z" fill="#FCFDFE"/>
<path opacity="0.5" d="M272.572 257.88C323.439 257.593 364.644 251.822 364.605 244.991C364.567 238.16 323.299 232.855 272.432 233.142C221.565 233.43 180.36 239.2 180.399 246.032C180.437 252.863 221.704 258.168 272.572 257.88Z" fill="#FCFDFE"/>
<path opacity="0.5" d="M272.198 258.006C322.858 257.72 363.895 251.95 363.857 245.119C363.818 238.287 322.719 232.981 272.058 233.267C221.398 233.554 180.361 239.323 180.399 246.155C180.438 252.986 221.537 258.292 272.198 258.006Z" fill="#FBFDFE"/>
<path opacity="0.5" d="M271.947 257.88C322.401 257.595 363.271 251.882 363.233 245.12C363.195 238.358 322.263 233.107 271.809 233.392C221.356 233.677 180.486 239.39 180.524 246.152C180.562 252.914 221.494 258.165 271.947 257.88Z" fill="#FBFDFE"/>
<path opacity="0.5" d="M271.573 257.88C321.82 257.597 362.522 251.885 362.484 245.122C362.446 238.36 321.682 233.108 271.435 233.392C221.188 233.676 180.486 239.388 180.524 246.15C180.562 252.912 221.326 258.164 271.573 257.88Z" fill="#FBFCFE"/>
<path opacity="0.5" d="M271.198 257.756C321.238 257.473 361.773 251.818 361.735 245.125C361.697 238.432 321.101 233.235 271.061 233.517C221.021 233.8 180.486 239.455 180.524 246.148C180.562 252.842 221.158 258.038 271.198 257.756Z" fill="#FAFCFE"/>
<path opacity="0.5" d="M270.824 257.756C320.657 257.474 361.024 251.82 360.987 245.127C360.949 238.434 320.52 233.236 270.687 233.517C220.854 233.799 180.487 239.453 180.524 246.146C180.562 252.839 220.99 258.037 270.824 257.756Z" fill="#FAFCFD"/>
<path opacity="0.5" d="M270.574 257.755C320.2 257.475 360.4 251.822 360.362 245.129C360.325 238.435 320.064 233.237 270.437 233.517C220.811 233.797 180.611 239.45 180.649 246.144C180.687 252.837 220.947 258.036 270.574 257.755Z" fill="#FAFCFD"/>
<path opacity="0.5" d="M270.199 257.631C319.618 257.352 359.651 251.755 359.613 245.131C359.576 238.507 319.483 233.363 270.063 233.642C220.644 233.921 180.611 239.518 180.649 246.142C180.686 252.766 220.779 257.91 270.199 257.631Z" fill="#F9FCFD"/>
<path opacity="0.5" d="M269.824 257.631C319.037 257.353 358.902 251.758 358.864 245.133C358.827 238.509 318.902 233.364 269.689 233.642C220.476 233.92 180.611 239.516 180.649 246.14C180.686 252.764 220.611 257.909 269.824 257.631Z" fill="#F9FBFD"/>
<path opacity="0.5" d="M269.574 257.505C318.58 257.229 358.277 251.69 358.24 245.135C358.204 238.58 318.446 233.49 269.44 233.767C220.434 234.044 180.736 239.582 180.773 246.137C180.81 252.693 220.568 257.782 269.574 257.505Z" fill="#F8FBFD"/>
<path opacity="0.5" d="M269.199 257.506C317.999 257.23 357.529 251.693 357.492 245.137C357.455 238.582 317.865 233.492 269.066 233.767C220.266 234.043 180.736 239.58 180.773 246.135C180.81 252.691 220.4 257.781 269.199 257.506Z" fill="#F8FBFD"/>
<path opacity="0.5" d="M268.825 257.506C317.349 257.232 356.655 251.696 356.618 245.14C356.581 238.585 317.215 233.493 268.691 233.767C220.168 234.041 180.861 239.578 180.898 246.133C180.935 252.688 220.302 257.78 268.825 257.506Z" fill="#F8FAFD"/>
<path opacity="0.5" d="M268.575 257.38C316.892 257.108 356.031 251.628 355.994 245.142C355.958 238.656 316.759 233.619 268.443 233.892C220.126 234.165 180.987 239.644 181.023 246.13C181.06 252.616 220.258 257.653 268.575 257.38Z" fill="#F7FAFC"/>
<path opacity="0.5" d="M268.2 257.381C316.311 257.109 355.282 251.631 355.245 245.144C355.209 238.658 316.178 233.62 268.068 233.892C219.958 234.164 180.987 239.642 181.023 246.128C181.06 252.615 220.09 257.652 268.2 257.381Z" fill="#F7FAFC"/>
<path opacity="0.5" d="M267.825 257.256C315.729 256.985 354.533 251.564 354.496 245.147C354.46 238.729 315.598 233.747 267.694 234.017C219.791 234.288 180.987 239.709 181.023 246.126C181.059 252.544 219.922 257.527 267.825 257.256Z" fill="#F6FAFC"/>
<path opacity="0.5" d="M267.451 257.256C315.147 256.987 353.784 251.566 353.748 245.149C353.711 238.732 315.016 233.748 267.32 234.017C219.623 234.287 180.987 239.707 181.023 246.124C181.059 252.542 219.754 257.526 267.451 257.256Z" fill="#F6F9FC"/>
<path opacity="0.5" d="M267.201 257.256C314.691 256.987 353.16 251.568 353.124 245.151C353.088 238.733 314.56 233.749 267.07 234.017C219.581 234.285 181.112 239.705 181.148 246.122C181.184 252.539 219.712 257.524 267.201 257.256Z" fill="#F5F9FC"/>
<path opacity="0.5" d="M266.826 257.131C314.109 256.864 352.411 251.501 352.375 245.153C352.339 238.805 313.98 233.875 266.696 234.142C219.413 234.409 181.112 239.772 181.148 246.12C181.184 252.468 219.543 257.398 266.826 257.131Z" fill="#F5F9FC"/>
<path opacity="0.5" d="M266.452 257.131C313.528 256.865 351.662 251.504 351.626 245.155C351.59 238.807 313.398 233.876 266.322 234.142C219.246 234.408 181.112 239.77 181.148 246.118C181.184 252.466 219.375 257.397 266.452 257.131Z" fill="#F4F9FC"/>
<path opacity="0.5" d="M266.201 257.006C313.071 256.741 351.037 251.436 351.002 245.157C350.967 238.878 312.943 234.002 266.073 234.267C219.204 234.531 181.237 239.836 181.273 246.115C181.308 252.395 219.332 257.27 266.201 257.006Z" fill="#F4F8FB"/>
<path opacity="0.5" d="M265.827 257.006C312.49 256.742 350.289 251.438 350.253 245.159C350.218 238.88 312.361 234.003 265.699 234.267C219.036 234.53 181.237 239.834 181.273 246.114C181.308 252.393 219.164 257.269 265.827 257.006Z" fill="#F3F8FB"/>
<path opacity="0.5" d="M265.452 256.881C311.908 256.619 349.54 251.372 349.505 245.162C349.47 238.951 311.781 234.13 265.325 234.392C218.869 234.654 181.238 239.901 181.273 246.112C181.308 252.322 218.996 257.144 265.452 256.881Z" fill="#F3F8FB"/>
<path opacity="0.5" d="M265.202 256.881C311.451 256.62 348.915 251.373 348.88 245.163C348.845 238.953 311.325 234.13 265.075 234.392C218.826 234.653 181.362 239.899 181.397 246.109C181.432 252.319 218.953 257.142 265.202 256.881Z" fill="#F2F7FB"/>
<path opacity="0.5" d="M264.828 256.881C310.801 256.621 348.042 251.376 348.007 245.166C347.972 238.956 310.675 234.132 264.701 234.392C218.728 234.651 181.487 239.896 181.522 246.106C181.557 252.317 218.855 257.141 264.828 256.881Z" fill="#F2F7FB"/>
<path opacity="0.5" d="M264.453 256.756C310.219 256.498 347.293 251.31 347.258 245.169C347.223 239.027 310.094 234.258 264.327 234.517C218.561 234.775 181.488 239.963 181.522 246.105C181.557 252.246 218.686 257.015 264.453 256.756Z" fill="#F1F7FB"/>
<path opacity="0.5" d="M264.078 256.756C309.638 256.499 346.544 251.312 346.509 245.171C346.474 239.03 309.513 234.26 263.953 234.517C218.393 234.774 181.488 239.961 181.522 246.103C181.557 252.244 218.518 257.014 264.078 256.756Z" fill="#F1F6FA"/>
<path opacity="0.5" d="M263.828 256.631C309.181 256.375 345.919 251.245 345.885 245.172C345.851 239.1 309.057 234.385 263.704 234.642C218.351 234.898 181.613 240.028 181.647 246.1C181.681 252.172 218.475 256.887 263.828 256.631Z" fill="#F0F6FA"/>
<path opacity="0.5" d="M263.454 256.631C308.6 256.376 345.17 251.247 345.136 245.175C345.102 239.103 308.476 234.387 263.33 234.642C218.183 234.897 181.613 240.026 181.647 246.098C181.681 252.17 218.307 256.886 263.454 256.631Z" fill="#F0F6FA"/>
<path opacity="0.5" d="M263.079 256.631C308.019 256.378 344.422 251.249 344.387 245.177C344.353 239.105 307.895 234.388 262.955 234.642C218.016 234.896 181.613 240.024 181.647 246.096C181.681 252.168 218.14 256.885 263.079 256.631Z" fill="#EFF5FA"/>
<path opacity="0.5" d="M262.829 256.506C307.562 256.253 343.797 251.182 343.763 245.179C343.73 239.176 307.439 234.514 262.706 234.766C217.974 235.019 181.738 240.09 181.772 246.094C181.806 252.097 218.096 256.759 262.829 256.506Z" fill="#EEF5FA"/>
<path opacity="0.5" d="M262.454 256.506C306.98 256.255 343.048 251.184 343.015 245.181C342.981 239.178 306.858 234.515 262.332 234.766C217.806 235.018 181.738 240.088 181.772 246.092C181.806 252.095 217.928 256.758 262.454 256.506Z" fill="#EEF5FA"/>
<path opacity="0.5" d="M262.079 256.381C306.398 256.131 342.299 251.118 342.266 245.183C342.232 239.249 306.277 234.641 261.958 234.892C217.639 235.142 181.738 240.156 181.771 246.09C181.805 252.024 217.76 256.632 262.079 256.381Z" fill="#EDF4F9"/>
<path opacity="0.5" d="M261.83 256.381C305.942 256.132 341.675 251.119 341.642 245.185C341.608 239.251 305.821 234.642 261.709 234.891C217.596 235.14 181.863 240.153 181.896 246.087C181.93 252.022 217.717 256.63 261.83 256.381Z" fill="#EDF4F9"/>
<path opacity="0.5" d="M261.454 256.256C305.36 256.008 340.926 251.053 340.893 245.187C340.86 239.322 305.24 234.768 261.335 235.016C217.429 235.264 181.863 240.22 181.896 246.085C181.929 251.951 217.549 256.504 261.454 256.256Z" fill="#ECF3F9"/>
<path opacity="0.5" d="M261.08 256.256C304.71 256.01 340.052 251.056 340.019 245.19C339.986 239.325 304.59 234.77 260.96 235.017C217.33 235.263 181.988 240.217 182.021 246.083C182.054 251.948 217.45 256.503 261.08 256.256Z" fill="#EBF3F9"/>
<path opacity="0.5" d="M260.706 256.257C304.129 256.012 339.304 251.058 339.271 245.193C339.237 239.328 304.009 234.772 260.586 235.017C217.163 235.262 181.988 240.216 182.021 246.081C182.054 251.946 217.283 256.502 260.706 256.257Z" fill="#EBF3F9"/>
<path opacity="0.5" d="M260.455 256.131C303.672 255.887 338.679 250.991 338.647 245.194C338.614 239.398 303.554 234.897 260.337 235.141C217.121 235.385 182.113 240.282 182.146 246.078C182.179 251.874 217.239 256.375 260.455 256.131Z" fill="#EAF2F8"/>
<path opacity="0.5" d="M260.081 256.131C303.091 255.889 337.93 250.993 337.898 245.197C337.865 239.4 302.972 234.899 259.963 235.141C216.953 235.384 182.113 240.28 182.146 246.076C182.179 251.872 217.071 256.374 260.081 256.131Z" fill="#EAF2F8"/>
<path opacity="0.5" d="M259.706 256.007C302.509 255.765 337.181 250.926 337.149 245.199C337.116 239.472 302.392 235.025 259.589 235.267C216.786 235.508 182.114 240.347 182.146 246.074C182.178 251.802 216.903 256.248 259.706 256.007Z" fill="#E9F2F8"/>
<path opacity="0.5" d="M259.456 256.006C302.052 255.766 336.557 250.928 336.525 245.201C336.493 239.473 301.936 235.026 259.339 235.266C216.743 235.507 182.239 240.345 182.271 246.072C182.303 251.799 216.86 256.247 259.456 256.006Z" fill="#E8F1F8"/>
<path opacity="0.5" d="M259.082 256.006C301.471 255.767 335.808 250.93 335.776 245.203C335.744 239.476 301.354 235.027 258.965 235.266C216.576 235.506 182.239 240.343 182.271 246.07C182.303 251.797 216.693 256.246 259.082 256.006Z" fill="#E8F1F7"/>
<path opacity="0.5" d="M258.707 255.882C300.889 255.643 335.059 250.863 335.027 245.205C334.995 239.547 300.774 235.153 258.591 235.391C216.409 235.63 182.239 240.41 182.271 246.068C182.302 251.726 216.524 256.12 258.707 255.882Z" fill="#E7F0F7"/>
<path opacity="0.5" d="M258.457 255.881C300.433 255.644 334.435 250.865 334.403 245.207C334.371 239.549 300.317 235.154 258.342 235.391C216.366 235.628 182.364 240.407 182.396 246.065C182.427 251.724 216.481 256.118 258.457 255.881Z" fill="#E6F0F7"/>
<path opacity="0.5" d="M258.082 255.757C299.851 255.521 333.686 250.798 333.654 245.209C333.623 239.62 299.737 235.28 257.968 235.516C216.199 235.752 182.364 240.474 182.395 246.064C182.427 251.653 216.313 255.992 258.082 255.757Z" fill="#E6EFF7"/>
<path opacity="0.5" d="M257.707 255.757C299.27 255.522 332.937 250.801 332.905 245.212C332.874 239.622 299.156 235.282 257.593 235.516C216.031 235.751 182.364 240.472 182.395 246.062C182.427 251.651 216.145 255.991 257.707 255.757Z" fill="#E5EFF7"/>
<path opacity="0.5" d="M257.457 255.631C298.744 255.398 332.188 250.734 332.157 245.214C332.126 239.694 298.631 235.408 257.345 235.641C216.058 235.874 182.614 240.538 182.645 246.058C182.676 251.578 216.171 255.864 257.457 255.631Z" fill="#E4EFF6"/>
<path opacity="0.5" d="M257.083 255.632C298.163 255.4 331.439 250.736 331.408 245.216C331.377 239.696 298.05 235.409 256.97 235.641C215.891 235.873 182.614 240.536 182.645 246.056C182.676 251.577 216.003 255.864 257.083 255.632Z" fill="#E4EEF6"/>
<path opacity="0.5" d="M256.709 255.632C297.581 255.401 330.69 250.739 330.659 245.219C330.628 239.698 297.469 235.41 256.596 235.641C215.723 235.872 182.614 240.534 182.645 246.055C182.676 251.575 215.836 255.863 256.709 255.632Z" fill="#E3EEF6"/>
<path opacity="0.5" d="M256.333 255.507C296.999 255.277 329.941 250.672 329.91 245.221C329.879 239.77 296.888 235.537 256.222 235.766C215.556 235.996 182.614 240.601 182.645 246.053C182.676 251.504 215.667 255.737 256.333 255.507Z" fill="#E2EDF6"/>
<path opacity="0.5" d="M256.084 255.506C296.543 255.278 329.317 250.674 329.286 245.222C329.256 239.771 296.432 235.537 255.973 235.766C215.513 235.994 182.739 240.599 182.77 246.05C182.801 251.501 215.624 255.735 256.084 255.506Z" fill="#E1EDF6"/>
<path opacity="0.5" d="M255.708 255.382C295.961 255.154 328.568 250.607 328.537 245.225C328.507 239.843 295.851 235.664 255.599 235.891C215.346 236.118 182.739 240.666 182.77 246.048C182.8 251.43 215.456 255.609 255.708 255.382Z" fill="#E1ECF5"/>
<path opacity="0.5" d="M255.334 255.382C295.38 255.156 327.819 250.609 327.789 245.227C327.758 239.845 295.27 235.665 255.224 235.891C215.178 236.117 182.739 240.664 182.77 246.046C182.8 251.428 215.288 255.608 255.334 255.382Z" fill="#E0ECF5"/>
<path opacity="0.5" d="M255.085 255.381C294.924 255.157 327.195 250.611 327.165 245.229C327.134 239.847 294.814 235.666 254.975 235.891C215.136 236.116 182.864 240.661 182.895 246.044C182.925 251.426 215.246 255.606 255.085 255.381Z" fill="#DFECF5"/>
<path opacity="0.5" d="M254.709 255.257C294.342 255.033 326.446 250.544 326.416 245.231C326.386 239.918 294.233 235.792 254.601 236.016C214.969 236.24 182.865 240.728 182.895 246.042C182.924 251.355 215.077 255.48 254.709 255.257Z" fill="#DFEBF5"/>
<path opacity="0.5" d="M254.335 255.257C293.76 255.034 325.697 250.547 325.667 245.233C325.637 239.92 293.652 235.794 254.226 236.016C214.801 236.239 182.865 240.727 182.895 246.04C182.924 251.353 214.909 255.48 254.335 255.257Z" fill="#DEEBF4"/>
<path opacity="0.5" d="M254.085 255.131C293.303 254.91 325.072 250.479 325.043 245.235C325.013 239.991 293.196 235.919 253.978 236.14C214.759 236.362 182.99 240.793 183.019 246.037C183.049 251.281 214.866 255.353 254.085 255.131Z" fill="#DDEAF4"/>
<path opacity="0.5" d="M253.71 255.132C292.653 254.912 324.199 250.482 324.169 245.238C324.14 239.994 292.546 235.921 253.603 236.141C214.66 236.361 183.115 240.79 183.144 246.035C183.174 251.279 214.767 255.352 253.71 255.132Z" fill="#DCEAF4"/>
<path opacity="0.5" d="M253.335 255.007C292.071 254.788 323.45 250.416 323.42 245.24C323.391 240.065 291.966 236.047 253.229 236.266C214.493 236.485 183.115 240.857 183.144 246.033C183.173 251.208 214.599 255.226 253.335 255.007Z" fill="#DCE9F4"/>
<path opacity="0.5" d="M252.961 255.007C291.49 254.79 322.701 250.418 322.672 245.243C322.642 240.067 291.385 236.049 252.855 236.266C214.326 236.484 183.115 240.855 183.144 246.031C183.173 251.206 214.431 255.225 252.961 255.007Z" fill="#DBE9F3"/>
<path opacity="0.5" d="M252.711 255.007C291.034 254.79 322.077 250.42 322.048 245.244C322.019 240.069 290.928 236.049 252.606 236.266C214.283 236.482 183.24 240.853 183.269 246.028C183.298 251.203 214.389 255.223 252.711 255.007Z" fill="#DAE8F3"/>
<path opacity="0.5" d="M252.336 254.882C290.452 254.667 321.328 250.353 321.299 245.247C321.27 240.14 290.348 236.176 252.232 236.391C214.116 236.606 183.24 240.92 183.269 246.026C183.298 251.132 214.22 255.097 252.336 254.882Z" fill="#D9E8F3"/>
<path opacity="0.5" d="M251.962 254.882C289.871 254.668 320.579 250.355 320.55 245.249C320.521 240.143 289.766 236.177 251.857 236.391C213.948 236.605 183.24 240.918 183.269 246.024C183.298 251.13 214.052 255.096 251.962 254.882Z" fill="#D8E7F3"/>
<path opacity="0.5" d="M251.711 254.757C289.414 254.544 319.954 250.288 319.926 245.251C319.898 240.213 289.311 236.303 251.608 236.515C213.906 236.728 183.365 240.984 183.394 246.022C183.422 251.059 214.009 254.97 251.711 254.757Z" fill="#D8E7F2"/>
<path opacity="0.5" d="M251.337 254.757C288.832 254.545 319.206 250.29 319.177 245.253C319.149 240.216 288.73 236.304 251.234 236.516C213.738 236.727 183.365 240.982 183.394 246.02C183.422 251.057 213.841 254.969 251.337 254.757Z" fill="#D7E6F2"/>
<path opacity="0.5" d="M250.962 254.757C288.251 254.547 318.457 250.292 318.428 245.255C318.4 240.218 288.148 236.305 250.86 236.516C213.571 236.726 183.365 240.981 183.394 246.018C183.422 251.055 213.674 254.968 250.962 254.757Z" fill="#D6E6F2"/>
<path opacity="0.5" d="M250.712 254.632C287.794 254.422 317.832 250.225 317.804 245.257C317.776 240.289 287.693 236.431 250.611 236.64C213.529 236.85 183.49 241.047 183.518 246.015C183.546 250.984 213.63 254.841 250.712 254.632Z" fill="#D5E5F2"/>
<path opacity="0.5" d="M250.338 254.632C287.213 254.424 317.084 250.227 317.056 245.259C317.028 240.291 287.112 236.432 250.236 236.641C213.361 236.849 183.49 241.045 183.518 246.013C183.546 250.982 213.462 254.84 250.338 254.632Z" fill="#D4E5F1"/>
<path opacity="0.5" d="M249.963 254.507C286.562 254.301 316.21 250.161 316.182 245.262C316.154 240.363 286.462 236.559 249.863 236.766C213.263 236.972 183.616 241.112 183.643 246.011C183.671 250.91 213.363 254.714 249.963 254.507Z" fill="#D4E4F1"/>
<path opacity="0.5" d="M249.588 254.507C285.981 254.302 315.461 250.164 315.433 245.265C315.406 240.365 285.881 236.56 249.488 236.766C213.095 236.971 183.616 241.11 183.643 246.009C183.671 250.908 213.195 254.713 249.588 254.507Z" fill="#D3E4F1"/>
<path opacity="0.5" d="M249.338 254.507C285.524 254.303 314.836 250.165 314.809 245.266C314.781 240.367 285.424 236.561 249.238 236.765C213.052 236.97 183.74 241.107 183.768 246.006C183.795 250.905 213.152 254.711 249.338 254.507Z" fill="#D2E3F0"/>
<path opacity="0.5" d="M248.963 254.382C284.943 254.179 314.087 250.099 314.06 245.268C314.033 240.438 284.844 236.687 248.865 236.891C212.886 237.094 183.741 241.174 183.768 246.004C183.795 250.835 212.984 254.585 248.963 254.382Z" fill="#D1E3F0"/>
<path opacity="0.5" d="M248.589 254.383C284.361 254.18 313.339 250.101 313.311 245.271C313.284 240.441 284.263 236.689 248.49 236.891C212.718 237.093 183.741 241.172 183.768 246.003C183.795 250.833 212.817 254.585 248.589 254.383Z" fill="#D0E2F0"/>
<path opacity="0.5" d="M248.339 254.257C283.904 254.056 312.714 250.034 312.687 245.273C312.661 240.511 283.807 236.814 248.242 237.015C212.676 237.216 183.866 241.239 183.893 246C183.92 250.761 212.773 254.458 248.339 254.257Z" fill="#CFE2F0"/>
<path opacity="0.5" d="M247.964 254.257C283.323 254.058 311.965 250.036 311.939 245.275C311.912 240.514 283.226 236.816 247.867 237.016C212.508 237.215 183.866 241.237 183.893 245.998C183.92 250.759 212.605 254.457 247.964 254.257Z" fill="#CEE1EF"/>
<path opacity="0.5" d="M247.59 254.258C282.742 254.059 311.217 250.094 311.191 245.402C311.164 240.71 282.646 237.067 247.494 237.266C212.342 237.464 183.867 241.429 183.894 246.121C183.92 250.813 212.438 254.456 247.59 254.258Z" fill="#CEE1EF"/>
<path opacity="0.5" d="M247.34 254.257C282.285 254.06 310.593 250.096 310.566 245.404C310.54 240.712 282.19 237.068 247.244 237.265C212.299 237.462 183.992 241.426 184.018 246.118C184.045 250.811 212.395 254.454 247.34 254.257Z" fill="#CDE0EF"/>
<path opacity="0.5" d="M246.966 254.257C281.704 254.061 309.844 250.098 309.818 245.406C309.791 240.714 281.608 237.069 246.87 237.265C212.131 237.462 183.992 241.424 184.018 246.117C184.045 250.809 212.227 254.453 246.966 254.257Z" fill="#CCE0EF"/>
<path opacity="0.5" d="M246.591 254.132C281.123 253.937 309.095 250.032 309.069 245.408C309.043 240.785 281.028 237.195 246.497 237.391C211.965 237.586 183.992 241.491 184.018 246.115C184.044 250.738 212.059 254.328 246.591 254.132Z" fill="#CBDFEE"/>
<path opacity="0.5" d="M246.216 254.133C280.472 253.939 308.221 250.035 308.195 245.411C308.169 240.788 280.378 237.197 246.122 237.391C211.866 237.584 184.117 241.489 184.143 246.112C184.169 250.735 211.96 254.326 246.216 254.133Z" fill="#CADFEE"/>
<path opacity="0.5" d="M245.966 254.007C280.015 253.815 307.597 249.967 307.571 245.413C307.545 240.859 279.922 237.323 245.873 237.515C211.824 237.707 184.242 241.555 184.268 246.109C184.293 250.663 211.917 254.199 245.966 254.007Z" fill="#C9DEEE"/>
<path opacity="0.5" d="M245.591 254.007C279.434 253.816 306.848 249.97 306.822 245.415C306.797 240.861 279.341 237.324 245.498 237.515C211.656 237.706 184.242 241.553 184.268 246.107C184.293 250.662 211.749 254.199 245.591 254.007Z" fill="#C8DEED"/>
<path opacity="0.5" d="M245.217 254.008C278.853 253.818 306.099 249.972 306.073 245.418C306.048 240.863 278.76 237.326 245.124 237.516C211.488 237.706 184.242 241.551 184.268 246.106C184.293 250.66 211.581 254.198 245.217 254.008Z" fill="#C7DDED"/>
<path opacity="0.5" d="M244.967 253.882C278.396 253.693 305.475 249.904 305.449 245.419C305.424 240.934 278.304 237.451 244.875 237.64C211.446 237.829 184.367 241.618 184.392 246.103C184.418 250.588 211.538 254.071 244.967 253.882Z" fill="#C6DCED"/>
<path opacity="0.5" d="M244.592 253.882C277.814 253.695 304.726 249.907 304.701 245.422C304.675 240.936 277.723 237.453 244.501 237.64C211.279 237.828 184.367 241.616 184.392 246.101C184.418 250.586 211.37 254.07 244.592 253.882Z" fill="#C6DCED"/>
<path opacity="0.5" d="M244.217 253.758C277.232 253.571 303.977 249.84 303.952 245.424C303.927 241.008 277.142 237.579 244.127 237.765C211.111 237.952 184.367 241.683 184.392 246.099C184.417 250.515 211.202 253.944 244.217 253.758Z" fill="#C5DBEC"/>
<path opacity="0.5" d="M243.968 253.757C276.776 253.572 303.353 249.842 303.328 245.425C303.303 241.009 276.686 237.58 243.877 237.765C211.069 237.95 184.492 241.68 184.517 246.097C184.542 250.513 211.159 253.942 243.968 253.757Z" fill="#C4DBEC"/>
<path opacity="0.5" d="M243.592 253.633C276.194 253.448 302.603 249.775 302.579 245.428C302.554 241.081 276.105 237.706 243.504 237.89C210.902 238.074 184.493 241.747 184.517 246.095C184.541 250.442 210.99 253.817 243.592 253.633Z" fill="#C3DAEC"/>
<path opacity="0.5" d="M243.218 253.633C275.613 253.45 301.854 249.777 301.83 245.43C301.805 241.083 275.524 237.707 243.129 237.89C210.734 238.073 184.493 241.746 184.517 246.093C184.542 250.44 210.823 253.816 243.218 253.633Z" fill="#C2DAEB"/>
<path opacity="0.5" d="M242.968 253.632C275.157 253.45 301.231 249.779 301.206 245.432C301.182 241.085 275.068 237.708 242.88 237.89C210.691 238.072 184.618 241.743 184.642 246.09C184.667 250.437 210.78 253.814 242.968 253.632Z" fill="#C1D9EB"/>
<path opacity="0.5" d="M242.593 253.507C274.506 253.327 300.357 249.713 300.333 245.435C300.308 241.157 274.419 237.835 242.506 238.015C210.593 238.195 184.743 241.809 184.767 246.087C184.791 250.366 210.681 253.688 242.593 253.507Z" fill="#C0D8EB"/>
<path opacity="0.5" d="M242.219 253.508C273.925 253.329 299.608 249.715 299.584 245.437C299.56 241.159 273.837 237.836 242.132 238.015C210.426 238.194 184.743 241.807 184.767 246.086C184.791 250.364 210.513 253.687 242.219 253.508Z" fill="#BFD8EA"/>
<path opacity="0.5" d="M241.844 253.383C273.343 253.205 298.858 249.649 298.835 245.439C298.811 241.23 273.257 237.962 241.758 238.14C210.259 238.318 184.743 241.875 184.767 246.084C184.79 250.293 210.345 253.561 241.844 253.383Z" fill="#BED7EA"/>
<path opacity="0.5" d="M241.594 253.382C272.886 253.206 298.235 249.65 298.211 245.441C298.187 241.232 272.801 237.963 241.508 238.14C210.216 238.316 184.868 241.872 184.892 246.081C184.915 250.29 210.302 253.559 241.594 253.382Z" fill="#BDD7EA"/>
<path opacity="0.5" d="M241.22 253.383C272.305 253.207 297.486 249.653 297.462 245.444C297.438 241.234 272.219 237.965 241.134 238.14C210.048 238.316 184.868 241.87 184.892 246.079C184.915 250.288 210.134 253.558 241.22 253.383Z" fill="#BCD6E9"/>
<path opacity="0.5" d="M240.844 253.258C271.723 253.084 296.736 249.586 296.713 245.446C296.69 241.306 271.639 238.091 240.76 238.265C209.881 238.44 184.868 241.937 184.891 246.077C184.915 250.217 209.966 253.432 240.844 253.258Z" fill="#BBD5E9"/>
<path opacity="0.5" d="M240.595 253.257C271.267 253.084 296.113 249.588 296.089 245.447C296.066 241.307 271.183 238.091 240.511 238.265C209.839 238.438 184.993 241.935 185.016 246.075C185.04 250.215 209.923 253.431 240.595 253.257Z" fill="#BAD5E9"/>
<path opacity="0.5" d="M240.22 253.133C270.685 252.961 295.363 249.521 295.34 245.45C295.317 241.379 270.602 238.218 240.137 238.39C209.671 238.562 184.993 242.002 185.016 246.073C185.039 250.144 209.755 253.305 240.22 253.133Z" fill="#B9D4E9"/>
<path opacity="0.5" d="M239.845 253.133C270.104 252.962 294.614 249.523 294.591 245.452C294.568 241.381 270.021 238.219 239.762 238.39C209.504 238.561 184.993 242 185.016 246.071C185.039 250.142 209.587 253.304 239.845 253.133Z" fill="#B8D4E8"/>
<path opacity="0.5" d="M239.595 253.008C269.647 252.838 293.99 249.456 293.967 245.454C293.945 241.451 269.565 238.345 239.513 238.514C209.462 238.684 185.118 242.066 185.141 246.068C185.163 250.07 209.543 253.177 239.595 253.008Z" fill="#B7D3E8"/>
<path opacity="0.5" d="M239.221 253.008C269.065 252.839 293.241 249.458 293.219 245.456C293.196 241.454 268.984 238.346 239.139 238.515C209.294 238.683 185.118 242.064 185.141 246.066C185.163 250.068 209.376 253.176 239.221 253.008Z" fill="#B6D2E8"/>
<path opacity="0.5" d="M238.846 253.008C268.416 252.841 292.368 249.461 292.345 245.459C292.323 241.457 268.334 238.348 238.765 238.515C209.196 238.682 185.243 242.062 185.266 246.064C185.288 250.066 209.277 253.175 238.846 253.008Z" fill="#B5D2E7"/>
<path opacity="0.5" d="M238.471 252.883C267.833 252.717 291.618 249.395 291.596 245.461C291.574 241.528 267.753 238.474 238.391 238.64C209.028 238.806 185.244 242.129 185.266 246.062C185.288 249.995 209.109 253.049 238.471 252.883Z" fill="#B4D1E7"/>
<path opacity="0.5" d="M238.222 252.883C267.377 252.718 290.995 249.396 290.972 245.463C290.95 241.53 267.297 238.475 238.141 238.64C208.986 238.804 185.369 242.126 185.391 246.059C185.413 249.992 209.066 253.047 238.222 252.883Z" fill="#B3D1E7"/>
<path opacity="0.5" d="M237.846 252.758C266.795 252.594 290.245 249.329 290.223 245.465C290.202 241.601 266.716 238.601 237.767 238.765C208.819 238.928 185.369 242.193 185.39 246.057C185.412 249.921 208.898 252.921 237.846 252.758Z" fill="#B2D0E6"/>
<path opacity="0.5" d="M237.472 252.758C266.214 252.596 289.496 249.332 289.475 245.468C289.453 241.603 266.135 238.603 237.393 238.765C208.651 238.927 185.369 242.191 185.391 246.055C185.412 249.92 208.73 252.921 237.472 252.758Z" fill="#B1CFE6"/>
<path opacity="0.5" d="M237.222 252.758C265.757 252.597 288.872 249.333 288.85 245.469C288.828 241.605 265.678 238.603 237.143 238.764C208.608 238.926 185.493 242.189 185.515 246.053C185.537 249.917 208.687 252.919 237.222 252.758Z" fill="#B0CFE6"/>
<path opacity="0.5" d="M236.847 252.633C265.176 252.473 288.123 249.267 288.102 245.472C288.08 241.676 265.098 238.73 236.77 238.89C208.441 239.05 185.494 242.256 185.515 246.051C185.537 249.846 208.519 252.793 236.847 252.633Z" fill="#AFCEE5"/>
<path opacity="0.5" d="M236.473 252.633C264.594 252.474 287.374 249.269 287.353 245.474C287.332 241.679 264.517 238.731 236.395 238.89C208.274 239.049 185.494 242.254 185.515 246.049C185.537 249.844 208.351 252.792 236.473 252.633Z" fill="#AECDE5"/>
<path opacity="0.5" d="M236.223 252.508C264.137 252.35 286.75 249.202 286.729 245.476C286.708 241.75 264.061 238.857 236.146 239.014C208.232 239.172 185.619 242.32 185.64 246.047C185.661 249.773 208.308 252.666 236.223 252.508Z" fill="#ADCDE5"/>
<path opacity="0.5" d="M235.848 252.508C263.556 252.351 286.001 249.204 285.98 245.478C285.959 241.752 263.48 238.858 235.772 239.014C208.064 239.171 185.619 242.318 185.64 246.044C185.661 249.771 208.14 252.664 235.848 252.508Z" fill="#ACCCE4"/>
<path opacity="0.5" d="M235.474 252.508C262.975 252.353 285.252 249.206 285.231 245.48C285.21 241.754 262.899 238.859 235.398 239.015C207.896 239.17 185.619 242.317 185.64 246.043C185.661 249.769 207.972 252.664 235.474 252.508Z" fill="#ABCCE4"/>
<path opacity="0.5" d="M235.098 252.383C262.393 252.229 284.503 249.14 284.482 245.482C284.462 241.825 262.318 238.986 235.024 239.14C207.729 239.294 185.619 242.384 185.64 246.041C185.66 249.698 207.804 252.538 235.098 252.383Z" fill="#AACBE4"/>
<path opacity="0.5" d="M234.849 252.383C261.868 252.23 283.754 249.142 283.734 245.485C283.713 241.828 261.793 238.987 234.775 239.139C207.756 239.292 185.869 242.38 185.89 246.037C185.91 249.695 207.83 252.536 234.849 252.383Z" fill="#A9CAE3"/>
<path opacity="0.5" d="M234.474 252.258C261.286 252.107 283.005 249.075 282.985 245.487C282.965 241.899 261.213 239.113 234.401 239.264C207.589 239.416 185.869 242.447 185.89 246.035C185.91 249.624 207.662 252.41 234.474 252.258Z" fill="#A8CAE3"/>
<path opacity="0.5" d="M234.099 252.259C260.705 252.108 282.256 249.078 282.236 245.49C282.216 241.901 260.632 239.114 234.026 239.265C207.421 239.415 185.869 242.445 185.89 246.034C185.91 249.622 207.494 252.409 234.099 252.259Z" fill="#A7C9E3"/>
<path opacity="0.5" d="M233.849 252.133C260.248 251.984 281.632 249.01 281.612 245.491C281.592 241.972 260.176 239.24 233.777 239.389C207.379 239.538 185.995 242.512 186.014 246.031C186.034 249.55 207.451 252.282 233.849 252.133Z" fill="#A6C8E2"/>
<path opacity="0.5" d="M233.475 252.133C259.666 251.985 280.883 249.013 280.863 245.493C280.843 241.974 259.595 239.241 233.403 239.389C207.211 239.537 185.995 242.51 186.014 246.029C186.034 249.548 207.283 252.281 233.475 252.133Z" fill="#A4C8E2"/>
<path opacity="0.5" d="M233.1 252.133C259.085 251.987 280.134 249.015 280.114 245.496C280.095 241.977 259.013 239.243 233.028 239.39C207.044 239.536 185.995 242.508 186.014 246.027C186.034 249.546 207.115 252.28 233.1 252.133Z" fill="#A3C7E2"/>
<path opacity="0.5" d="M232.85 252.008C258.628 251.862 279.51 248.948 279.49 245.497C279.471 242.047 258.558 239.368 232.78 239.514C207.001 239.66 186.12 242.574 186.139 246.025C186.159 249.475 207.072 252.154 232.85 252.008Z" fill="#A2C6E1"/>
<path opacity="0.5" d="M232.476 252.008C258.047 251.864 278.761 248.95 278.742 245.5C278.722 242.05 257.977 239.37 232.405 239.514C206.834 239.659 186.12 242.573 186.139 246.023C186.159 249.473 206.904 252.153 232.476 252.008Z" fill="#A1C6E1"/>
<path opacity="0.5" d="M232.1 251.884C257.465 251.74 278.012 248.883 277.993 245.502C277.973 242.121 257.396 239.496 232.031 239.639C206.667 239.783 186.12 242.64 186.139 246.021C186.158 249.402 206.736 252.027 232.1 251.884Z" fill="#A0C5E0"/>
<path opacity="0.5" d="M231.726 251.884C256.884 251.742 277.263 248.885 277.244 245.504C277.225 242.123 256.815 239.497 231.657 239.64C206.499 239.782 186.12 242.638 186.139 246.019C186.158 249.4 206.568 252.026 231.726 251.884Z" fill="#9FC4E0"/>
<path opacity="0.5" d="M231.476 251.883C256.428 251.742 276.639 248.887 276.62 245.506C276.601 242.125 256.359 239.498 231.407 239.639C206.456 239.78 186.245 242.635 186.264 246.016C186.283 249.397 206.525 252.024 231.476 251.883Z" fill="#9EC4E0"/>
<path opacity="0.5" d="M231.101 251.759C255.777 251.619 275.765 248.821 275.746 245.509C275.728 242.197 255.709 239.625 231.034 239.764C206.358 239.904 186.37 242.702 186.389 246.014C186.407 249.326 206.426 251.898 231.101 251.759Z" fill="#9DC3DF"/>
<path opacity="0.5" d="M230.727 251.759C255.196 251.621 275.016 248.824 274.998 245.511C274.979 242.199 255.128 239.626 230.659 239.765C206.191 239.903 186.37 242.7 186.389 246.012C186.407 249.324 206.258 251.897 230.727 251.759Z" fill="#9CC2DF"/>
<path opacity="0.5" d="M230.477 251.633C254.738 251.496 274.392 248.756 274.373 245.513C274.355 242.27 254.672 239.752 230.41 239.889C206.149 240.026 186.495 242.766 186.514 246.009C186.532 249.252 206.215 251.77 230.477 251.633Z" fill="#9AC2DF"/>
<path opacity="0.5" d="M230.102 251.634C254.157 251.498 273.643 248.759 273.625 245.515C273.606 242.272 254.091 239.753 230.036 239.889C205.981 240.025 186.495 242.764 186.514 246.007C186.532 249.25 206.047 251.769 230.102 251.634Z" fill="#99C1DE"/>
<path opacity="0.5" d="M229.727 251.509C253.575 251.374 272.894 248.692 272.876 245.518C272.858 242.344 253.51 239.88 229.662 240.014C205.814 240.149 186.495 242.831 186.513 246.005C186.531 249.18 205.879 251.643 229.727 251.509Z" fill="#98C0DE"/>
<path opacity="0.5" d="M229.477 251.508C253.119 251.375 272.27 248.693 272.252 245.519C272.234 242.345 253.054 239.88 229.413 240.014C205.771 240.147 186.62 242.829 186.638 246.003C186.656 249.177 205.836 251.642 229.477 251.508Z" fill="#97BFDE"/>
<path opacity="0.5" d="M229.103 251.508C252.538 251.376 271.521 248.696 271.503 245.522C271.485 242.347 252.473 239.882 229.038 240.014C205.604 240.146 186.62 242.827 186.638 246.001C186.656 249.175 205.668 251.641 229.103 251.508Z" fill="#96BFDD"/>
<path opacity="0.5" d="M228.728 251.384C251.956 251.253 270.771 248.629 270.754 245.524C270.737 242.419 251.892 240.008 228.664 240.139C205.436 240.27 186.621 242.894 186.638 245.999C186.656 249.104 205.5 251.515 228.728 251.384Z" fill="#95BEDD"/>
<path opacity="0.5" d="M228.353 251.384C251.375 251.254 270.023 248.631 270.005 245.526C269.988 242.421 251.311 240.009 228.29 240.139C205.269 240.269 186.621 242.892 186.638 245.997C186.656 249.102 205.332 251.514 228.353 251.384Z" fill="#94BDDC"/>
<path opacity="0.5" d="M228.103 251.259C250.917 251.13 269.398 248.564 269.381 245.528C269.364 242.492 250.855 240.135 228.041 240.264C205.227 240.393 186.746 242.958 186.763 245.995C186.78 249.031 205.289 251.387 228.103 251.259Z" fill="#92BDDC"/>
<path opacity="0.5" d="M227.729 251.259C250.336 251.131 268.649 248.566 268.632 245.53C268.615 242.494 250.274 240.136 227.667 240.264C205.059 240.392 186.746 242.956 186.763 245.992C186.78 249.029 205.121 251.386 227.729 251.259Z" fill="#91BCDC"/>
<path opacity="0.5" d="M227.354 251.259C249.686 251.133 267.776 248.569 267.759 245.533C267.742 242.497 249.624 240.138 227.292 240.264C204.961 240.39 186.871 242.954 186.888 245.99C186.905 249.026 205.022 251.385 227.354 251.259Z" fill="#90BBDB"/>
<path opacity="0.5" d="M227.104 251.133C249.229 251.008 267.152 248.502 267.135 245.535C267.118 242.568 249.169 240.264 227.044 240.389C204.918 240.514 186.996 243.02 187.013 245.987C187.029 248.954 204.979 251.258 227.104 251.133Z" fill="#8FBADB"/>
<path opacity="0.5" d="M226.73 251.134C248.648 251.01 266.403 248.504 266.386 245.537C266.369 242.57 248.588 240.265 226.669 240.389C204.751 240.513 186.996 243.018 187.013 245.985C187.029 248.953 204.811 251.258 226.73 251.134Z" fill="#8EBADB"/>
<path opacity="0.5" d="M226.354 251.009C248.066 250.886 265.653 248.438 265.637 245.54C265.621 242.641 248.007 240.391 226.295 240.514C204.584 240.637 186.996 243.085 187.012 245.984C187.029 248.882 204.643 251.132 226.354 251.009Z" fill="#8DB9DA"/>
<path opacity="0.5" d="M226.105 251.009C247.61 250.887 265.03 248.439 265.013 245.541C264.997 242.643 247.551 240.392 226.046 240.514C204.541 240.635 187.121 243.083 187.137 245.981C187.154 248.879 204.6 251.13 226.105 251.009Z" fill="#8BB8DA"/>
<path opacity="0.5" d="M225.73 250.884C247.028 250.763 264.28 248.373 264.264 245.543C264.248 242.714 246.97 240.518 225.672 240.639C204.374 240.759 187.121 243.15 187.137 245.979C187.153 248.808 204.432 251.004 225.73 250.884Z" fill="#8AB8D9"/>
<path opacity="0.5" d="M225.355 250.884C246.447 250.765 263.531 248.375 263.515 245.546C263.5 242.717 246.389 240.52 225.298 240.639C204.206 240.758 187.121 243.148 187.137 245.977C187.153 248.806 204.264 251.003 225.355 250.884Z" fill="#89B7D9"/>
<path opacity="0.5" d="M225.106 250.883C245.99 250.766 262.908 248.376 262.892 245.547C262.876 242.718 245.933 240.52 225.048 240.638C204.164 240.756 187.246 243.145 187.262 245.974C187.278 248.804 204.221 251.001 225.106 250.883Z" fill="#88B6D9"/>
<path opacity="0.5" d="M224.731 250.759C245.408 250.642 262.158 248.31 262.143 245.55C262.127 242.79 245.352 240.647 224.674 240.764C203.996 240.88 187.246 243.213 187.262 245.973C187.278 248.733 204.053 250.876 224.731 250.759Z" fill="#87B5D8"/>
<path opacity="0.5" d="M224.356 250.759C244.827 250.643 261.409 248.312 261.394 245.552C261.378 242.792 244.771 240.648 224.3 240.764C203.829 240.879 187.246 243.211 187.262 245.971C187.278 248.731 203.885 250.875 224.356 250.759Z" fill="#85B5D8"/>
<path opacity="0.5" d="M223.981 250.634C244.245 250.52 260.66 248.246 260.645 245.555C260.63 242.863 244.19 240.775 223.926 240.889C203.662 241.003 187.247 243.278 187.262 245.969C187.277 248.66 203.717 250.749 223.981 250.634Z" fill="#84B4D8"/>
<path opacity="0.5" d="M223.732 250.634C243.72 250.521 259.912 248.248 259.896 245.557C259.881 242.866 243.665 240.776 223.677 240.888C203.688 241.001 187.497 243.274 187.512 245.966C187.527 248.657 203.743 250.747 223.732 250.634Z" fill="#83B3D7"/>
<path opacity="0.5" d="M223.357 250.634C243.138 250.522 259.162 248.25 259.147 245.559C259.132 242.868 243.083 240.777 223.302 240.889C203.52 241 187.496 243.273 187.511 245.964C187.527 248.655 203.575 250.746 223.357 250.634Z" fill="#82B2D7"/>
<path opacity="0.5" d="M222.982 250.634C242.557 250.524 258.414 248.308 258.399 245.686C258.384 243.064 242.504 241.028 222.929 241.139C203.354 241.249 187.497 243.465 187.512 246.087C187.527 248.709 203.407 250.745 222.982 250.634Z" fill="#81B2D6"/>
<path opacity="0.5" d="M222.733 250.634C242.101 250.524 257.79 248.31 257.775 245.688C257.761 243.066 242.048 241.029 222.679 241.138C203.311 241.248 187.622 243.462 187.637 246.084C187.652 248.706 203.365 250.743 222.733 250.634Z" fill="#7FB1D6"/>
<path opacity="0.5" d="M222.358 250.509C241.519 250.401 257.041 248.243 257.026 245.69C257.012 243.137 241.467 241.155 222.306 241.263C203.144 241.372 187.623 243.529 187.637 246.082C187.651 248.635 203.196 250.617 222.358 250.509Z" fill="#7EB0D6"/>
<path opacity="0.5" d="M221.983 250.509C240.938 250.402 256.292 248.246 256.277 245.693C256.263 243.14 240.886 241.157 221.931 241.264C202.977 241.371 187.622 243.527 187.637 246.08C187.651 248.633 203.029 250.616 221.983 250.509Z" fill="#7DAFD5"/>
<path opacity="0.5" d="M221.734 250.509C240.482 250.403 255.668 248.247 255.654 245.694C255.639 243.141 240.429 241.157 221.682 241.263C202.934 241.369 187.747 243.525 187.762 246.078C187.776 248.631 202.986 250.615 221.734 250.509Z" fill="#7CAFD5"/>
<path opacity="0.5" d="M221.358 250.384C239.9 250.279 254.919 248.181 254.905 245.697C254.891 243.212 239.849 241.284 221.308 241.388C202.767 241.493 187.748 243.592 187.762 246.076C187.776 248.56 202.817 250.489 221.358 250.384Z" fill="#7AAED4"/>
<path opacity="0.5" d="M220.984 250.384C239.318 250.281 254.17 248.183 254.156 245.699C254.142 243.215 239.268 241.285 220.933 241.388C202.599 241.492 187.748 243.59 187.762 246.074C187.776 248.558 202.65 250.488 220.984 250.384Z" fill="#79ADD4"/>
<path opacity="0.5" d="M220.609 250.26C238.737 250.157 253.421 248.116 253.407 245.701C253.394 243.286 238.687 241.411 220.56 241.514C202.433 241.616 187.748 243.657 187.762 246.072C187.776 248.487 202.482 250.362 220.609 250.26Z" fill="#78ACD4"/>
<path opacity="0.5" d="M220.359 250.259C238.28 250.158 252.797 248.118 252.783 245.703C252.769 243.288 238.231 241.412 220.31 241.513C202.389 241.614 187.873 243.654 187.886 246.069C187.9 248.485 202.439 250.36 220.359 250.259Z" fill="#77ACD3"/>
<path opacity="0.5" d="M219.984 250.134C237.629 250.035 251.923 248.052 251.909 245.706C251.896 243.36 237.581 241.539 219.936 241.638C202.291 241.738 187.998 243.721 188.011 246.067C188.024 248.413 202.339 250.234 219.984 250.134Z" fill="#75ABD3"/>
<path opacity="0.5" d="M219.61 250.134C237.048 250.036 251.174 248.054 251.161 245.708C251.147 243.362 237 241.54 219.562 241.638C202.124 241.737 187.998 243.719 188.011 246.065C188.024 248.411 202.172 250.233 219.61 250.134Z" fill="#74AAD2"/>
<path opacity="0.5" d="M219.36 250.134C236.591 250.037 250.549 248.056 250.536 245.71C250.523 243.364 236.543 241.541 219.312 241.638C202.081 241.735 188.123 243.716 188.136 246.062C188.149 248.408 202.129 250.231 219.36 250.134Z" fill="#73A9D2"/>
<path opacity="0.5" d="M218.985 250.009C236.01 249.913 249.801 247.989 249.788 245.712C249.775 243.435 235.963 241.667 218.939 241.763C201.914 241.859 188.123 243.783 188.136 246.06C188.149 248.337 201.96 250.105 218.985 250.009Z" fill="#72A8D2"/>
<path opacity="0.5" d="M218.611 250.009C235.429 249.915 249.052 247.992 249.039 245.715C249.026 243.437 235.382 241.668 218.564 241.763C201.746 241.858 188.123 243.781 188.136 246.058C188.149 248.336 201.793 250.104 218.611 250.009Z" fill="#70A8D1"/>
<path opacity="0.5" d="M218.36 249.884C234.971 249.79 248.427 247.924 248.415 245.716C248.402 243.508 234.926 241.794 218.315 241.888C201.704 241.982 188.248 243.848 188.261 246.056C188.273 248.264 201.749 249.978 218.36 249.884Z" fill="#6FA7D1"/>
<path opacity="0.5" d="M217.986 249.884C234.39 249.792 247.679 247.926 247.666 245.718C247.654 243.51 234.345 241.795 217.941 241.888C201.537 241.981 188.248 243.846 188.261 246.054C188.273 248.262 201.582 249.977 217.986 249.884Z" fill="#6EA6D0"/>
<path opacity="0.5" d="M217.612 249.884C233.809 249.793 246.93 247.929 246.917 245.721C246.905 243.513 233.764 241.797 217.567 241.888C201.369 241.98 188.248 243.844 188.261 246.052C188.273 248.26 201.414 249.976 217.612 249.884Z" fill="#6CA5D0"/>
<path opacity="0.5" d="M217.236 249.76C233.227 249.67 246.18 247.862 246.168 245.723C246.156 243.584 233.183 241.923 217.193 242.014C201.202 242.104 188.249 243.911 188.261 246.05C188.273 248.189 201.245 249.85 217.236 249.76Z" fill="#6BA5CF"/>
<path opacity="0.5" d="M216.987 249.759C232.771 249.67 245.557 247.864 245.544 245.725C245.532 243.586 232.727 241.924 216.943 242.013C201.159 242.102 188.374 243.909 188.386 246.048C188.398 248.187 201.203 249.848 216.987 249.759Z" fill="#6AA4CF"/>
<path opacity="0.5" d="M216.612 249.634C232.189 249.547 244.807 247.797 244.795 245.727C244.784 243.657 232.147 242.05 216.569 242.138C200.992 242.226 188.374 243.975 188.385 246.046C188.397 248.116 201.034 249.722 216.612 249.634Z" fill="#68A3CF"/>
<path opacity="0.5" d="M216.237 249.635C231.539 249.548 243.934 247.8 243.922 245.73C243.91 243.66 231.497 242.052 216.195 242.138C200.894 242.225 188.499 243.973 188.51 246.043C188.522 248.113 200.936 249.721 216.237 249.635Z" fill="#67A2CE"/>
<path opacity="0.5" d="M215.987 249.509C231.082 249.424 243.309 247.733 243.298 245.732C243.287 243.731 231.041 242.178 215.946 242.263C200.851 242.348 188.624 244.039 188.635 246.04C188.646 248.041 200.892 249.595 215.987 249.509Z" fill="#66A1CE"/>
<path opacity="0.5" d="M215.613 249.51C230.501 249.425 242.56 247.735 242.549 245.734C242.538 243.733 230.46 242.179 215.572 242.263C200.684 242.347 188.624 244.037 188.635 246.039C188.646 248.04 200.725 249.594 215.613 249.51Z" fill="#65A1CD"/>
<path opacity="0.5" d="M215.238 249.51C229.919 249.427 241.812 247.737 241.8 245.736C241.789 243.735 229.879 242.18 215.197 242.263C200.516 242.346 188.624 244.036 188.635 246.037C188.646 248.038 200.557 249.593 215.238 249.51Z" fill="#63A0CD"/>
<path opacity="0.5" d="M214.988 249.384C229.462 249.303 241.187 247.67 241.176 245.738C241.165 243.806 229.423 242.306 214.948 242.388C200.474 242.469 188.749 244.102 188.76 246.034C188.771 247.966 200.513 249.466 214.988 249.384Z" fill="#629FCC"/>
<path opacity="0.5" d="M214.613 249.385C228.881 249.304 240.438 247.672 240.428 245.74C240.417 243.808 228.842 242.307 214.574 242.388C200.306 242.468 188.749 244.1 188.76 246.032C188.771 247.964 200.346 249.465 214.613 249.385Z" fill="#619ECC"/>
<path opacity="0.5" d="M214.238 249.26C228.299 249.18 239.689 247.606 239.679 245.743C239.668 243.88 228.261 242.434 214.2 242.513C200.139 242.592 188.749 244.167 188.76 246.03C188.77 247.893 200.177 249.339 214.238 249.26Z" fill="#5F9DCC"/>
<path opacity="0.5" d="M213.864 249.26C227.718 249.182 238.94 247.608 238.93 245.745C238.919 243.882 227.68 242.435 213.826 242.513C199.972 242.591 188.749 244.165 188.76 246.028C188.77 247.891 200.01 249.338 213.864 249.26Z" fill="#5E9CCB"/>
<path opacity="0.5" d="M213.614 249.259C227.262 249.182 238.316 247.61 238.306 245.747C238.295 243.883 227.224 242.436 213.576 242.513C199.929 242.59 188.874 244.163 188.885 246.026C188.895 247.889 199.967 249.337 213.614 249.259Z" fill="#5D9CCB"/>
<path opacity="0.5" d="M213.239 249.135C226.68 249.059 237.567 247.543 237.557 245.749C237.547 243.955 226.643 242.562 213.202 242.638C199.762 242.714 188.874 244.23 188.885 246.024C188.895 247.818 199.799 249.211 213.239 249.135Z" fill="#5B9BCA"/>
<path opacity="0.5" d="M212.865 249.135C226.098 249.06 236.818 247.545 236.808 245.751C236.798 243.957 226.062 242.563 212.828 242.638C199.594 242.713 188.874 244.228 188.885 246.022C188.895 247.816 199.631 249.21 212.865 249.135Z" fill="#5A9ACA"/>
<path opacity="0.5" d="M212.614 249.01C225.573 248.936 236.069 247.479 236.059 245.754C236.05 244.029 225.537 242.689 212.579 242.763C199.621 242.836 189.125 244.293 189.134 246.019C189.144 247.744 199.656 249.083 212.614 249.01Z" fill="#5899C9"/>
<path opacity="0.5" d="M212.24 249.01C224.991 248.938 235.32 247.481 235.311 245.756C235.301 244.031 224.956 242.691 212.205 242.763C199.454 242.835 189.125 244.292 189.134 246.017C189.144 247.742 199.489 249.082 212.24 249.01Z" fill="#5798C9"/>
<path opacity="0.5" d="M211.865 248.885C224.409 248.814 234.571 247.414 234.562 245.758C234.552 244.102 224.375 242.817 211.831 242.888C199.286 242.959 189.125 244.359 189.134 246.015C189.143 247.671 199.32 248.956 211.865 248.885Z" fill="#5697C9"/>
<path opacity="0.5" d="M211.615 248.885C223.953 248.815 233.947 247.416 233.937 245.76C233.928 244.104 223.919 242.818 211.581 242.887C199.243 242.957 189.249 244.356 189.259 246.012C189.268 247.668 199.277 248.954 211.615 248.885Z" fill="#5497C8"/>
<path opacity="0.5" d="M211.24 248.885C223.371 248.816 233.198 247.418 233.189 245.762C233.179 244.106 223.338 242.819 211.207 242.888C199.076 242.956 189.249 244.354 189.259 246.01C189.268 247.666 199.11 248.953 211.24 248.885Z" fill="#5396C8"/>
<path opacity="0.5" d="M210.866 248.76C222.79 248.693 232.449 247.352 232.44 245.765C232.431 244.177 222.757 242.946 210.833 243.013C198.909 243.08 189.25 244.421 189.259 246.008C189.268 247.595 198.941 248.827 210.866 248.76Z" fill="#5295C7"/>
<path opacity="0.5" d="M210.616 248.76C222.333 248.693 231.825 247.353 231.816 245.766C231.807 244.179 222.301 242.946 210.583 243.012C198.866 243.078 189.374 244.419 189.383 246.006C189.392 247.593 198.898 248.826 210.616 248.76Z" fill="#5094C7"/>
<path opacity="0.5" d="M210.241 248.635C221.751 248.57 231.076 247.287 231.067 245.768C231.059 244.25 221.721 243.072 210.21 243.137C198.699 243.202 189.375 244.486 189.384 246.004C189.392 247.522 198.73 248.7 210.241 248.635Z" fill="#4F93C6"/>
<path opacity="0.5" d="M209.867 248.635C221.17 248.571 230.327 247.289 230.318 245.771C230.31 244.253 221.139 243.074 209.836 243.138C198.532 243.202 189.375 244.484 189.384 246.002C189.392 247.52 198.563 248.699 209.867 248.635Z" fill="#4E92C6"/>
<path opacity="0.5" d="M209.492 248.635C220.589 248.573 229.578 247.291 229.57 245.773C229.561 244.255 220.558 243.075 209.461 243.138C198.364 243.201 189.375 244.482 189.384 246C189.392 247.518 198.395 248.698 209.492 248.635Z" fill="#4C92C5"/>
<path opacity="0.5" d="M209.242 248.51C220.132 248.448 228.954 247.224 228.946 245.775C228.937 244.326 220.102 243.201 209.212 243.262C198.322 243.324 189.5 244.548 189.508 245.997C189.517 247.446 198.352 248.571 209.242 248.51Z" fill="#4B91C5"/>
<path opacity="0.5" d="M208.867 248.51C219.482 248.45 228.08 247.227 228.072 245.778C228.063 244.329 219.452 243.203 208.838 243.263C198.223 243.323 189.625 244.546 189.633 245.995C189.641 247.444 198.253 248.57 208.867 248.51Z" fill="#4990C5"/>
<path opacity="0.5" d="M208.492 248.385C218.9 248.327 227.331 247.16 227.323 245.78C227.315 244.4 218.872 243.329 208.464 243.388C198.056 243.446 189.625 244.613 189.633 245.993C189.641 247.373 198.084 248.444 208.492 248.385Z" fill="#488FC4"/>
<path opacity="0.5" d="M208.243 248.385C218.444 248.327 226.707 247.162 226.699 245.782C226.692 244.402 218.416 243.33 208.215 243.387C198.014 243.445 189.75 244.61 189.758 245.99C189.766 247.37 198.042 248.442 208.243 248.385Z" fill="#478EC4"/>
<path opacity="0.5" d="M207.868 248.26C217.862 248.204 225.958 247.095 225.95 245.784C225.943 244.473 217.835 243.456 207.841 243.512C197.847 243.569 189.751 244.677 189.758 245.988C189.765 247.299 197.873 248.316 207.868 248.26Z" fill="#458DC3"/>
<path opacity="0.5" d="M207.493 248.26C217.281 248.205 225.209 247.097 225.201 245.786C225.194 244.475 217.254 243.457 207.466 243.513C197.679 243.568 189.751 244.675 189.758 245.987C189.765 247.298 197.706 248.316 207.493 248.26Z" fill="#448CC3"/>
<path opacity="0.5" d="M207.243 248.26C216.824 248.206 224.585 247.099 224.577 245.788C224.57 244.477 216.797 243.458 207.216 243.512C197.636 243.566 189.875 244.673 189.883 245.984C189.89 247.295 197.663 248.314 207.243 248.26Z" fill="#428CC2"/>
<path opacity="0.5" d="M206.868 248.135C216.242 248.082 223.836 247.032 223.829 245.79C223.822 244.548 216.217 243.584 206.843 243.637C197.469 243.69 189.876 244.74 189.883 245.982C189.89 247.224 197.494 248.188 206.868 248.135Z" fill="#418BC2"/>
<path opacity="0.5" d="M206.494 248.135C215.661 248.084 223.087 247.035 223.08 245.793C223.073 244.551 215.636 243.586 206.469 243.637C197.302 243.689 189.876 244.738 189.883 245.98C189.89 247.222 197.327 248.187 206.494 248.135Z" fill="#3F8AC1"/>
<path opacity="0.5" d="M206.119 248.011C215.079 247.96 222.337 246.968 222.331 245.795C222.324 244.622 215.055 243.712 206.095 243.763C197.134 243.813 189.876 244.805 189.883 245.978C189.889 247.151 197.158 248.061 206.119 248.011Z" fill="#3E89C1"/>
<path opacity="0.5" d="M205.869 248.01C214.623 247.961 221.714 246.97 221.707 245.797C221.7 244.624 214.599 243.713 205.845 243.762C197.092 243.811 190.001 244.802 190.008 245.976C190.014 247.149 197.116 248.059 205.869 248.01Z" fill="#3D88C0"/>
<path opacity="0.5" d="M205.495 248.01C214.042 247.962 220.965 246.972 220.958 245.799C220.952 244.626 214.018 243.714 205.471 243.762C196.924 243.811 190.001 244.801 190.008 245.974C190.014 247.147 196.948 248.059 205.495 248.01Z" fill="#3B87C0"/>
<path opacity="0.5" d="M205.12 247.886C213.46 247.838 220.215 246.905 220.209 245.801C220.203 244.697 213.437 243.84 205.097 243.887C196.757 243.935 190.001 244.868 190.007 245.972C190.014 247.076 196.78 247.933 205.12 247.886Z" fill="#3A86C0"/>
<path opacity="0.5" d="M204.87 247.885C212.934 247.84 219.467 246.908 219.46 245.804C219.454 244.7 212.912 243.841 204.847 243.887C196.783 243.933 190.251 244.864 190.257 245.969C190.263 247.073 196.806 247.931 204.87 247.885Z" fill="#3885BF"/>
<path opacity="0.5" d="M204.495 247.76C212.353 247.716 218.718 246.841 218.712 245.806C218.706 244.771 212.331 243.968 204.474 244.012C196.616 244.057 190.251 244.932 190.257 245.967C190.263 247.002 196.637 247.805 204.495 247.76Z" fill="#3784BF"/>
<path opacity="0.5" d="M204.121 247.761C211.771 247.717 217.969 246.843 217.963 245.808C217.957 244.773 211.75 243.969 204.1 244.012C196.449 244.056 190.251 244.93 190.257 245.965C190.263 247 196.47 247.804 204.121 247.761Z" fill="#3584BE"/>
<path opacity="0.5" d="M203.871 247.76C211.315 247.718 217.344 246.845 217.339 245.81C217.333 244.775 211.294 243.97 203.85 244.012C196.406 244.054 190.376 244.927 190.382 245.962C190.387 246.997 196.427 247.802 203.871 247.76Z" fill="#3483BE"/>
<path opacity="0.5" d="M203.496 247.635C210.733 247.595 216.596 246.778 216.59 245.812C216.585 244.846 210.713 244.096 203.476 244.137C196.239 244.178 190.376 244.994 190.382 245.96C190.387 246.926 196.259 247.676 203.496 247.635Z" fill="#3282BD"/>
<path opacity="0.5" d="M203.121 247.636C210.152 247.596 215.847 246.78 215.841 245.814C215.836 244.848 210.132 244.097 203.102 244.137C196.071 244.177 190.376 244.992 190.382 245.958C190.387 246.924 196.091 247.675 203.121 247.636Z" fill="#3181BD"/>
<path opacity="0.5" d="M202.746 247.511C209.57 247.472 215.097 246.714 215.092 245.817C215.087 244.92 209.552 244.224 202.728 244.262C195.904 244.301 190.377 245.059 190.382 245.956C190.387 246.853 195.923 247.549 202.746 247.511Z" fill="#2F80BC"/>
<path opacity="0.5" d="M202.497 247.51C209.114 247.473 214.474 246.715 214.468 245.818C214.463 244.921 209.095 244.225 202.478 244.262C195.862 244.299 190.502 245.057 190.507 245.954C190.512 246.851 195.88 247.548 202.497 247.51Z" fill="#2E7FBC"/>
<path opacity="0.5" d="M202.121 247.386C208.532 247.349 213.724 246.649 213.719 245.821C213.715 244.993 208.515 244.351 202.105 244.387C195.694 244.423 190.502 245.124 190.506 245.952C190.511 246.78 195.711 247.422 202.121 247.386Z" fill="#2C7EBB"/>
<path opacity="0.5" d="M201.747 247.386C207.95 247.351 212.975 246.651 212.971 245.823C212.966 244.995 207.933 244.352 201.73 244.387C195.527 244.422 190.502 245.122 190.506 245.95C190.511 246.778 195.544 247.421 201.747 247.386Z" fill="#2B7DBB"/>
<path opacity="0.5" d="M201.497 247.385C207.494 247.352 212.351 246.653 212.346 245.825C212.342 244.997 207.477 244.353 201.48 244.387C195.484 244.421 190.626 245.119 190.631 245.947C190.636 246.775 195.501 247.419 201.497 247.385Z" fill="#2A7CBA"/>
<path opacity="0.5" d="M201.122 247.261C206.843 247.228 211.477 246.587 211.473 245.828C211.468 245.069 206.827 244.48 201.107 244.512C195.386 244.544 190.752 245.186 190.756 245.945C190.76 246.704 195.401 247.293 201.122 247.261Z" fill="#287BBA"/>
<path opacity="0.5" d="M200.748 247.261C206.262 247.23 210.728 246.589 210.724 245.83C210.72 245.071 206.246 244.481 200.732 244.512C195.218 244.543 190.752 245.184 190.756 245.943C190.76 246.702 195.234 247.292 200.748 247.261Z" fill="#277BB9"/>
<path opacity="0.5" d="M200.498 247.135C205.805 247.105 210.104 246.522 210.1 245.832C210.097 245.142 205.791 244.607 200.484 244.636C195.176 244.666 190.877 245.25 190.881 245.94C190.885 246.63 195.191 247.165 200.498 247.135Z" fill="#257AB9"/>
<path opacity="0.5" d="M200.123 247.136C205.223 247.107 209.355 246.524 209.351 245.834C209.347 245.144 205.209 244.608 200.109 244.637C195.008 244.666 190.877 245.248 190.881 245.938C190.884 246.628 195.022 247.164 200.123 247.136Z" fill="#2479B8"/>
<path opacity="0.5" d="M199.748 247.136C204.642 247.108 208.606 246.526 208.602 245.836C208.598 245.146 204.628 244.609 199.734 244.637C194.841 244.665 190.877 245.246 190.881 245.936C190.884 246.626 194.855 247.163 199.748 247.136Z" fill="#2278B8"/>
<path opacity="0.5" d="M199.374 247.011C204.061 246.985 207.857 246.46 207.854 245.839C207.85 245.218 204.048 244.736 199.361 244.762C194.674 244.789 190.877 245.314 190.881 245.935C190.884 246.556 194.687 247.038 199.374 247.011Z" fill="#2177B7"/>
<path opacity="0.5" d="M199.124 247.011C203.604 246.985 207.233 246.461 207.229 245.84C207.226 245.219 203.591 244.736 199.111 244.762C194.631 244.787 191.002 245.311 191.005 245.932C191.009 246.553 194.644 247.036 199.124 247.011Z" fill="#1F76B7"/>
<path opacity="0.5" d="M198.749 246.886C203.022 246.862 206.484 246.395 206.481 245.843C206.478 245.291 203.011 244.863 198.738 244.887C194.464 244.911 191.003 245.378 191.006 245.93C191.009 246.482 194.476 246.91 198.749 246.886Z" fill="#1E75B6"/>
<path opacity="0.5" d="M198.375 247.011C202.442 246.988 205.736 246.522 205.733 245.97C205.73 245.418 202.43 244.989 198.364 245.012C194.297 245.035 191.003 245.501 191.006 246.053C191.009 246.605 194.308 247.034 198.375 247.011Z" fill="#1C74B6"/>
<path opacity="0.5" d="M198.125 246.886C201.985 246.864 205.111 246.455 205.109 245.972C205.106 245.489 201.975 245.115 198.115 245.136C194.255 245.158 191.128 245.567 191.131 246.05C191.134 246.533 194.265 246.907 198.125 246.886Z" fill="#1A73B6"/>
<path opacity="0.5" d="M197.75 246.886C201.403 246.865 204.363 246.457 204.36 245.974C204.357 245.491 201.393 245.116 197.74 245.137C194.087 245.157 191.128 245.566 191.131 246.049C191.134 246.532 194.097 246.906 197.75 246.886Z" fill="#1972B5"/>
<path opacity="0.5" d="M197.376 246.886C200.753 246.867 203.489 246.46 203.486 245.977C203.484 245.494 200.744 245.118 197.366 245.137C193.989 245.156 191.253 245.563 191.256 246.046C191.259 246.529 193.999 246.905 197.376 246.886Z" fill="#1771B5"/>
<path opacity="0.5" d="M197.126 246.761C200.296 246.743 202.865 246.392 202.862 245.978C202.86 245.564 200.288 245.243 197.117 245.261C193.947 245.279 191.378 245.629 191.381 246.043C191.383 246.457 193.955 246.778 197.126 246.761Z" fill="#1670B4"/>
<path opacity="0.5" d="M196.751 246.761C199.715 246.744 202.116 246.395 202.114 245.981C202.111 245.567 199.707 245.245 196.743 245.262C193.779 245.278 191.378 245.627 191.381 246.041C191.383 246.456 193.788 246.778 196.751 246.761Z" fill="#146FB4"/>
<path opacity="0.5" d="M196.376 246.636C199.133 246.62 201.367 246.328 201.365 245.983C201.363 245.638 199.126 245.371 196.369 245.387C193.612 245.402 191.379 245.695 191.38 246.04C191.382 246.385 193.619 246.652 196.376 246.636Z" fill="#136EB3"/>
<path opacity="0.5" d="M196.002 246.636C198.552 246.622 200.618 246.331 200.616 245.986C200.614 245.641 198.545 245.373 195.995 245.387C193.444 245.401 191.379 245.693 191.38 246.038C191.382 246.383 193.451 246.651 196.002 246.636Z" fill="#116EB3"/>
<path opacity="0.5" d="M195.752 246.636C198.096 246.623 199.994 246.332 199.992 245.987C199.99 245.642 198.089 245.373 195.745 245.386C193.402 245.4 191.504 245.69 191.505 246.035C191.507 246.38 193.409 246.649 195.752 246.636Z" fill="#106DB2"/>
<path opacity="0.5" d="M195.377 246.511C197.514 246.499 199.244 246.265 199.243 245.989C199.241 245.713 197.508 245.499 195.371 245.512C193.235 245.524 191.504 245.757 191.505 246.033C191.507 246.309 193.24 246.523 195.377 246.511Z" fill="#0E6CB2"/>
<path opacity="0.5" d="M195.003 246.511C196.932 246.5 198.496 246.268 198.494 245.992C198.493 245.716 196.927 245.501 194.997 245.512C193.067 245.523 191.504 245.755 191.505 246.031C191.507 246.307 193.073 246.522 195.003 246.511Z" fill="#0D6BB1"/>
<path opacity="0.5" d="M194.752 246.386C196.475 246.376 197.871 246.2 197.87 245.993C197.869 245.786 196.471 245.626 194.748 245.636C193.025 245.646 191.629 245.822 191.63 246.029C191.631 246.236 193.029 246.396 194.752 246.386Z" fill="#0B6AB1"/>
<path opacity="0.5" d="M194.378 246.386C195.894 246.377 197.122 246.203 197.121 245.996C197.12 245.789 195.89 245.628 194.374 245.636C192.857 245.645 191.629 245.82 191.63 246.027C191.631 246.234 192.861 246.395 194.378 246.386Z" fill="#0969B0"/>
<path opacity="0.5" d="M194.002 246.261C195.312 246.254 196.373 246.136 196.372 245.998C196.371 245.86 195.309 245.754 194 245.762C192.69 245.769 191.629 245.887 191.63 246.025C191.631 246.163 192.693 246.269 194.002 246.261Z" fill="#0868B0"/>
<path opacity="0.5" d="M193.753 246.261C194.787 246.255 195.625 246.138 195.624 246C195.623 245.862 194.784 245.755 193.75 245.761C192.717 245.767 191.879 245.883 191.88 246.021C191.881 246.159 192.719 246.267 193.753 246.261Z" fill="#0667AF"/>
<path opacity="0.5" d="M193.379 246.261C194.206 246.256 194.876 246.141 194.875 246.003C194.874 245.865 194.203 245.757 193.376 245.761C192.549 245.766 191.879 245.882 191.88 246.02C191.881 246.158 192.552 246.266 193.379 246.261Z" fill="#0566AF"/>
<path opacity="0.5" d="M193.004 246.136C193.624 246.133 194.126 246.074 194.126 246.005C194.126 245.936 193.622 245.883 193.002 245.886C192.382 245.89 191.879 245.949 191.88 246.018C191.88 246.087 192.383 246.14 193.004 246.136Z" fill="#0365AE"/>
<path opacity="0.5" d="M192.754 246.136C193.168 246.134 193.503 246.076 193.502 246.007C193.502 245.938 193.166 245.884 192.753 245.886C192.339 245.888 192.004 245.946 192.005 246.015C192.005 246.084 192.341 246.138 192.754 246.136Z" fill="#0264AE"/>
</g>
</g>
<path d="M151.317 105.949C151.317 105.824 151.442 105.699 151.442 105.574C151.442 105.45 151.566 105.45 151.566 105.325C151.566 105.2 151.691 105.2 151.691 105.075C152.939 102.076 154.936 99.5773 157.307 98.203L157.931 97.8282L241.173 49.7262L324.416 1.62426L325.04 1.24944C327.411 -0.124902 329.907 -0.124902 331.904 0.87462C331.904 0.87462 332.029 0.87462 332.029 0.99956C332.029 0.99956 332.153 0.99956 332.153 1.1245L343.136 7.49645L337.021 9.99525L358.986 126.689C359.61 129.688 359.11 133.061 357.738 136.06C357.738 136.185 357.613 136.185 357.613 136.31C357.613 136.435 357.488 136.435 357.488 136.56C356.24 139.558 354.243 142.057 351.872 143.431L185.887 239.51L187.384 246.882L177.026 240.885C177.026 240.885 176.901 240.885 176.901 240.76C174.904 239.635 173.282 237.511 172.782 234.513L150.194 114.945C149.694 112.071 150.194 108.823 151.317 105.949Z" fill="white"/>
<path d="M194.872 246.757L362.73 149.678C367.846 146.805 370.842 138.809 369.594 132.062L347.379 14.2433C346.131 7.49651 340.889 4.37301 335.897 7.24664L168.04 104.45C162.923 107.324 159.928 115.32 161.176 122.067L183.391 239.885C184.639 246.632 189.88 249.756 194.872 246.757Z" fill="url(#paint0_linear)"/>
<path d="M168.789 104.075L252.031 55.9733L278.115 194.407L195.621 246.382C190.13 249.506 184.763 247.007 183.64 240.635L161.051 121.192C159.803 114.82 163.298 107.199 168.789 104.075Z" fill="url(#paint1_linear)"/>
<path d="M335.274 7.74644L252.031 55.8484L277.99 193.408L362.106 150.053C367.597 146.93 370.967 139.184 369.843 132.936L347.379 13.3687C346.131 7.12174 340.765 4.62294 335.274 7.74644Z" fill="url(#paint2_linear)"/>
<path d="M368.845 141.932C367.472 145.306 365.101 148.429 362.23 150.053L195.746 246.382C192.751 248.131 189.88 248.131 187.634 246.757L262.265 109.073L368.845 141.932Z" fill="url(#paint3_linear)"/>
<path d="M162.05 112.196C163.423 108.823 165.794 105.699 168.664 104.075L335.274 7.74637C338.269 5.99721 341.139 5.99721 343.386 7.37155L268.879 144.931L162.05 112.196Z" fill="url(#paint4_linear)"/>
<g opacity="0.5">
<path opacity="0.5" d="M1384.01 88.3463V88.0984V87.8504V87.6025C1383.02 85.3709 1381.53 83.1393 1379.55 82.1475L1379.06 81.8996L1313.67 43.9628L1248.28 6.02614L1247.79 5.77818C1245.81 4.78637 1244.07 4.78637 1242.34 5.53023C1242.34 5.53023 1242.34 5.53023 1242.09 5.53023C1242.09 5.53023 1242.09 5.53023 1241.84 5.53023L1233.18 10.4893L1238.13 12.7209L1220.79 104.463C1220.3 106.943 1220.79 109.422 1221.78 111.902V112.15C1221.78 112.15 1221.78 112.15 1221.78 112.398C1222.77 114.629 1224.26 116.861 1226.24 117.853L1356.77 193.23L1355.53 198.933L1363.7 194.222C1363.7 194.222 1363.7 194.222 1363.95 194.222C1365.43 193.478 1366.67 191.742 1367.17 189.263L1384.75 95.289C1385.25 93.0574 1385 90.5779 1384.01 88.3463Z" fill="white"/>
<g opacity="0.5">
<path opacity="0.5" d="M1349.83 198.933L1217.82 122.564C1213.86 120.332 1211.38 114.133 1212.37 108.678L1229.71 16.1922C1230.7 10.9852 1234.66 8.50566 1238.62 10.7372L1370.63 87.1066C1374.6 89.3381 1377.07 95.537 1376.08 100.992L1358.75 193.478C1357.76 198.933 1353.79 201.165 1349.83 198.933Z" fill="url(#paint5_linear)"/>
<path opacity="0.5" d="M1370.39 86.8586L1305 48.9219L1284.44 157.773L1349.33 198.685C1353.54 201.165 1357.75 199.181 1358.75 194.222L1376.33 100.248C1377.32 95.289 1374.6 89.3381 1370.39 86.8586Z" fill="url(#paint6_linear)"/>
<path opacity="0.5" d="M1239.37 11.2331L1304.75 49.1698L1284.44 157.277L1218.31 123.06C1214.1 120.58 1211.38 114.629 1212.12 109.67L1229.71 15.6963C1230.95 10.7372 1235.16 8.75359 1239.37 11.2331Z" fill="url(#paint7_linear)"/>
<path opacity="0.5" d="M1213.11 116.613C1214.1 119.34 1216.08 121.572 1218.31 123.06L1349.09 198.685C1351.32 199.925 1353.79 199.925 1355.53 198.933L1296.83 90.8258L1213.11 116.613Z" fill="url(#paint8_linear)"/>
<path opacity="0.5" d="M1375.59 93.3054C1374.6 90.5779 1372.62 88.3464 1370.39 86.8587L1239.61 11.2332C1237.39 9.99342 1234.91 9.99342 1233.17 10.9852L1291.63 118.845L1375.59 93.3054Z" fill="url(#paint9_linear)"/>
</g>
</g>
<path d="M1361.34 238.538L1358.19 235.382L1355.04 238.538L1358.19 241.694L1361.34 238.538Z" fill="white"/>
<path d="M1372.86 238.406L1369.71 235.25L1366.55 238.406L1369.71 241.562L1372.86 238.406Z" fill="white"/>
<path d="M1367.04 232.854L1363.89 229.698L1360.74 232.854L1363.89 236.01L1367.04 232.854Z" fill="white"/>
<path d="M1367.15 244.09L1364 240.934L1360.85 244.09L1364 247.246L1367.15 244.09Z" fill="white"/>
<defs>
<linearGradient id="paint0_linear" x1="358.604" y1="73.2157" x2="159.093" y2="110.808" gradientUnits="userSpaceOnUse">
<stop stop-color="#7BDAFF"/>
<stop offset="1" stop-color="#59BDEF"/>
</linearGradient>
<linearGradient id="paint1_linear" x1="153.759" y1="338.179" x2="254.978" y2="147.243" gradientUnits="userSpaceOnUse">
<stop offset="0.7677" stop-color="#59BDEF"/>
<stop offset="0.8452" stop-color="#55B8EB"/>
<stop offset="0.9318" stop-color="#49ABE1"/>
<stop offset="1" stop-color="#3A9BD5"/>
</linearGradient>
<linearGradient id="paint2_linear" x1="427.065" y1="179.922" x2="285.956" y2="120.036" gradientUnits="userSpaceOnUse">
<stop offset="0.7677" stop-color="#59BDEF"/>
<stop offset="0.8452" stop-color="#55B8EB"/>
<stop offset="0.9318" stop-color="#49ABE1"/>
<stop offset="1" stop-color="#3A9BD5"/>
</linearGradient>
<linearGradient id="paint3_linear" x1="305.498" y1="339.597" x2="204.727" y2="165.325" gradientUnits="userSpaceOnUse">
<stop offset="0.7677" stop-color="#3A9BD5"/>
<stop offset="0.8386" stop-color="#3896D2"/>
<stop offset="0.9179" stop-color="#3189C9"/>
<stop offset="1" stop-color="#2573BA"/>
</linearGradient>
<linearGradient id="paint4_linear" x1="308.629" y1="-10.0422" x2="121.344" y2="132.248" gradientUnits="userSpaceOnUse">
<stop stop-color="#7BDAFF"/>
<stop offset="1" stop-color="#59BDEF"/>
</linearGradient>
<linearGradient id="paint5_linear" x1="1221.18" y1="62.593" x2="1377.91" y2="92.1258" gradientUnits="userSpaceOnUse">
<stop stop-color="#7BDAFF"/>
<stop offset="1" stop-color="#59BDEF"/>
</linearGradient>
<linearGradient id="paint6_linear" x1="1382.1" y1="270.748" x2="1302.58" y2="120.748" gradientUnits="userSpaceOnUse">
<stop offset="0.7677" stop-color="#59BDEF"/>
<stop offset="0.8452" stop-color="#55B8EB"/>
<stop offset="0.9318" stop-color="#49ABE1"/>
<stop offset="1" stop-color="#3A9BD5"/>
</linearGradient>
<linearGradient id="paint7_linear" x1="1167.39" y1="146.421" x2="1278.25" y2="99.3747" gradientUnits="userSpaceOnUse">
<stop offset="0.7677" stop-color="#59BDEF"/>
<stop offset="0.8452" stop-color="#55B8EB"/>
<stop offset="0.9318" stop-color="#49ABE1"/>
<stop offset="1" stop-color="#3A9BD5"/>
</linearGradient>
<linearGradient id="paint8_linear" x1="1262.9" y1="271.862" x2="1342.06" y2="134.953" gradientUnits="userSpaceOnUse">
<stop offset="0.7677" stop-color="#3A9BD5"/>
<stop offset="0.8386" stop-color="#3896D2"/>
<stop offset="0.9179" stop-color="#3189C9"/>
<stop offset="1" stop-color="#2573BA"/>
</linearGradient>
<linearGradient id="paint9_linear" x1="1260.44" y1="-2.81447" x2="1407.57" y2="108.968" gradientUnits="userSpaceOnUse">
<stop stop-color="#7BDAFF"/>
<stop offset="1" stop-color="#59BDEF"/>
</linearGradient>
</defs>
</svg>
