<svg width="16" height="16" viewBox="0 0 16 16" fill="none" xmlns="http://www.w3.org/2000/svg">
<path d="M13 6.66675C13 8.59814 11.7343 10.521 10.274 12.0623C9.56439 12.8114 8.85133 13.4258 8.31457 13.8532C8.20085 13.9438 8.0954 14.0257 8 14.0983C7.9046 14.0257 7.79915 13.9438 7.68543 13.8532C7.14867 13.4258 6.43561 12.8114 5.72595 12.0623C4.26574 10.521 3 8.59814 3 6.66675C3 5.34067 3.52678 4.0689 4.46447 3.13121C5.40215 2.19353 6.67392 1.66675 8 1.66675C9.32608 1.66675 10.5979 2.19353 11.5355 3.13121C12.4732 4.0689 13 5.34067 13 6.66675Z" stroke="#3066BE" stroke-width="2" stroke-linecap="round" stroke-linejoin="round"/>
<path d="M9 6.66675C9 7.21903 8.55228 7.66675 8 7.66675C7.44772 7.66675 7 7.21903 7 6.66675C7 6.11446 7.44772 5.66675 8 5.66675C8.55228 5.66675 9 6.11446 9 6.66675Z" stroke="#3066BE" stroke-width="2" stroke-linecap="round" stroke-linejoin="round"/>
</svg>
