<svg width="16" height="16" viewBox="0 0 16 16" fill="none" xmlns="http://www.w3.org/2000/svg">
<path fill-rule="evenodd" clip-rule="evenodd" d="M6 1.33337C4.15905 1.33337 2.66667 2.82576 2.66667 4.66671C2.66667 6.50766 4.15905 8.00004 6 8.00004C7.84095 8.00004 9.33333 6.50766 9.33333 4.66671C9.33333 2.82576 7.84095 1.33337 6 1.33337ZM4 4.66671C4 3.56214 4.89543 2.66671 6 2.66671C7.10457 2.66671 8 3.56214 8 4.66671C8 5.77128 7.10457 6.66671 6 6.66671C4.89543 6.66671 4 5.77128 4 4.66671Z" fill="#1D3252"/>
<path d="M3.33333 9.33337C2.44928 9.33337 1.60143 9.68456 0.976311 10.3097C0.35119 10.9348 0 11.7827 0 12.6667V14C0 14.3682 0.298477 14.6667 0.666667 14.6667C1.03486 14.6667 1.33333 14.3682 1.33333 14V12.6667C1.33333 12.1363 1.54405 11.6276 1.91912 11.2525C2.29419 10.8774 2.8029 10.6667 3.33333 10.6667H8.66667C9.1971 10.6667 9.70581 10.8774 10.0809 11.2525C10.456 11.6276 10.6667 12.1363 10.6667 12.6667V14C10.6667 14.3682 10.9651 14.6667 11.3333 14.6667C11.7015 14.6667 12 14.3682 12 14V12.6667C12 11.7827 11.6488 10.9348 11.0237 10.3097C10.3986 9.68456 9.55072 9.33337 8.66667 9.33337H3.33333Z" fill="#1D3252"/>
<path d="M12.6878 9.92004C12.7799 9.56355 13.1435 9.34916 13.5 9.44121C14.2151 9.62585 14.8486 10.0428 15.3011 10.6265C15.7536 11.2102 15.9994 11.9277 16 12.6662V14C16 14.3682 15.7015 14.6667 15.3333 14.6667C14.9651 14.6667 14.6667 14.3682 14.6667 14V12.6672C14.6663 12.2241 14.5188 11.7935 14.2473 11.4434C13.9759 11.0931 13.5957 10.843 13.1667 10.7322C12.8102 10.6402 12.5958 10.2765 12.6878 9.92004Z" fill="#1D3252"/>
<path d="M10.832 1.44088C10.4753 1.34955 10.1122 1.56467 10.0208 1.92135C9.92951 2.27803 10.1446 2.64122 10.5013 2.73254C10.9315 2.84269 11.3128 3.09289 11.5851 3.4437C11.8574 3.7945 12.0052 4.22596 12.0052 4.67004C12.0052 5.11413 11.8574 5.54558 11.5851 5.89639C11.3128 6.24719 10.9315 6.49739 10.5013 6.60754C10.1446 6.69887 9.92951 7.06205 10.0208 7.41873C10.1122 7.77542 10.4753 7.99053 10.832 7.89921C11.549 7.71562 12.1846 7.29862 12.6384 6.71395C13.0922 6.12928 13.3386 5.41018 13.3386 4.67004C13.3386 3.9299 13.0922 3.21081 12.6384 2.62613C12.1846 2.04146 11.549 1.62446 10.832 1.44088Z" fill="#1D3252"/>
</svg>
