<svg width="24" height="24" viewBox="0 0 24 24" fill="none" xmlns="http://www.w3.org/2000/svg">
<path d="M2.08118 7.74996C4.82096 5.33493 8.34771 4.00244 11.9999 4.00244C15.6522 4.00244 19.1789 5.33493 21.9187 7.74996C22.333 8.11516 22.9649 8.07535 23.3301 7.66104C23.6953 7.24674 23.6555 6.61482 23.2412 6.24963C20.1361 3.51259 16.1391 2.00244 11.9999 2.00244C7.86075 2.00244 3.86376 3.51259 0.758684 6.24963C0.344379 6.61482 0.30457 7.24674 0.669769 7.66104C1.03497 8.07535 1.66688 8.11516 2.08118 7.74996Z" fill="#1D3252"/>
<path d="M5.64001 11.3182C7.43689 9.82154 9.70147 9.00195 12.04 9.00195C14.3786 9.00195 16.6431 9.82154 18.44 11.3182C18.8644 11.6717 19.4949 11.6142 19.8484 11.1898C20.2019 10.7655 20.1444 10.1349 19.72 9.78145C17.5638 7.98546 14.8463 7.00195 12.04 7.00195C9.23376 7.00195 6.51626 7.98546 4.36001 9.78145C3.93565 10.1349 3.87818 10.7655 4.23164 11.1898C4.5851 11.6142 5.21565 11.6717 5.64001 11.3182Z" fill="#1D3252"/>
<path d="M12.0053 14.0015C10.9675 14.0015 9.95545 14.3244 9.10945 14.9254C8.65922 15.2453 8.03494 15.1396 7.71508 14.6894C7.39521 14.2391 7.50089 13.6149 7.95112 13.295C9.13552 12.4535 10.5524 12.0015 12.0053 12.0015C13.4582 12.0015 14.875 12.4535 16.0595 13.295C16.5097 13.6149 16.6154 14.2391 16.2955 14.6894C15.9756 15.1396 15.3513 15.2453 14.9011 14.9254C14.0551 14.3244 13.0431 14.0015 12.0053 14.0015Z" fill="#1D3252"/>
<path d="M12 21C13.1046 21 14 20.1046 14 19C14 17.8954 13.1046 17 12 17C10.8954 17 10 17.8954 10 19C10 20.1046 10.8954 21 12 21Z" fill="#1D3252"/>
</svg>
