<svg width="16" height="16" viewBox="0 0 16 16" fill="none" xmlns="http://www.w3.org/2000/svg">
<path fill-rule="evenodd" clip-rule="evenodd" d="M15.138 0.862029C15.3372 1.06125 15.3897 1.3642 15.2691 1.61882L9.26909 14.2855C9.14855 14.54 8.88112 14.6913 8.60091 14.6635C8.3207 14.6358 8.08813 14.435 8.01984 14.1618L6.78352 9.21651L1.83824 7.9802C1.56507 7.9119 1.36426 7.67934 1.33651 7.39913C1.30877 7.11891 1.46007 6.85148 1.71454 6.73094L14.3812 0.730942C14.6358 0.610332 14.9388 0.662807 15.138 0.862029ZM3.96883 7.13847L7.49496 8.02001C7.73382 8.07972 7.92032 8.26622 7.98003 8.50508L8.86156 12.0312L13.265 2.73502L3.96883 7.13847Z" fill="#1D3252"/>
</svg>
