<svg width="32" height="32" viewBox="0 0 32 32" fill="none" xmlns="http://www.w3.org/2000/svg">
<path fill-rule="evenodd" clip-rule="evenodd" d="M22.1569 24.0427C20.104 25.6848 17.5001 26.6667 14.6667 26.6667C8.03933 26.6667 2.66675 21.2942 2.66675 14.6667C2.66675 8.03933 8.03933 2.66675 14.6667 2.66675C21.2942 2.66675 26.6667 8.03933 26.6667 14.6667C26.6667 17.5001 25.6848 20.1042 24.0425 22.1571L28.9428 27.0573C29.4635 27.578 29.4635 28.4222 28.9428 28.9429C28.4221 29.4636 27.5778 29.4636 27.0571 28.9429L22.1569 24.0427ZM5.33341 14.6667C5.33341 9.51209 9.51209 5.33341 14.6667 5.33341C19.8214 5.33341 24.0001 9.51209 24.0001 14.6667C24.0001 17.1812 23.0058 19.4634 21.3888 21.1417C21.3431 21.1768 21.2991 21.2154 21.2571 21.2573C21.2152 21.2992 21.1767 21.3432 21.1415 21.389C19.4633 23.0058 17.1811 24.0001 14.6667 24.0001C9.51209 24.0001 5.33341 19.8214 5.33341 14.6667Z" fill="white"/>
</svg>
