<svg width="16" height="16" viewBox="0 0 16 16" fill="none" xmlns="http://www.w3.org/2000/svg">
<path fill-rule="evenodd" clip-rule="evenodd" d="M6 1.33325C4.15905 1.33325 2.66667 2.82564 2.66667 4.66659C2.66667 6.50753 4.15905 7.99992 6 7.99992C7.84095 7.99992 9.33333 6.50753 9.33333 4.66659C9.33333 2.82564 7.84095 1.33325 6 1.33325ZM4 4.66659C4 3.56202 4.89543 2.66659 6 2.66659C7.10457 2.66659 8 3.56202 8 4.66659C8 5.77115 7.10457 6.66659 6 6.66659C4.89543 6.66659 4 5.77115 4 4.66659Z" fill="#1D3252"/>
<path d="M3.33333 9.33325C2.44928 9.33325 1.60143 9.68444 0.976311 10.3096C0.35119 10.9347 0 11.7825 0 12.6666V13.9999C0 14.3681 0.298477 14.6666 0.666667 14.6666C1.03486 14.6666 1.33333 14.3681 1.33333 13.9999V12.6666C1.33333 12.1362 1.54405 11.6274 1.91912 11.2524C2.29419 10.8773 2.8029 10.6666 3.33333 10.6666H8.66667C9.1971 10.6666 9.70581 10.8773 10.0809 11.2524C10.456 11.6274 10.6667 12.1362 10.6667 12.6666V13.9999C10.6667 14.3681 10.9651 14.6666 11.3333 14.6666C11.7015 14.6666 12 14.3681 12 13.9999V12.6666C12 11.7825 11.6488 10.9347 11.0237 10.3096C10.3986 9.68444 9.55072 9.33325 8.66667 9.33325H3.33333Z" fill="#1D3252"/>
<path d="M12.6878 9.91992C12.7799 9.56342 13.1435 9.34904 13.5 9.44109C14.2151 9.62573 14.8486 10.0426 15.3011 10.6264C15.7536 11.2101 15.9994 11.9275 16 12.6661V13.9999C16 14.3681 15.7015 14.6666 15.3333 14.6666C14.9651 14.6666 14.6667 14.3681 14.6667 13.9999V12.6671C14.6663 12.224 14.5188 11.7934 14.2473 11.4432C13.9759 11.093 13.5957 10.8429 13.1667 10.7321C12.8102 10.64 12.5958 10.2764 12.6878 9.91992Z" fill="#1D3252"/>
<path d="M10.832 1.44075C10.4753 1.34943 10.1122 1.56454 10.0208 1.92123C9.92951 2.27791 10.1446 2.64109 10.5013 2.73242C10.9315 2.84257 11.3128 3.09277 11.5851 3.44357C11.8574 3.79438 12.0052 4.22583 12.0052 4.66992C12.0052 5.114 11.8574 5.54546 11.5851 5.89626C11.3128 6.24707 10.9315 6.49727 10.5013 6.60742C10.1446 6.69875 9.92951 7.06193 10.0208 7.41861C10.1122 7.7753 10.4753 7.99041 10.832 7.89909C11.549 7.7155 12.1846 7.2985 12.6384 6.71383C13.0922 6.12915 13.3386 5.41006 13.3386 4.66992C13.3386 3.92978 13.0922 3.21069 12.6384 2.62601C12.1846 2.04134 11.549 1.62434 10.832 1.44075Z" fill="#1D3252"/>
</svg>
